<mxfile host="app.diagrams.net" agent="Mozilla/5.0 (Windows NT 10.0; Win64; x64) AppleWebKit/537.36 (KHTML, like Gecko) Chrome/130.0.0.0 Safari/537.36 Edg/130.0.0.0" version="24.8.4">
  <diagram id="7gcUSTIZ7YSJ5vT40chW" name="Page-1">
    <mxGraphModel dx="1368" dy="561" grid="1" gridSize="10" guides="1" tooltips="1" connect="1" arrows="1" fold="1" page="1" pageScale="1" pageWidth="1169" pageHeight="827" math="0" shadow="0">
      <root>
        <mxCell id="0" />
        <mxCell id="1" parent="0" />
        <mxCell id="Je1Hd4dE8nQYAFv2ral5-33" style="edgeStyle=orthogonalEdgeStyle;rounded=0;orthogonalLoop=1;jettySize=auto;html=1;entryX=0.557;entryY=-0.068;entryDx=0;entryDy=0;entryPerimeter=0;flowAnimation=1;" edge="1" parent="1" source="Je1Hd4dE8nQYAFv2ral5-5" target="Je1Hd4dE8nQYAFv2ral5-1">
          <mxGeometry relative="1" as="geometry" />
        </mxCell>
        <mxCell id="Je1Hd4dE8nQYAFv2ral5-24" style="edgeStyle=orthogonalEdgeStyle;rounded=0;orthogonalLoop=1;jettySize=auto;html=1;entryX=-0.013;entryY=0.571;entryDx=0;entryDy=0;entryPerimeter=0;flowAnimation=1;" edge="1" parent="1" source="Je1Hd4dE8nQYAFv2ral5-1" target="SZY12_XKgGBlkoAp8IEY-9">
          <mxGeometry relative="1" as="geometry">
            <Array as="points">
              <mxPoint x="487" y="624.77" />
            </Array>
          </mxGeometry>
        </mxCell>
        <mxCell id="Je1Hd4dE8nQYAFv2ral5-23" style="edgeStyle=orthogonalEdgeStyle;rounded=0;orthogonalLoop=1;jettySize=auto;html=1;entryX=0.522;entryY=0;entryDx=0;entryDy=0;entryPerimeter=0;flowAnimation=1;" edge="1" parent="1" source="Je1Hd4dE8nQYAFv2ral5-15" target="SZY12_XKgGBlkoAp8IEY-9">
          <mxGeometry relative="1" as="geometry" />
        </mxCell>
        <mxCell id="Je1Hd4dE8nQYAFv2ral5-27" style="edgeStyle=orthogonalEdgeStyle;rounded=0;orthogonalLoop=1;jettySize=auto;html=1;entryX=1.01;entryY=0.549;entryDx=0;entryDy=0;entryPerimeter=0;flowAnimation=1;" edge="1" parent="1" source="Je1Hd4dE8nQYAFv2ral5-16" target="SZY12_XKgGBlkoAp8IEY-9">
          <mxGeometry relative="1" as="geometry">
            <Array as="points">
              <mxPoint x="768" y="623.77" />
              <mxPoint x="698" y="623.77" />
            </Array>
          </mxGeometry>
        </mxCell>
        <mxCell id="Je1Hd4dE8nQYAFv2ral5-22" style="edgeStyle=orthogonalEdgeStyle;rounded=0;orthogonalLoop=1;jettySize=auto;html=1;entryX=-0.1;entryY=0.502;entryDx=0;entryDy=0;entryPerimeter=0;flowAnimation=1;" edge="1" parent="1" source="Je1Hd4dE8nQYAFv2ral5-19" target="Je1Hd4dE8nQYAFv2ral5-16">
          <mxGeometry relative="1" as="geometry" />
        </mxCell>
        <mxCell id="Je1Hd4dE8nQYAFv2ral5-28" style="edgeStyle=orthogonalEdgeStyle;rounded=0;orthogonalLoop=1;jettySize=auto;html=1;flowAnimation=1;" edge="1" parent="1" source="Je1Hd4dE8nQYAFv2ral5-16" target="Je1Hd4dE8nQYAFv2ral5-4">
          <mxGeometry relative="1" as="geometry" />
        </mxCell>
        <mxCell id="Je1Hd4dE8nQYAFv2ral5-16" value="Gold" style="html=1;verticalLabelPosition=bottom;align=center;labelBackgroundColor=#ffffff;verticalAlign=top;strokeWidth=2;strokeColor=#0080F0;shadow=0;dashed=0;shape=mxgraph.ios7.icons.data;" vertex="1" parent="1">
          <mxGeometry x="748" y="470" width="40" height="49.05" as="geometry" />
        </mxCell>
        <mxCell id="Je1Hd4dE8nQYAFv2ral5-18" style="edgeStyle=orthogonalEdgeStyle;rounded=0;orthogonalLoop=1;jettySize=auto;html=1;entryX=-0.021;entryY=0.474;entryDx=0;entryDy=0;entryPerimeter=0;flowAnimation=1;" edge="1" parent="1" source="SZY12_XKgGBlkoAp8IEY-2" target="Je1Hd4dE8nQYAFv2ral5-15">
          <mxGeometry relative="1" as="geometry" />
        </mxCell>
        <mxCell id="SZY12_XKgGBlkoAp8IEY-2" value="Databricks&lt;br style=&quot;font-size: 10px;&quot;&gt;SQL" style="aspect=fixed;html=1;perimeter=none;align=center;shadow=0;dashed=0;image;fontSize=10;image=img/lib/mscae/Databricks.svg;" parent="1" vertex="1">
          <mxGeometry x="541.93" y="479.41999999999996" width="28.72" height="30.23" as="geometry" />
        </mxCell>
        <mxCell id="SZY12_XKgGBlkoAp8IEY-9" value="Storage" style="aspect=fixed;html=1;perimeter=none;align=center;shadow=0;dashed=0;image;fontSize=12;image=img/lib/mscae/Storage.svg;" parent="1" vertex="1">
          <mxGeometry x="598.36" y="599.77" width="50" height="43" as="geometry" />
        </mxCell>
        <mxCell id="SZY12_XKgGBlkoAp8IEY-11" value="Power BI&lt;br&gt;Dashboard" style="shadow=0;dashed=0;html=1;strokeColor=none;labelPosition=center;verticalLabelPosition=bottom;verticalAlign=top;align=center;shape=mxgraph.mscae.cloud.power_bi_embedded;fillColor=#000000;pointerEvents=1;" parent="1" vertex="1">
          <mxGeometry x="997" y="471.41999999999996" width="47" height="50" as="geometry" />
        </mxCell>
        <mxCell id="Je1Hd4dE8nQYAFv2ral5-10" style="edgeStyle=orthogonalEdgeStyle;rounded=0;orthogonalLoop=1;jettySize=auto;html=1;entryX=0;entryY=0.5;entryDx=0;entryDy=0;flowAnimation=1;" edge="1" parent="1">
          <mxGeometry relative="1" as="geometry">
            <mxPoint x="168" y="175" as="sourcePoint" />
            <mxPoint x="284" y="174.5" as="targetPoint" />
          </mxGeometry>
        </mxCell>
        <mxCell id="6SFlgYlH90YisVSZsUYo-1" value="Promed App&lt;div&gt;Flutter&lt;/div&gt;" style="image;sketch=0;aspect=fixed;html=1;points=[];align=center;fontSize=12;image=img/lib/mscae/App_Service_Mobile_App.svg;" parent="1" vertex="1">
          <mxGeometry x="133" y="150" width="34" height="50" as="geometry" />
        </mxCell>
        <mxCell id="Je1Hd4dE8nQYAFv2ral5-1" value="Bronze" style="html=1;verticalLabelPosition=bottom;align=center;labelBackgroundColor=#ffffff;verticalAlign=top;strokeWidth=2;strokeColor=#0080F0;shadow=0;dashed=0;shape=mxgraph.ios7.icons.data;" vertex="1" parent="1">
          <mxGeometry x="467" y="470" width="40" height="49.05" as="geometry" />
        </mxCell>
        <mxCell id="Je1Hd4dE8nQYAFv2ral5-11" style="edgeStyle=orthogonalEdgeStyle;rounded=0;orthogonalLoop=1;jettySize=auto;html=1;entryX=0;entryY=0.5;entryDx=0;entryDy=0;flowAnimation=1;" edge="1" parent="1" source="Je1Hd4dE8nQYAFv2ral5-3" target="Je1Hd4dE8nQYAFv2ral5-7">
          <mxGeometry relative="1" as="geometry" />
        </mxCell>
        <mxCell id="Je1Hd4dE8nQYAFv2ral5-3" value="App Services" style="shape=image;verticalLabelPosition=bottom;labelBackgroundColor=#ffffff;verticalAlign=top;aspect=fixed;imageAspect=0;image=data:image/svg+xml,PHN2ZyB4bWxuczpkYz0iaHR0cDovL3B1cmwub3JnL2RjL2VsZW1lbnRzLzEuMS8iIHhtbG5zOmNjPSJodHRwOi8vY3JlYXRpdmVjb21tb25zLm9yZy9ucyMiIHhtbG5zOnJkZj0iaHR0cDovL3d3dy53My5vcmcvMTk5OS8wMi8yMi1yZGYtc3ludGF4LW5zIyIgeG1sbnM6c3ZnPSJodHRwOi8vd3d3LnczLm9yZy8yMDAwL3N2ZyIgeG1sbnM9Imh0dHA6Ly93d3cudzMub3JnLzIwMDAvc3ZnIiB4bWxuczpzb2RpcG9kaT0iaHR0cDovL3NvZGlwb2RpLnNvdXJjZWZvcmdlLm5ldC9EVEQvc29kaXBvZGktMC5kdGQiIHhtbG5zOmlua3NjYXBlPSJodHRwOi8vd3d3Lmlua3NjYXBlLm9yZy9uYW1lc3BhY2VzL2lua3NjYXBlIiB2ZXJzaW9uPSIxLjEiIGlkPSJzdmc2MTMyMyIgaW5rc2NhcGU6dmVyc2lvbj0iMC45Mi4zICgyNDA1NTQ2LCAyMDE4LTAzLTExKSIgc29kaXBvZGk6ZG9jbmFtZT0iYXp1cmVfcG9ydGFsX3dlYl9hcHBzLnN2ZyIgeD0iMHB4IiB5PSIwcHgiIHZpZXdCb3g9IjAgMCA1MS4wMjkzMTcgNTEuMDIiIHhtbDpzcGFjZT0icHJlc2VydmUiIHdpZHRoPSI1MS4wMjkzMTYiIGhlaWdodD0iNTEuMDIiPjxtZXRhZGF0YSBpZD0ibWV0YWRhdGExMTY1NSI+PHJkZjpSREY+PGNjOldvcmsgcmRmOmFib3V0PSIiPjxkYzpmb3JtYXQ+aW1hZ2Uvc3ZnK3htbDwvZGM6Zm9ybWF0PjxkYzp0eXBlIHJkZjpyZXNvdXJjZT0iaHR0cDovL3B1cmwub3JnL2RjL2RjbWl0eXBlL1N0aWxsSW1hZ2UiLz48ZGM6dGl0bGUvPjwvY2M6V29yaz48L3JkZjpSREY+PC9tZXRhZGF0YT48ZGVmcyBpZD0iZGVmczExNjUzIi8+JiN4YTs8ZmlsdGVyIGlkPSJmaWx0ZXJfMiI+JiN4YTsJPGZlR2F1c3NpYW5CbHVyIGlkPSJmZUdhdXNzaWFuQmx1cjYxMjk2IiBzdGREZXZpYXRpb249IjIiLz4mI3hhOzwvZmlsdGVyPiYjeGE7PHNvZGlwb2RpOm5hbWVkdmlldyBib3JkZXJjb2xvcj0iIzY2NjY2NiIgYm9yZGVyb3BhY2l0eT0iMSIgZml0LW1hcmdpbi1ib3R0b209IjAiIGZpdC1tYXJnaW4tbGVmdD0iMCIgZml0LW1hcmdpbi1yaWdodD0iMCIgZml0LW1hcmdpbi10b3A9IjAiIGdyaWR0b2xlcmFuY2U9IjEwIiBndWlkZXRvbGVyYW5jZT0iMTAiIGlkPSJuYW1lZHZpZXc2MTMyNSIgaW5rc2NhcGU6Y3VycmVudC1sYXllcj0ic3ZnNjEzMjMiIGlua3NjYXBlOmN4PSItNDUuMDA0ODE4IiBpbmtzY2FwZTpjeT0iMzkuNDkwNjM4IiBpbmtzY2FwZTpwYWdlb3BhY2l0eT0iMCIgaW5rc2NhcGU6cGFnZXNoYWRvdz0iMiIgaW5rc2NhcGU6d2luZG93LWhlaWdodD0iMTAxNyIgaW5rc2NhcGU6d2luZG93LW1heGltaXplZD0iMSIgaW5rc2NhcGU6d2luZG93LXdpZHRoPSIxOTIwIiBpbmtzY2FwZTp3aW5kb3cteD0iLTgiIGlua3NjYXBlOndpbmRvdy15PSItOCIgaW5rc2NhcGU6em9vbT0iNC4zMDY1ODM0IiBvYmplY3R0b2xlcmFuY2U9IjEwIiBwYWdlY29sb3I9IiNmZmZmZmYiIHNob3dncmlkPSJmYWxzZSI+JiN4YTsJPC9zb2RpcG9kaTpuYW1lZHZpZXc+JiN4YTsmI3hhOzxwYXRoIGlkPSJwYXRoNjEzMDkiIGlua3NjYXBlOmNvbm5lY3Rvci1jdXJ2YXR1cmU9IjAiIHN0eWxlPSJmaWxsOiM1OWI0ZDkiIGQ9Im0gNDEuMDE0NTI2LDQ1Ljc2IGMgLTQuNjIsMy41MyAtMTAuMDcsNS4yNiAtMTUuNDcsNS4yNiAtNy42OCwwIC0xNS4yNywtMy40NSAtMjAuMjc5OTk5OSwtMTAuMDEgLTguNTcsLTExLjE5IC02LjQ2LC0yNy4xOCA0Ljc0OTk5OTksLTM1Ljc2IDQuNjIsLTMuNTUgMTAuMDgsLTUuMjUgMTUuNDgsLTUuMjUgNy42NywwIDE1LjI2LDMuNDUgMjAuMjgsMTAuMDEgOC41NywxMS4xOCA2LjQzLDI3LjE5IC00Ljc2LDM1Ljc1IHoiLz4mI3hhOyYjeGE7PHBhdGggaWQ9InBhdGg2MTMxNyIgaW5rc2NhcGU6Y29ubmVjdG9yLWN1cnZhdHVyZT0iMCIgc3R5bGU9ImZpbGw6I2ZmZmZmZiIgZD0ibSAzNi4zMzQ1MjYsMjkuOTggYyAxLjg1LDIuNDEgNS4yOSwyLjg1IDcuNywxLjAyIDAuMTIsLTAuMDkgMC4yMiwtMC4yMSAwLjMzLC0wLjMxIDIuNDYsMS43MyA0LjE3LDIuODcgNS4xMywzLjUzIDAuMjgsLTAuNzQgMC40OCwtMS40NSAwLjY4LC0yLjE5IC0xLjAxLC0wLjc2IC0yLjM5LC0xLjgxIC00LjM3LC0zLjQyIDAuNjUsLTEuNzIgMC40NCwtMy43MiAtMC43NSwtNS4yOCAtMS43LC0yLjIxIC00LjcyLC0yLjc3IC03LjA4LC0xLjQxIC0yLjYsLTIuMzMgLTUuNDUsLTUgLTguNDYsLTcuOTkgOS4zNSwtNS4wMyAxNiwtNC4yOSAxNiwtNC4yOSAtMS4xMSwtMS40MiAtMi4zNiwtMi42NiAtMy42OCwtMy43OCAtMy45NSwtMC42MSAtMTAuMDcsLTAuNTQgLTE3LjA3LDMuMTkgbCAtMC4wMSwtMC4wMSB2IDAgYyAtMi4zMywtMi40NCAtNC43MSwtNS4wNiAtNy4xMiwtNy44NyAtMS4xNiwwLjM3IC0yLjI5LDAuODMgLTMuMzgsMS4zOCAxLjc4LDIuOTIgNC4xOCw1Ljg3IDYuODksOC43NCAwLDAuMDEgMC4wMSwwLjAxIDAuMDIsMC4wMiAtMi4yNiwxLjU3IC00Ljc3LDMuNjggLTcuMDksNi4xMyAtMC4zLDAuMzIgLTAuNTgsMC42NCAtMC44NiwwLjk1IC0xLjM4LC0wLjI5IC0yLjg0LC0wLjIgLTQuMTk5OTk5OSwwLjI5IC0yLjMxLC00Ljk4IC0yLjEzLC04Ljk5IC0xLjc2LC0xMS4wNSAtMSwxLjA1IC0xLjk0LDIuMTUgLTIuNzUsMy4zMyAtMC42LDIuNDcgLTAuNzcsNi4wMiAxLjAxLDEwLjMgLTIuMDYsMi43IC0yLjE2LDYuNTIgLTAuMDEsOS4zNSAwLjE4LDAuMjMgMC4zNywwLjQ1IDAuNTcsMC42NSAtMC45NCwzLjIgLTEuMzYsNi4yOSAtMS40OSw4Ljk0IDAuMjQsMC4zMyAwLjI0LDAuNiAwLjQ4LDAuOTIgMS4yMywxLjU3IDIuNzYsMi44OSA0LjI1LDQuMDkgLTAuMTgsLTIuODEgMC4wMSwtNi45NSAxLjc0OTk5OTksLTExLjYxIDEuMiwwLjA5IDIuNDEsLTAuMDkgMy41NSwtMC41NyAwLjY2LDAuNTcgMS4zNCwxLjE1IDIuMDcsMS43NCAyLjUsMS45OCA1LDMuNTMgNy40Myw0Ljc0IC0wLjEyLDEuMjQgMC4xOSwyLjUyIDAuOTksMy41OSAxLjcyLDIuMjIgNC45MSwyLjY0IDcuMTMsMC45NCAwLjQ2LC0wLjM2IDAuODMsLTAuNzggMS4xMywtMS4yNCAzLjk3LDAuODggNy40NCwxLjA0IDEwLjAxLDEuMDQgMC4zOSwwIDIuMjIsLTIuNDkgMy4yNiwtNC4wMyAtMS41NiwwLjMzIC02LjIsMC45NyAtMTIuNTUsLTAuODYgLTAuMTUsLTAuNzEgLTAuNDQsLTEuNCAtMC45MSwtMi4wMiAtMS42MiwtMi4xMSAtNC41NiwtMi41NyAtNi43NiwtMS4xNSAtMi4yLC0xLjIgLTQuNTEsLTIuNyAtNi44OSwtNC41OSAtMC40OCwtMC4zOCAtMC45NSwtMC43NiAtMS4zOSwtMS4xNCAxLjQ1LC0yLjI5IDEuNjEsLTUuMjMgMC4zMiwtNy43IDAuMywtMC4yOSAwLjU4LC0wLjU5IDAuODksLTAuODggMi4zNiwtMi4yIDQuNTgsLTMuOTYgNi42NiwtNS4zOCAtMC4wOSwtMC4wOCAtMC4xNiwtMC4xNiAtMC4yNSwtMC4yNCAwLjA5LDAuMDggMC4xNiwwLjE2IDAuMjUsMC4yNCB2IDAgYyAzLjE4LDIuOTQgNi41Niw1LjczIDkuNzYsOC4yMyAtMC44NSwxLjc5IC0wLjcyLDMuOTggMC41Nyw1LjY2IHoiLz4mI3hhOzwvc3ZnPg==;" vertex="1" parent="1">
          <mxGeometry x="283.0000000000001" y="149" width="51" height="51" as="geometry" />
        </mxCell>
        <mxCell id="Je1Hd4dE8nQYAFv2ral5-4" value="Share" style="shape=image;verticalLabelPosition=bottom;labelBackgroundColor=default;verticalAlign=top;aspect=fixed;imageAspect=0;image=data:image/png,iVBORw0KGgoAAAANSUhEUgAAA+gAAANPCAYAAABJuvWyAAAACXBIWXMAAJ93AACfdwFz8z30AAAgAElEQVR4nOzdQVYcx7Y27My7bl/+RwCnXQ24IxAegXBNANSslsojUGoERi2aRhNIoxEYRmBoZFswgs+MIP+VnCi7JIGogsiqjMjnWYvlc+531/0gEgNv7th7l23bFgCQqrJu9ouiOCyKYj987DzypdwVRXEVPi66j3Y6+duDBwCGQkAHIDll3ewWRTEPwfyxQL6KT0VRnLXTyYXvAgBg2wR0AJIRgnlVFMVR5M/5tgv87XRy7rsBANgWAR2AwSvr5qcQzN/1/LleFkVx3E4nN74rAIBNE9ABGLTQY35WFMXehj7Pu1BNP/OdAQBskoAOwGCVdXMYwvmrLXyOn9rp5Nh3BwCwKf/jpAEYorJuunD8x5bCeeeorBtVdABgYwR0AAYnhPPfB/B5CekAwMa44g7AoISe84stVs4f8ms7nZz4TgEA+iSgAzAYYVr71Qt3m/flZ/vSAYA+ueIOwJBUAw3nnbPwAgEAoBcCOgCDEK62973n/CW6Fwdz3y0AQF8EdACGIoUe73lZN7sD+DwAgAwJ6ABsXdh3/jqBJ/EqkRcJAECCDIkDYKsGPhjuMQbGAQDRqaADsG3zxMJ5oYoOAPRBQAdga0I/d4qD1/bKujkewOcBAGREQAdgm05CX3eKTqxdAwBiEtAB2Iqybg6KoniT8Om/CnvbAQCiENAB2JYc+rjfWbsGAMQioAOwcaF/ey+Tkz8bwOcAAGTAmjUANir0bd8k3Hv+kF/a6eR8eJ8WAJASFXQANq3KLJwX1q4BADEI6ABsTOjXfpfhie+UdWNgHADwIgI6AJuUc7/23No1AOAlBHQANqKsm8OiKF5nfNqvXHUHAF5CQAdgU8YQXo/CfncAgLUJ6AD0LvRn74zkpPWiAwDPYs0aAL3KdK3aU96204n96ADAWlTQAejbycjCeacyMA4AWJeADkBvQj/20QhPuLvOPx/A5wEAJERAB6BPY+7Hfh/2vgMArERAB6AXZd0cZ75WbRXWrgEAKzMkDoDoRjoY7jE/t9PJxTA/NQBgSFTQAejDXDj/h2nuAMBKVNABiCr0XX9xql/5tZ1OXHcHAH5IBR2A2ATR71m7BgA8SUAHIJqwVu2NE/3Oq5FPtAcAViCgAxCTfuvHvSvrZn+onxwAsH0COgBRlHXTDYbbcZo/5Po/APAoQ+IAeDFr1dbySzudnCf0+QIAG6KCDkAMJ8L5yk4MjAMAHiKgA/Aioa/6yCmubCfsiQcA+IqADsBL6ate3zzsiwcA+IeADsCzlXVzWBTFaye4NmvXAIDvGBIHwLOEPuork9tf5Od2OrlI+PMHACJSQQfguaxVezntAQDAPwR0ANYW+qcNOnu5vbJujlP/IgCAOAR0AJ7DWrV4rF0DAO4J6ACspaybg6Io3ji1aAyMAwDuCegArEvfdHzvrF0DAAR0AFYW+qX3nFgvzjL8mgCANVizBsBKQp/0jd7zXlm7BgAjpoIOwKoq4bx3qugAMGICOgBPCv3R75xU73bKujEwDgBGSkAHYBUqu5szt3YNAMZJQAfgh8q6OSyK4rVT2phXJuUDwDgJ6AA8RVjcvKOwbx4AGBEBHYBHhX7oHSe0FXrRAWBkrFkD4EHWqg3C23Y60f8PACOhgg7AY06E862rDIwDgPEQ0AH4Tuh/PnIyW9e1F8xHfgYAMBoCOgAP0f88HO/DHnoAIHMCOgBfKevm2Fq1wTFJHwBGwJA4AP5hMNyg/dxOJxdjPwQAyJkKOgDL5sL5YJnmDgCZU0EH4F7oc/7iNAbt13Y6cd0dADKlgg7AguA3fNauAUDGBHQAFmvV3jiJwXtlwj4A5EtAB6DQ35yUd2Xd7I/9EAAgRwI6wMiVddMNhtsZ+zkkRjsCAGTIkDiAEbNWLWm/tNPJ+dgPAQByooIOMG6VcJ6sEwPjACAvAjrASIU+5neef7J2wt56ACATAjrAeOljTt887K8HADIgoAOMUFk3h0VRvPbsk2ftGgBkxJA4gJEJfctXJrdn5ed2OrkY+yEAQOpU0AHGx1q1/GhXAIAMCOgAIxL6lQ0Wy89eWTfHYz8EAEidgA4wLtaq5cvaNQBInIAOMBJl3RwURXHkeWfLwDgASJyADjAe+pTz987aNQBIl4AOMAKhP3nPsx6Fs7EfAACkypo1gMyFvuQbveejYu0aACRIBR0gfwbDjY8qOgAkSEAHyFjoR37nGY/OTlk3BsYBQGIEdIC8qaSO19zaNQBIi4AOkKmwVu215ztar0zuB4C0COgA+VI95yi8qAEAEiCgA2Qo9B/veLaEIYEAQAKsWQPIjLVqPOBtO524UQEAA6eCDpCfE+Gcb1QGxgHA8AnoABkJ/cZHninf6Nod5g4FAIZNQAfIi35jHvM+7MUHAAZKQAfIRFk3x9aq8QRr1wBgwAyJA8hA6C++MrmdFfzcTicXDgoAhkcFHSAPc+GcFamiA8BAqaADJC70FX/xHFnDr+10IqgDwMCooAOkT9BiXdauAcAACegACQtr1d54hqzplYn/ADA8AjpA2s48P57pXVk3+w4PAIZDQAdIVFk3BsPxUtojAGBADIkDSFDoH74JV5XhJX5pp5NzJwgA26eCDpCmSjgnElV0ABgIAR0gMaFv+J3nRiQ7Zd0YGAcAAyCgA6RHxZPY5mGfPgCwRQI6QELKujksiuK1Z0Zk1q4BwAAYEgeQiDAY7srkdnr0czudXDhgANgOFXSAdFirRt+0TwDAFgnoAAkI/cFzz4qe7ZV1c+yQAWA7BHSANFirxqachHYKAGDDBHSAgSvr5qAoiiPPiQ155bYGAGyHgA4wfPqC2bT31q4BwOYJ6AADFvqB9zwjtuDMoQPAZlmzBjBQoQ/4Ru85W2TtGgBskAo6wHAZDMe2qaIDwAYJ6AADFPp/33k2bNlOWTeVhwAAmyGgAwyTyiVDMbd2DQA2Q0AHGJiwVu2158JAvLJJAAA2Q0AHGB7Vc4bmqKybfU8FAPoloAMMSOj33fFMGCBVdADomTVrAANhrRoJeNtOJ254AEBPVNABhuNEOGfgKgPjAKA/AjrAAITBcEeeBQPXtV/MPSQA6IeADjAMdk2TivdhTz8AEJmADrBlZd0cW6tGYgyMA4AeGBIHsEWhn/fK5HYS9HM7nVx4cAAQjwo6wHbNhXMSpYoOAJGpoANsSejj/eL8Sdiv7XQiqANAJCroANsj2JA6a9cAICIBHWALwlq1N86exL2ygQAA4hHQAbbjzLmTiXdl3ex7mADwcgI6wIaVdWMwHLnRrgEAERgSB7BBoV/3JlwNhpz80k4n554oADyfCjrAZlXCOZlSRQeAFxLQATYk9Om+c95kaqesGwPjAOAFBHSAzVFhJHfzsN8fAHgGAR1gA8q6OSyK4rWzJnPWrgHACwjoAJuhes5YHIU9/wDAmgR0gJ6Fvlxr1RgTL6QA4BkEdIAehX7cuTNmZPbKujn20AFgPQI6QL+sVWOsTsLefwBgRQI6QE9CH+6R82WkXrk9AgDrEdAB+qMPl7F7b+0aAKxOQAfoQei/3XO2UJw5AgBYTdm2raMCiCj03d7oPYd//NxOJxeOAwB+TAUdIL65cA5fUUUHgBUI6AARhX7b984UvrJT1k3lSADgxwR0gLhUCuFhc2vXAODHBHSASMJatdfOEx70ymYDAPgxAR0gHtVz+LGjsm72nREAPExAB4gg9NfuOEt4kio6ADzCmjWAF7JWDdb2tp1O3DgBgG+ooAO83IlwDmupDIwDgO8J6AAvEPppj5whrKVrB5k7MgD4moAO8DL6aeF53pd1s+vsAOBfAjrAM5V1c2ytGryIF1wAsMSQOIBnCP2zVya3w4v93E4nF44RAFTQAZ5rLpxDFKroABCooAOsKfTNfnFuEM2v7XQiqAMweiroAOsTJCAua9cAGL1CQAdYT1k3B0VRvHFsENWrLqQ7UgDGTkAHWI/qOfTjXVk3+84WgDET0AFWVNZNNxhuz3lBb7wAA2DUDIkDWEHoj70JV3GB/vzSTifnzheAMVJBB1hNJZzDRqiiAzBaAjrAE0Jf7DvnBBuxU9aNgXEAjJKADvA0FT3YrHlZN7vOHICxEdABfqCsm8OiKF47I9goa9cAGCUBHeDHVM9hO47Kujlw9gCMiYAO8IjQB7vjfGBrVNEBGBVr1gAeEPpfr0xuh617204nZx4DAGOggg7wMGvVYBhOyrr5ybMAYAwEdIBvhL7XI+cCg9C9KJt7FACMgYAO8D2D4WBY3lu7BsAYCOgAS8q6OS6KYs+ZwODoQwcge4bEAQShz/VG7zkM1s/tdHLh8QCQKxV0gH/NhXMYNFV0ALKmgg7w71q1L84CBu/XdjoxJwKALKmgA/yXyhykobJ2DYBcCejA6IW1aq/Hfg6QiFc2LQCQKwEdQPUcUnNU1s2+pwZAbgR0YNTKuqmKotgZ+zlAglTRAciOIXHAaFmrBsl7204nbsAAkA0VdGDMToRzSJqBcQBkRUAHRin0rx55+pC0rj1l7hECkAsBHRgr/auQh3lZN7ueJQA5ENCB0Snr5thaNciGtWsAZMOQOGBUQr/qlcntkJ2f2+nkwmMFIGUq6MDYzIVzyJIqOgDJU0EHRiP0qX7xxCFbv7bTiaAOQLJU0IEx8Yc75M3aNQCSJqADo1DWzUFRFG88bchaNzCu8ogBSJWADoyF6jmMwztr1wBIlYAOZK+sm24w3J4nDaNx5lEDkCJD4oCshX7Um3D1FRiPX9rp5NzzBiAlKuhA7irhHEZJWwsAyRHQgWyVdbPf9aN6wjBKO2XdGBgHQFIEdCBnKmgwbnMD4wBIiYAOZKmsm8OiKF57ujBq1q4BkBQBHciV6jnQOSrr5sBJAJACAR3ITug73fFkgUAVHYAkWLMGZCX0m16Z3A584207ndiPDsCgqaADubFWDXjISVk3PzkZAIZMQAeyEfpMjzxR4AHdi7u5gwFgyAR0ICf6TIEfeW/tGgBDJqADWSjr5thaNWAF+tABGCxD4oDkhb7SG73nwIp+bqeTC4cFwNCooAM5mAvnwBpU0QEYJBV0IGmhn/SLpwis6dd2OjlxaAAMiQo6kDqVMOA5KmvXABgaAR1IVlirZjAc8BxdW4wKOgCDIqADKVM9B17iqKybfScIwFAI6ECSyrrpBsPteHrAC6miAzAYhsQBybFWDYjsbTuduJEDwNapoAMpOhHOgYgMjANgEAR0ICmhX/TIUwMi6tpl5g4UgG0T0IHU6BcF+jAv62bXyQKwTQI6kIyybo6tVQN6Yu0aAFtnSByQhNAfemVyO9Czn9vp5MIhA7ANKuhAKqxVAzZBFR2ArRHQgcELfaEGOAGbsFfWjZ83AGyFgA6kwFo1YJOsXQNgKwR0YNDKujkoiuKNpwRsUPdCsHLgAGyagA4MnX5QYBveWbsGwKYJ6MBghT7QPU8I2JIzBw/AJlmzBgxS6P+80XsObNkv7XRy7iEAsAkq6MBQVcI5MADabADYGAEdGJzQ9/nOkwEGYKesGwPjANgIAR0YIn2fwJDMDYwDYBMEdGBQyro5LIritacCDIi1awBshIAODI1+T2CIjsq6OfBkAOjT/zpdYChCn+eOBwIMVPczSkgHklfOqm5bzn74Opb/86quiqL4O/zvXrWn1d++K+KwZg0YhNDfeWVyOzBwb9vpxJwMYPDKWdX9bbUbXizuLn30VQy5DStyFx8X3T/b0+rGd8vqBHRgEMq66f7gPfI0gIG76/7IbacT1SJgMEIY3w9hfH9g83zuQhHmYvFPFffHCejA1oW+zj89CSARH9rpxNA4YGvCFfXDEMgPEmwRvA2B/Vxg/5qADmxdWTcXJrcDiflPO524tglsTDmrFhXy46Io9jI7+euwZvd87FfiBXRgq8q66X7J/O4pAIm5bKcTA+OAXoWr68fhYyyDdEcd1gV0YGvKuvkpDBExGA5I0c/tdHLhyQExLV1fn2dYKV/XdVjBez6Wa/ACOrA1Ya3ae08ASNRtO53senhADOEK+zyEc8WLr92FfvUq96q6gA5sRVir9sXpA4n7tZ1OTjxE4LnKWbWolpvHs5rLrqrenlbnKXyy6xLQga0wGA7IhLVrwLOUs6rrK69G1Fse222oqJ/l9EUJ6MDGWasGZOZTO50ce6jAKgTz6LIK6gI6sHFl3dz4pQRk5v/a6eTKQwUeI5j3rgvq89SvvgvowEaVddP1WP3m1OlR15vWBaXFleOfwt7YsU/CpV/WrgEPKmfVQQjmWvs24zIE9SRfmgrowMZYq0aP7sIalpPHeoHDYMLjMIjH9yB9+KWdTrIcWgSsL6xL6343HTm+rfgUgnpSM0IEdGBjyro580uKHnzugveqQ7rCi6Lue/GNh0Fk3fXKfQPjgHJWzUPV3Avh7boLIT2Z/nQBHdiIsm663Z5/OW0ie/ZwLu0W9ORDO51UDhfGqZxVu+ElsOvsw3J5/zI/gR3q/zOAzwEYB3uCie1Fk7PD7upfPRUim4d2CmBkQtX8SjgfpO6ZXIVnNGgq6EDvyrrpQtTvTpqIol0lLuvm3HV3IvvcTieHDhXGQdU8OV01/XCovekq6ECvQr+v657ENo/Y53scetQgljdl3ZjoDiNQzqpDVfPkdM/qJkzXHxwBHejb3L5PIruMOSk7BH0vkYhNWw9krpxV3b/nfxgEl6Tumf1ZzqrB/f53xR3oTejDvPKLi8j+r51Oou82LevmxsskInvbTifJTA4GVhPWp10URbHnyLIwqCvvKuhAn06EcyL71Ec4D549cA4ecRLafIBMlLOq20pzI5xnZTFAbn8IX5SADvQi9F8avEVMd6FlohftdHIRdqpDLK+0T0A+yll1HCrnig/56W7QXYSZAlsloAN90X9JbFXEwXCPGfz6FZLzzto1SF9Yz/W7cJ617tn+EV7EbI2ADkRX1s3c1S8iuw17y3vVTifdtcUPHh6R6UOHhJWzqvt3+DfPcDR+DwMAt0JAB6KyVo2ebPJt9knYsw6xvC7rxl50SFAI50ee3ei8C89+4wR0ILbK9S8iuwz94Rth7Ro90fYDiRHOR+9oGyFdQAeiCX2W75wokW28Fyysxrr0IIlop6wbL34gEcI5wcZDuoAOxKTPktg+hL7wbRCmiG1u7RoMn3DONzYa0gV0IIrQX/naaRLR3TavBYdr9Z88UCJ65ao7DJtwziM2FtIFdCAWf3QS23wDa9WeMg8vCiCWo7JuDpwmDI9wzhM2EtIFdODFQl/ljpMkouvQB75V4QWBl0/Epn0CBias1RLOeUoX0nv9GV62bespAM8WBsNdmdxOZD9vcnL7U8q6ufESisjeDuElFHAfzrthpL87Ctbwtj3tp5qugg68lLVqxPZpSOE82PgkebJ3YmAcbF85qw6Fc57h93JW7fdxcAI68Gyhj9J1MGK6G+L13/DCwNo1YnoVZhwAWxIClpssPNdFOat2Y5+egA68hD5KYjvZ4lq1p6iiE9v70CYEbFg5q34K4dwtQJ6r+945D99L0QjowLOUdXNsrRqR3Q55IFt4cfBxAJ8KeTGEELajC+d7zp4X2ov9c1xAB9YW+ib9UUlsQ1ir9pTK2jUie2PtGmxWOau69pI3jp1IjsL3VBQCOvAcc1fCiOyynU7Oh36o4QWCvmFi0wMLGxL6zn9z3kT2W6yhcQI6sJbQL/neqRFZMqE3rMa6HsCnQj52yrrx4gd6FnqFB/8ymGSdxehHF9CBdbnaTmzdWrWrxE5VmCK2yto16F33gnXHMdOTvRgDlAV0YGWhT1LPFjHdpRh2w9q1TwP4VMjHKy9AoT9h37m/Yejbu3JWvWiuiIAOrEOfJLGdJDAY7jEGxhHbUVk3UXoYgX8trVSDTXjRVXcBHVhJ6I90LYyYbtvpJNld+mHtmoonsfmegvhODLdlg3ZectVdQAeeFPoikw1SDNZxBo/mJOxvh1hel3Vz6DQhjnDd+MhxsmHPvuouoAOr8OaZ2C5DH3fSrF2jJycGxkE0rrazLc+6ESWgAz8U+iG9eSa2HKrn98L+9ssBfCrkY8eLH3i5clZV2vPYor1yVq39s1xAB56iH5LYPob+7ZwIU8Q2L+tm16nC84QhXX42s23VugPjBHTgUaEP8rUTIqK7HOcZhD3uHwfwqZAPa9fgZbTnMQSv1v27p2zb1pMDvhP6H69cDSOyt+10kmU/YPh35sYfhET2cw7zGmCTylnV3T754tAZkP+0p9VKtwdV0IHHWKtGbNe5hvPi34Fxth0Qmyo6rM+/NwzNyn8fCOjAd0Lfo74tYsv+e6qdTro/Cq8H8KmQj72ybrIZqgh9C6ut3jhoBuYo3Ox4koAOPETfFrF9HtE1XS+3iM3aNVidm0wM1UrfmwI68JWybrx5Jra7MYXW8CLi8wA+FfKx9pAhGKNQoTTclqFaqYouoAPf0rdFbCcZrlV7iio6sb2zdg2e5EUWQ/fk96iADvwj9DnuOREiuh3jS5/wQuLDAD4V8pLtkEV4qVCZPHKQDNzRU3vRBXTgXuhvVD0ntipMNx+jk/CCAmJ5XdbNodOEB7m5RCp++L0qoAMLlcFwRHaZ81q1p1i7Rk+8SIWH2XZAKn74vSqgA4u1au+cBJGNvpoRXlBcDuBTIR87Zd148QNLyll1rMhAQnbC9+yDBHSg0NdIDz6108mVg703+hcVRDe3dg2+4ucsqRHQgYeFfkYrSYhpVGvVnhJeVHwa9mdJYl656g7/FYbDGXBLal4/tnJNQAf8kUdsJyMeDPeYeXhxAbEclXVz4DTBC2GS9WAVXUCHEQt9jDu+B4jotp1O9Md+I7yw8DKM2Py7BkVhswGpEtCBf4X+RW+dic0U3UeEFxfWrhFTt3bNv3OMVjmr9hUaSNhO+B7+ioAO43Vi4imRdWvVLhzqDwlTxHZiYBwj5mcqqfvue1hAhxEKfYtHnj2R+UPpCeEFhrVrxPTKbShGzPV2Uvfd97CADuOkb5HYPrbTyY1TXYkXGcT2vqybB6cBQ65cbycTO99OcxfQYWRCv6K1asR056XP6sKLjA+pfL4kwxBCxkb1nFx89b0soMOIhD5Ff8QR29xatbWdWLtGZG+sXWNkBHRyIaDDiM0NhiOy63Y6OXOo6wkvNPQNE5t/FxmFclZ1BYc9T5tMfHWzVUCHkQj9ie89byITMp8pvNi4TvKTZ6h2yrrx7yRj4LYIWSln1T/f0wI6jIer7cT22Vq1FxOmiK2ydo0RENDJjYAOYxL6Et946EQmXL5QeMHxKekvgqF55YUsIyCgkxsBHUZGXyKxfbBWLZrKwDgiOyrrZt+hkjH95+Tmnz50AR0yF/oR7QklplsVunjCiw7nSWy+p8jScq8u5CTs9hfQIWehD9F+amKrrFWLq51OqvDiA2J5XdaNNVTkyO0QciWgwwicWKtGZJfWqvVGTz+xnRgYR4YEdHIloEPOQv/hkYdMZG5k9KSdTs67FyBZfnFsy44XP2Ro10MlUwI6ZE7/IbF9slatd8eZf31s3rysG4GGnLz2NMmUgA65Cn2HfoER051KXP/CwLiPuX+dbJS1a2SjnFVeNpGzV+Ws+klAh8yEfkN/jBHbicFwG2PtGrG9KevG5GtyIKCTu30BHfJjrRqx3YYp42xAeBHivInNi1tyYEAcudsV0CEjoc/QNWRi8z21Ye100oWp61F90fRtr6wbMw5Ina0E5E5Ah8xYq0Zsl2G6OJvnxQixWbtG6lTQyZ0edMhF6C9844ESmYrbloSJ+Z9H+cXTl1faJ0icF0zkTg86ZER/IbF9DFPF2Z65gXFE9s7aNYDhEtAhA6GvcM+zJKI7lbbtCy9IvHwjtjMnSqKskCV3etAhddaq0ZPKWrXB6P79vh37IRDVa2vXAAZpR0CH9FUGwxHZdZgizgBYu0ZPVNEBBkhAh4SFPsJ3niGRmR4+MO100oWpy7GfA1HtlHXjxQ/AwAjokDYVEGL7HKaHMzxenBDb3No1UlHOKsMNGQUBHRJV1s2hYSn0QAgcqHY6uSqK4tPYz4GoXplhQkIEdEZBQId0+aOK2D5YqzZ41q4R25GBcQDDIaBDgkLf4I5nR0S3XvoMn4Fx9MT3FMBACOiQmNAv6BoysVmrlogwYd/aNWLq1q4dO1GA7RPQIT0n1qoR2WWYEk46hCliqwyMA9g+AR0SEvoEjzwzInO9NTFh0r61a8S043YWA+eWF6MgoENaBCli+2StWrJU0YntfVk3JmUzSO1pdeXJMAYCOiQi9Adaq0ZMdypm6QoT9z+M/RyIzrBIgC0S0CEBoS9Q9ZzYTgyGS96JtWtE9sbaNYDtEdAhDXNr1Yjstp1OvPRJXHjB4hYEsRkaCbAdtwI6DFzoB3zvORGZUJeJMIHfwDhi2inrxs8IhujaUyFzNwI6DJ9+QGLr1qqdO9WsuA1BbNauMUTassiegA4DFvoA33hGRKYylpkwif/T2M+BqF558cMACejkTgUdBk4fILF9bKcTq2ryNDcwjsjelXWz71AZEL+/yJ2ADkMV+v8MhiOmOxWxfIWBcVpiiM33FMDmCOgwRNaq0ZPKWrW8hcn8t2M/B6J6XdbNoSNlIC48CDInoMNAVaH/D2Lp1qqphI2DGQPEdmJgHAPhJTO5E9BhaEK/3zsPhsiOHeg4hAn91q4R044XPwxBe1rpQSdr7WkloMMAqXIS2+cw5Zvx8EKG2OZl3ew6VQbALnRydf9yXUCHAQl9fq89EyJT+RqZdjq56Sb2j/0ciMraNYbixpMgU/ff2wI6DETo71M9J7YPIawxPpW1a0R2VNbNgUNly1xzJ1f339sCOgyHtWrEduelz3iFif1uTxCbnylsm5YtciWgw1CEvj5/SBPb3Fq1cWunkzP9mkS2V9aNGQdskwo6WWpPq/uXTwI6DIO1asR2GcIZePlHbNausTXtafW3F49k6J/vaQEdtiz08x15DkRmmBP3wgT/z8ncFB8AACAASURBVE6DiAyMY9tU0cnNP60bAjpsn34+YvtkrRrfmBsYR2TvrF1ji/yOIzcCOgxB6OPb8zCI6E5li2+FSf5eBhKbNhq2RUAnNwI6bJu1avTkxFo1HtH9vLl1OET02to1tqE9rW70oZOR6zBb4Z6ADttjMByx3bbTieo5D7J2jZ6oorMtqujk4nz56xDQYQtC3947Z09kwhc/1E4n3R8Bl06JiHbKuvFikG04d+pkQkCHAVBxILbLEL7gKV7kENvc2jU2LeyMNvyS1N22p9VXWwkEdNiw0K/32rkTmdDFStrppPtD4KPTIqJXZqqwJV5Mk7rvvocFdNg81XNi+xhCF6yqUnkisiMD49gCAZ3UCeiwTaFPb8dDICJr1VhbGBjn+4bYfE+xMeWs6toqvBQiZbehVeMrAjpsSOjPcw2Z2KoQtmAt7XRi7RqxdWvXjp0qfStnVRfMrwzcJXEP3gAR0GFzTqxVI7LbELLguYQpYqsMjKMvXdW8nFXd770/3UgkAw+2vQrosAGhL+/IWROZcMWLtNNJd7Xus1Mkoh23xeiDqjmZuf52evuCgA6boS+P2D6HcAUvJUwR2/uybnadKjGompOpR29ACujQs9CPZ60asQlVRNFOJzdFUXxwmkSm/YYXUzUnU3c/2kAgoEOPQh+e6jmxfQihCmIxMI7Y3li7xnOpmpO5s/a0enTAr4AO/Zr7xUJkdypTxGbtGj15cAAS/IiqOSPww7/jyrZtfRNAD0L/3RdnS2Rv2+nEH730oqybCy05RParbROsIuw1rwRzMvepPa1+OORXBR364w8SYrsWzumZKjqxWbvGk1TNGZEn/44T0KEHoe/ujbMlMoPh6FXYDPDJKRPRKy9+eIxec0bmsj2tntzAI6BDP1Q5ie2TtWpsyDzMOoBY3qmi8y1Vc0ZopZeVAjpEVtaNwXDEdqcCxaaEgXFadIht34lSqJozXitVzwsBHeKyVo2enFirxia100ll7RoQm6o5I7Zym+L/+i6BqKrQbwex3KpmsiXHocIF8CImtDNy3eT2q1WPQAUdIinrZt8vHnowD1eOYaPCzINLp04kK/9xSl5UzWG927Uq6BCPKiexXbbTyblTZYu6KvoXD2Cjulszi5aWLtQsv6D79r+vYjd8LCz/990N9QB/8qJxfFTN4d6H9rRaq01RQIcIyro5LIritbMkMmvV2Kpu9kFZNx/9gR3VIoAvwvb90KBtbmkI81O6W2Df/nM/QtvWrZ9l4xOq5meGwDFyz2pTLNu2HfvBwYuEP2yu/BIisq7idOxQ2bbwM+7GfI213YXfDRfh/G5SXZVY1s1BCOu74Z+rvpC+7m5htNOJ6+0joWoOX/mlPa3WvgkpoMMLlXXT/SJ67xyJqPvDfteVUIairJvuZdHvHsgPXYcwfh/Kc9+8EOaudB+L8L639P98G6qnJ36OjYeqOXzlc3taHT7nSAR0eIGybnbDH2MqS8T0azudmGnAoJR1c/VNCBu7LpCfhzCeZGU8ti60q5aPj6o5fKcrtOyv23u+oAcdXsZaNWK7Fc4ZqPnI167dhgr5IpSrDH9DOB8fVXN4UPXccF6ooMPzhZ48O4KJ7WfVOIaqrJvuD/GjET2gRZX8XPiEf6maw6OefbV9QQUdnk+Vk9guhXMGrvuD/DDzm0PXoSJ4nnsfOTyHqjk86i6sJ30RAR2eIQxM0otJbKa2M2hh7dpJhoMxb0Ol/EQoh4epmsOTDtvT6sXtT664w5qsHKInH9rppHK4pKCsm5tMqmefukqgmyvwY6rm8KSP7Wk1j3FMKuiwPoPhiO1OywSJ6f4I+SPRh3Yb/n07M+gNfkzVHFZyHSucFwI6rCesVfNLitjmggIpaaeT87JuLouieJ3Qp/05XGFXLYcVqJrDSroiy0HMoxLQYT1nzovIrtvpxPcVKeqqBX8l8Hl/ul95o7ccVqJqDms5iNF3vux/nD+sJqxVS6laRBqiXYmCTQprxz4O9NC7isaHoij+v3Y6ORbOYTWhan4lnMNK3ranVfQVnCrosDpVTmL75LotiavC9oGhzOVYzHM40TYCq1M1h7V9aE+rXrKBCjqsoKybSg8Wkd2FP4YgWSEED+H7eFEx3+22IQjnsDpVc1jbp/a06u13nzVr8ARr1eiJtWpko6yb7o/7vS18PSrm8Eyq5vAsn9vT6rDPo3PFHZ52IpwT2a21amSmm6Xw54a/JMPf4JlMaIdnuQ5tXb1SQYcfCIPhNv1HJ/n7pVtT5TmTk7Juuu/pNxv4ki7DasLog3kgd6rm8GzXfUxsf4gKOvyYK8jEdimck6l5zwH9NgRz//7AM6iaw7NtLJwXhsTB48q6ObZWjR5Yq0aWwlXzDz19bd3/3X3hHNbXVc3LWXUSbgQK57CejYbzwhV3eFgYDHflFxmRdWvVeu9dgm0q66ar0B1F+hRcZ4cXUDWHF9l4OC9ccYdHzf0yI7I71XPGoHsJVdZN8cKQfhcGwBmmCM+g1xxe7NP9C+INh/NCBR2+V9bNblEUXxwNkVmrxqiUdTMPAWHdLRhd1fzYdHZ4HlXz6O7Cz7L9iLeDGLZuz/nWbjwK6PCNDU4iZjxu2+lk1/NmbEK70DyspXkqLHwO+8wvfKPA+lTNe/HfF4an1f0Lw3JWdef7Pr8vkyW/tqfVVm9vCeiwxFo1evKz0MHYlXXTVZ+6n7E/fXMUF/79gJdRNY/uv202DwS1cnZfWT15xu0ghu0uvIzZ+jBSAR2WlHXTDSLacyZE1K1VO3CgAMSmat6Lr6rmDylnVffC8dwLkWxch2c+iIGkAjoEoV/yN+dBZP/RSwtAbKrm0T1aNX9IeDlybiVv8j6HcL7xYXCPEdDh3z7JG9eViOxjO52Y3A5ANKrmvXiyav4YfelJ23q/+UMEdPhvQD/xi47Iujfxu+10Mpg3sgCkTdU8urWq5o9x5T05g7rS/i0BndELg4v+Gvs5EN3bdjo5c6wAvJSqeS+eXTV/iGeUjI/hpcxgCygCOqNX1s2F/iEiu26nk32HCsBLqZpHF6Vq/hjPa7BuwwuZwW8NEdAZtbJuDoui+GPs50B01qoB8CIqsr2IWjV/jGc3OB+61XhDrpovE9AZtbJubrzhJLLP7XRy6FABeC5V2Oh6rZo/JvSmn7ipuTXdC5n5UHvNHyOgM1pl3Zi6SWzdHwD71qoB8Bwqr73YSNX8R8pZdRyeqxcum3EbXsgkOQtIQGeUyrrZLYriylo1IvvQTieVQwVgXarm0W2lav6Y8PJlHj78/dmPu3BjIZnr7A8R0Bmlsm66X4BHnj4R3YbqubVqAKxM1bwXW6+aP0ZQ70UWwXxBQGd0yrrp3lD/6ckTmbVqAKxF1Ty6QVXNf0RQjyKrYL4goDM6Zd10V9v3PHkiumynkwMHCsAqVM17Mdiq+Y8sBfVjL2pWdhtebGUVzBcEdEalrJvuh9/vnjqR/V87nSQ1IRSA7VA1jy6ZqvlTwjC5Y1PfH9W9hDlLdfjbqgR0RqOsm+4N5Y1rRET2qZ1Ojh0qAD+iat6LJKvmTwnr2RZhfex/t94tVctHsSVHQGc0rFWjB90vjV2D4QD4EVXz6LKpmj+lnFWHRVEcjmy4cfd8z7uP9rQ6H8Dns1ECOqMQ1qp98bSJzFo1AB6lat6LLKvmTwnfSwchrB9mWFkfdShfJqAzCmXdXOjnIbLbdjrZdagAPETVPLrRVM1XEb6/Fh+p/o3bvWy5CKHcLJ9AQCd71qrRk5/b6eTC4QKwTNW8F6Osmq/jm8C+P8AK+10I410Qv2hPK39DPUJAJ3tl3dx4e01k1qoB8B1V8+hUzZ+pnFXdLb/dENgX/3kTwf0uhPCb8NEF8RsvV1YnoJM1g+HoyX/a6cQvGmAjwkTnn8L/X4s/tFfR/ZG8GGL5tyuk/VE174WqeU+Wfqb8FEL7wio/XxbBe2Hxc8bPmEgEdLJlrRo9+dhOJ3OHC8QSwt1++FhUubr/2V5Ph3wZ/nkR/rDu/qi+ak8rGymeQdU8OlVzRk1AJ1tl3ZyNbCUF/bNWDXiRpUnM+wPsFb1dhHU9ok9TNe+FqjmjJ6CTpbJuuj94/vJ0iextO52cOVRgVUuBfPHRV1W8L9dLU5YF9kDVPDpVcwgEdLJkrRo9uG6nk30HCzwlDGda7CrO7XfR56VdxaO7TaRq3gtVc1gioJOdsm6Oi6L43ZMlMmvVgEcthfLjBKvkz9VV10/GEtZVzaNTNYcHCOhkJQyGu/LLk8g+t9PJoUMFloVqavezYT6iUP6YrrJ+1p5W58P89J5P1bwXqubwCAGdrFirRk+sVQP+EVYUzUM4tynka3ehqn6WQ/hSNY9O1RyeIKCTjbJuuuuFXzxRIvvQTieVQwXKWbWolptxsppPIagn1x6kat4LVXNYgYBONsq66a7VvfFEiahbObRvrRqMWzmrjkNYU0V9nstQNU0iqKuaR6dqDmsQ0MlCWTfdL9M/PU0is1YNRkwwj27QQV3VvBeq5rAmAZ0slHVzZUAPkV2208mBQ4XxCVfZTwTz3gwuqKuaR6dqDs8koJO8sm66fsDfPEkis1YNRiaEtEqP+cZ0k9/n26yuqpr3QtUcXkBAJ2lhrdqNKbpE9qmdTo4dKoxDCGldpe/II9+KD935b3qXuqp5dKrmEMH/OEQSVwnnRHYXpjQDI1DOqnl40Sucb0+3HvUqBObedS9kytl9iPxTOI/m8n6oqnAOL6aCTrLKuun20P7lCRKZtWowAuWs2g3VU9fZh+VzuB7dSzVd1Tw6VXOITEAnWWXdXPjDishu2+lk16FC3kLV3A2s4boLIf081meo17wXes2hBwI6SSrrppuw+4enR2S/tNNJtD8IgWFRNU/OpzBE7kXVdFXz6FTNoUcCOkkq6+bGL1ois1YNMhZWp52pmifntiiKw/a0ulr3E1c174WqOfTMkDiSU9ZNJZzTA1PbIVNhINgfwnmSut/3f4W2hJWFqvmVcB5NVzX/tT2tDoRz6JcKOkkp62Y3/ML1RxYxfWynE5PbITOhgtrNK9nzbLPw5JV3VfNeqJrDBgnoJKWsmzOrcIisqwrsttPJRvfvAv0qZ9V+COde6OblOlx5/y4s6jWPTq85bIGATjLKujkIO0shpl/b6cQfH5CRclZ1LSsnwnm2uuB4sOhLVzXvhao5bImATjLKurlyTZHIrtvpZN+hQj5Cr/JvHmn2upDePesbVfOoVM1hy/7XAyAFZd0cC+f0QN85ZKScVdqgxqO7HfH72A8hMlVzGAAVdAavrJufwhtyVxWJ6XM7nRw6UciDcA7PpmoOA6KCTgrmwjk9UD2HDIT+4y6cv/E8YW2q5jAwAjqDFtaqvfeUiOxDO534YwQSZ40aPJuqOQyUgM7QnXlCRHYbpjsDCRPO4dlUzWHABHQGK6xVe+0JEVll5zlk4UQ4h7WomkMCBHSGTPWc2C7b6cT3FSTOQDhYm6o5JEJAZ5DKuqnsNKUHlUOFtAnnsBZVc0iMNWsMjrVq9ORTO50cO1xIVzmrju2+hpWpmkOCVNAZohPhnMjurFWDtJWz6lA4h5WomkPCBHQGpaybfVcX6cGJwXCQrnJW7ZtLAitRNYfECegMjbe9xHbbTid6zyFRYZ3auZtV8EOq5pAJAZ3BKOvm2Fo1euBqO6Tt3NBQ+CFVc8iIgM4ghMFwqpzE1q1VO3eqkKZyVlVe3MKjVM0hQwI6QzFXIaEHqueQqHJWHRRF8d7zgwepmkOmrFlj68q62S2K4osnQWQf2+lEQIcEhb5z6zbhe6rmkDkVdIbALxliu9MyAUk7E87hO6rmMAICOltV1k13hfGNp0BklbVqkKaw79zvBfiXqjmMiCvubFVZN1dFUex5CkTUrVXbdaCQHlfb4Tuq5jAyKuhsTVk3c+GcHhw7VEiWq+3wX6rmMFIq6GxFWKumSkJsn9vp5NCpQnrC1fY/PDpQNYcxU0FnWyrhnB6Y2g4JClfbVQoZO1VzQEBn88JatXeOnsg+tNOJagOkqXu5tuPZMWKq5sA9AZ1tOHPqRHan+gZpKmfVrtsvjJiqOfAVAZ2NKuum6zF87dSJbG6tGiRLyxNjpWoOfEdAZ9O8ISa2y3Y6cSsDElTOqoOiKI48O0ZG1Rx4lIDOxpR1U+kxpAeVQ4Vk+feXsVE1B37ImjU2IgyGu3KNkcg+tdOJveeQoFA9/9OzYyRUzYGVqKCzKXoMie1O9Q2S5t9fxkLVHFiZgE7vyrrRY0gfTqxVgzSF6rmBoeRO1RxYm4DOJqiSENttO534voJ0WatG7lTNgWcR0OlVWTfHqiT0wB/3kKiw9/yN50emVM2BFxHQ6U1ZNz9Zq0YPurVq5w4WkuX2C7lSNQdeTECnT3OD4eiB6jkkqpxV3YvbQ8+PzKiaA9EI6PQirFV773SJ7GM7nVw5VEjWsRe3ZEbVHIhKQKcvZ06WyKxVg/S5AUMuVM2BXgjoRBfWqhkMR2xVO5387VQhTeWs2i+KYsfjIwOq5kBvBHT6oHpObNftdKJKAWlTPSd1quZA7wR0oirrZq5CQg/8YQ/pMxyOlKmaAxtRtm3rpIkirFW7MQCIyO7a6eQnhwrpKmdVF87/8AhJ2H+Ec2AT/scpE9GJcE4PTG2H9Kmekzrfw8BGCOhEUdZNN/znyGnSAwMHIX3CDak79gSBTRDQicXAFHpT1o0/jCBR5aw6cLuKDOyVs0q7FdA7AZ0XC+FJlZM+VWHGAZAe1XNy4XsZ6J2AzouE0FQ5RXrWbQa4ENIhSUINuTjwJIG+Cei8lLVqbMpeNzCuu7ERZh4AA1fOql2/I8iIl01A76xZ49nKutkNE7b1FrINd+H77yJ8XLXTyd+eBAxHOau6FqjfPRIy8n/taWW7CNCb/3W0vIC1amzTqzD7oPt4X/z3pdH1cmhvpxM7a2G7XAkmNwfWfwJ9EtB5lrJuul9Qb5weA7MXPu5X/pV1c/tNYPdHFWyWgE5uDmyuAfokoPNcfjmRgp3wcf8yqaybu6Ur8ecq7NCfsJJK/zm5MQMF6JUedNZW1k03GO43J0cGbr8J7HrYIZJyVnUDtf5wnmToP+1p5QUv0AtT3FmLtWpkZidch++GWP2/sm66KfEnoYUDeBmVRnLlexvojSvurKsyGI6MLXrY3y1dhz83cA6eRYghV/vhdwNAdAI6Kwtr1d45MUbiVehdX/SvX4fAfmbYHKxEQCdXvreB3gjorOPMaTFiy9X126W+dVUUeJgBceRq15MF+mJIHCsp68awH3jY3eIavEFz8F/lrOrmOPzpOMhVe1qVHi7QB0PiWJW1avCwV98Mmjsv6+Y4DFSEsfL9T9bKWeWaO9ALV9x5Ulk3lauKsLJF3/rvZd18DtV1lXXGRnghd15CAb1QQeeHwmC4uVOCZ3mzVFk/C60iMAbCC7nzEgrohQo6T7FWDeLorsEfhfVt52Ea/IWzJVPCC7nzEgrohYDOo8q6OQihAojn1VJYvw3bEc7sWQdIiknuQC9ccedHKqcDvepmO7wviuJLWTdXhsuRERV0ciegA70Q0HlQFxSKonjtdGBj9kK/+k3oVz9w9CRMaxQAPIMr7nwnVPCsVYPt+PYK/Em4Am8KPMBwuO0E9EIFnYfMVT9gELor8L8tTYFXVWfwylkluDAGe54y0AcVdL4S1qq9dyowOKrqpEL/OQA8kwo63zpzIjBoi6r6olddGAIAyISAzj/C9VmD4SANi171v8q6uQiDHQEASJiAzjLVc0hT92Lt97Juuqp6ZVUbAECaBHTulXUzD1dngXQt9qovrr/b0wsAkBABncVatcpJQDYW19+/lHVzbvo7AEAaBHSKMBHaWjXI05uiKP4MfeqHnjEAwHAJ6CMXJkAfjf0cYAS6PvU/Qp+6gXIAAAMkoHMy+hOAcdlZGignqAMADIiAPmLhj3Nr1WCcFkH9b5PfiezGgQLA85Rt2zq6EQp/jF+Z3A4Ed+FGzUk7nfztUHiJclb544Lc3banlU0ZQHQq6ONlrRqw7NXSijYVdYAfc1ME6IWAPkJhN/J87OcAPEhQBwDYEgF9nKxVA56yHNS90GNdl06MzGkFAnohoI9MWTcHYS8ywCq6oP6bqe8AX7lyHEAfBPTxsVYNeA7r2ViH/lwAeAYBfUTCNdW9sZ8D8CKLoH4RbuTAQwR0cnfhCQN9ENBHIgx6qsZ+DkA0r4ui+DMEdauG+JaADgDPIKCPR2UwHNCDLqh/KevmzMR3lgjoZK09rVTQgV4I6CMQqlvvxn4OQK+OrGZjiQFa5OzW0wX6IqCPw9nYDwDYiMVqtiuD5MatPa26FVR3Yz8HsuWGCNAbAT1zZd0chiuoAJuyPEhu36mPlio6uXK9HeiNgJ4/a9WAbeleDv6lP320hBhypYIO9EZAz1jXCxoqWQDbtOhPn3sKoyLEkCu3Q4DelG3bOt0MhWrVjcntwMBcF0Uxb6cT1dXMlbOqG1D6ZeznQHbu2tPKjSCgNyro+ToRzoEB2gv70117z1x7Wt0YFEeGVM+BXgnoGSrr5iBcKQUYKtfex8FNCXLjexrolYCep2rsBwAkobvl85tp71kTZsiN72mgVwJ6ZsLuYWvVgJQspr1Xrr1nR5ghK+1p5Xsa6JWAnpHwh621akCq3nf9naFNhwy0p9WVPnQy8tnDBPomoOdlbjAckLidMETuXDU9G+djPwCyoXoO9E5Az0RZN7uh+gSQgzdhiNyhp5k8oYZceNkE9E5Az4er7UBuuhtBf6imJ0+oIQe3YXUgQK8E9AyEfs03Yz8HIFuq6QlrT6u/9e6SAS+agI0Q0PNwNvYDALKnmp424YbU+VsL2AgBPXFl3czDUCWAMVBNT5OATur8zAE2omzb1kknKlSRbkxuB0aquzZ93E4nf/sGGL5yVp1rxyJx1/c/c/67PhCgFyroaTsRzoERW1TT7U1PgyvCpG6vKIq/yllVeZJAX1TQE1XWzX73S2Ls5wAQfCyKolJNH7Zydj8wzotlcqCaDvRCBT1d1qoB/Otdt287vLxkuFTRyYVqOtALFfQEheFIf4z9HAAe8aGdTvzRPEDlrNotiuLL2M+B7KimA9EI6IkJg+GuTG4H+KHLbuqyK+/DY1gcGfvQnqqoAy/jint6rFUDeNpr69gGS4sWuXpfzqqrclZptQGeTQU9IWXd7IbquQE7AKv72E4nc+c1HF2ICT28kCvVdOBZVNDTYq0awPrelXVzZYDcoKiikzvVdOBZVNATEfb8/jn2cwB4gbuuTaidTkwSH4ByVt1o2WIkVNOBlamgp0O1AeBluhtIv5d1cxYGbrJdAgtjoZoOrEwFPQFl3Rx3f1SO/RwAIroOU95vHOr2qKIzQqrpwA8J6AMXqjw3es8Boru73108nZw72u0oZ5UX0IyRvenAo1xxH75KOAfoRfez9Y+ybrQQbUl7Wp2FnfUwJt0Gg7/KmUo68D0V9AELa9W+jP0cADbgMlx5/9thb1Y5qwxBZcxU04GvqKAPm0nDAJvxumsnsopt89rT6qIois9j+7ohUE0HvqKCPlBl3Rx2Vy/Hfg4AW/DWKrbNKmdVd2PsSksXI6eaDqigD5ieSIDtuF/F5uw3pz29n+bu9x5jp5oOqKAPUVk33Q/m92M/B4At66pZB/rSN6fbFR1CCoydajqMlAr6wIS1avOxnwPAAOzpS9+445F9vfAY1XQYKQF9eE704AEMxqv7P5LrRnDcgFAt/JD9Fwqre9/dLClnlReFMBKuuA9IWTdWzQAM18d2OnHDaQNcdYcHfWhPVdQhdwL6gJR1cxFW/QAwTJ/v+0L1pfcqVAv/yvhLhOfSmw6Zc8V9IML1SeEcYNjeFEVxUdbNrufUnxA+fs3164MX0JsOmVNBH4AwGO5G7zkjdvnIl34TPvp08Mj/bS/M+JG7MOFdFatH5aw6Dy9FgO+ppkOGBPQBsFaNDNwuBenu6u/yHwtX4X/2z39P8XpwmOT9U/iv3T+XB/YcLP3P9c2ORxfS5+10Ymd6T8pZ9VP4GbKT5RcIcehNh4wI6FsWrkl+GfUhMFR3S0F7EbKXw/dNO530Xd1O1lKg3w0fi1AvxOfn13Y6ORn7IfQl9KNfuGUGP6SaDpkQ0LesrBvX99iG5fB98c0/k6xwpya8nNtdCu0HwnvSPrXTiVVsPSlnVXe2v2f5xUFcqumQOAF9i6xVo2eLvu6Lpcr333pmhy9U3xfhffGfBffh6/6dO/SCqx9hKJZ2MHiaajokTEDforJubvTV8UKXS+F7MVBNBTxT3wT3g/Cf/QwZluswPM6/gz0oZ1XX73+U3RcG/VBNhwQJ6FtS1s28KIrfRvnFs67FALblSrgQzr2wBWI5sO+rtm+dCe89Kmf3VUHf47Aa1XRIjIC+Bdaq8YjlIH4ThrBdOCyeI7TQ7C99CDSbJaT3JEx2v/A9DWtRTYdECOhbUNaNK3rjthjQJoizMd9U2hf/9JKwf2+tYYtPSIdnUU2HBAjoGxZ6SP8a1Rc9btdL/eEXrqYzJGGS/HJgF3b6IaT3oJxVu+HnqxdNsB7VdBgwAX3DyrrpQtrrUX3R43G56A9XFSdV4Wr84sPPqng+ttPJPJcvZijsSIdnU02HgRLQN6ism8OiKP4YzRect+UwfqXPlFwJ7FHZld6DENLPbTSAZ1FNh4ER0Dck9H9e+QMiSddLYfxCGGfMBPYXE9J7oCcdXkQ1HQZEQN+Qsm66t5PvR/HFpu1u0Ssewrhr6vADIbAf6mFfi13pPRDS4cVU02EABPQNCIOYDLIZpuvwB91igNvN2A8EnivcFFqE9UM/835ISO9BCOnnbneMxqcwhFUBJB7VdNgyAX0Dyrrp/lh4k/0XmobLRSBXHYd+ha0Vh+FDVfN7QnpPylllnWn+3ran9895MYfgzM+ZqFTTYUsE9J6F659/Zv1FDptADgOwVF0/tIP9V5BEWgAAIABJREFUK0J6T8pZ1U3N/y3LL27c7kKF9/zbUyhnlXbCuFTTYQsE9J6VdXPlje5GCeSQgLDVYhHWxz488y6EdH8ER1bOqoNw5d0LoTw8GRhV03uhmg4bJKD3qKybblLv79l+gcMgkEPiwlX44xDYxxrWhfSelLNqN4R0gS1tn0M4X+m2iWp6dKrpsCECek/Cdc4bb+2ju14K5N9dbwPSNvKwLqT3qJxVJ0VRvMv2C8zbr+3p/fNbi2p6L1TToWcCek/KuvGHQBy3ofKxCOX6NGEkRhrWhfQelbPqMAQ2L8/TEKVqq5oenWo69EhA70FYq/Yluy9sM+6+CeTWngFjC+tCeo/CKrYz21UG72NRFNWqV9qfopreC9V06IGA3oOybi7sYF3L5SKU+4MUeErYjnGc+a71LqTve0nZn3JWdd9DJ6rpg3MbqrO9zJVRTY9ONR0iE9Ajs1ZtJfrIgSjCMM7DTKuhl+10cjCAzyNbqumD86F7aRKrav4Y1fReqKZDJAJ6ZGXd3FgZ9J27EMjPXVsH+hAGc3ZhfZ7Zz+BfvMjsX1jHdub399Z0N+nmm67CqqZHp5oOEQjoEZV14wf9vxZV8nPrz4BNCv3q80yuwKuib1AIbHPX3jfmNvSZn23rE1BN74VqOryAgB6JtWr3PquSA0MRfi4fhsCV8h/f//EzdXPCtfeuN/1oLF/zFtyFM+79OvuqVNOjU02HZxLQIynr5myEv8xvl6rkrmACg5V4Vf1tO51srcI4VuWs6jayVIJ6VIML5stU03uhmg5rEtAjCFWa/5f8F7Ka61AlPzdxHUhNolX1D+104g/cLRHUoxh0MP+Wanp0qumwBgE9gjBF+Pfkv5DHfV6qlLtmCWRhaV3b0IOXgD4AIajPw/eMHvXV3IaKdBLBfJlqei9U02EFAnoEGV5vv1v0kodQntQvVYB1lHWzuzQBfojBS0AfkNCjnuPGgJi6qexn2xz+FotqenSq6fAEAT2Csm66IPs68S9DPzkweuFGVDWw4CWgD1RYz5bCLYxNuAsV57Pcwpdqei9U0+ERAnoEZd38neh1t9tQKT/TTw7wr3D9vRrIy9efrasctlBVPwwfb0b25X8OoTz7l/uq6dGppsMDBPQIEgvoQjnAipamv2+zQvr/aTVKxwjC+tdtcIn1lr+UanovVNNhiYAeQQJX3IVygBcIferbmOT9uZ1ODj27dJWzqnt+B+Ej1VB3vRTI3eZQTe+DajoEAnoEAx0Sd7cUyv0yBYhgCwPlXG/PSKiuL8L6/kBf7nd/P1yFQN59XI2tSr4q1fReqKYzegJ6BANbs/Y5hHKD3gB6Evapz3sO6pftdHLgGeYthLzuYzcE9582GPi6aet/h0B+FcK4daprUk2PTjWdURPQIwh/qP2/LX4K3RX2kxDMveUG2JAeg3pXxdxvpxNhaaRCtX0/fPXLL2p2w8cqbsJHsRTEC9fU41NN74Vqes+++TlTrPjzZfnnSuGWTXwCeiRbuOaurxxgICIH9S6cH/jZDulRTY9ONf2FwjrIRfDeD7d09nu4/bVoj1m8DLwP8l4Irk9AjyT8cXazgZ7ET3aVAwxThKAunEPiVNN7oZq+ghDGFzMuuo+dgXxq1yEnLeZaCO0/IKBHVNZNN6n1jx7+T7vCDpCQENS7PybfrfFZX95Xilxrhyyopkenmv6NpUB+MPCNUg+5XAyjFNi/JqBHFnlgXPeNe6JaDpCmMPV9HnZiP1bJ+Bx+1vsDBTKjmt6L0VbTQ8/4Yfg42NA2kU24W6xyDOscR12QFNB78MKQvliPVqmiAOQjhPVvh+9cuRkF+VNNj2401fRvQvmbAXxKm/B5zGFdQO9JWTf74Vr6qtdNXGMHAMiUanovsq2ml7OqC+THIwrlj/nvCunTajQ3igX0npV1cxD+5Tp84BrKP9c52unkLLsvHgCAr6imR5dNNb2cVbshN8Re3ZmD2/CCqwvrWd8yFtA3KAwNWuwadK0RAGCEVNN7kWw1PQx7O97wyuaUfbqf3ZJpi4OADgAAW6CaHl1S1fQQzKsEJ7APxeX93K7MpsAL6AAAsCWq6b0YdDVdMI8uq6AuoAMAwJappkc3uGq6YN67LIK6gA4AAAOgmt6LrVfTw/C3ExPZN+ZTCOpJDpMT0AEAYEBU06PbSjU97DCfe5Zb8yEMk0tqMLeADjzpmw0E3zqIcILdD84Hf2m200lWgz8AYBWq6b3YWDU97DHvquY7m/8yWXIbXs4k8/ekgA4jU9ZN9wv/p/CxHLqXg/bugH+hdD9ol68sXTzwn/9up5MsV28AMC6q6dH1Wk0PVfMz19kH53N47oOvpgvokJGl8P3tP38a8Rv461Chvwkfi2q9EA9AElTTexG9mh6q5t1zejWcL5MldyGknw/5UAR0SExZNwdL4Xs3fOz7ZfBsd4vAHv65CPJX7XSSVM8SAHlTTY8uSjVd1Tw53RC5+VCr6QI6DFQI4vtLAXzI185zdfdNaO+u0N+000mSU0EBSJ9qei+eXU0Pq9PO/I2WnK5l8nBIa/gWBHTYsrJuFgF8P/SBC+JpuFwK71eG2QGwSarp0a1dTS9nVTeh/bd0vkQe8Gt7Wp0M6WAEdNigB8K4q+l5uV4K7RdCOwB9Uk3vxZPVdFfaszOoK+8COvQoXFM/WArkwvj4LEL7VQjtBtMBEJVqenSPVtO9FMnWdbjyvvU2RgEdIgm7wg+WPvzg5jGXoZ99EdoNowPgRQTHXnxVTQ/95ucKLtnqZg8dbLsvXUCHZwrX1ZcDub5xnus6BPaL0M9uCB0Az6KaHt19NT3chvw9s6+Nh71tT6uzbZ2NgA4rUiFng25DWD9XYQdgXarp8GJbC+kCOvxAWTfdL7jDEMhfOyu25J8KezudnHsIAKxCNR1e5GN7ej+pf6MEdFgSquSLQH6ox4iBulyqrhs6B8CjVNPhRT61p9XxJo9QQGf0Qi/5YfhQJSc1/1yHV10H4DGq6fBs/397d5DURpatATiz483tXkG5xwyKWkFRKzDNBoyHGhW9gspeQVMjDQ0LeGq8goIVFEQ8jQ0raLOCfHHxSXcaC5AgJWXm/b4Ihd3dEW2RApS/zrnnbDSkC+hkKVrXDyOUG+7GmHxsVdcNmwPgK9V0eLaNhXQBnWwI5WToKm7EtMID8JVqOjzLRkK6gM6oCeXw1U1U1k+EdQBU0+FZvtmNvw4COqMjlMOThHUA7qimw8rWuoJNQGcUWoPejoRyWImwDpA51XRY2d/rabWW4bwCOoPVWol2aPo6dKI5s35mwBxAflTTYWm3aS1zPa06L24I6AxOOZvvRSh/59WDtUlh/TjC+meXGSAPqumwtBTS39TTqtP7JAGdQYgW9sN4aGGHzTq1Zx0gL6rpsJSrenr3oVZnBHR6rZzNmxb2t14p2LrmvPqxFniA8VNNh6X8Xk+ro64ulYBO76iWwyBogQfIhGo6PKmzye4COr3hbDkM0m2rqm4KPMBIqabDo9L90G49rV7cYSigs1WtSeyVajkMnqo6wMippsODOjmPLqCzFdHGfhQV81deBRiV26iyOKsOMEKq6fCgf9bTuw+xnk1AZ6O0sUN2LiKomwAPMDKq6bDQL/W0On/upRHQ2YhyNm+Gvv3sikOWbqL9/UT7O8B4qKbDd27qafXmuZdFQGetIpg7Xw40mqFylfZ3gPFQTYdvPLvVXUCnczH47SgezpcDD/kY7e/PbgMDoD9U0+EbP9XTauUNNwI6nRHMgWe6iqDeyf5QALZLNR3uXNTTam/VSyGg82ImsgMdcU4dYCRU0+HO+3parVSAENB5tgjmlYnsQMduI6gfC+oAw6aaTuZS8WG3nlZL388I6KxMMAc2xD51gBFQTSdzKw2ME9BZmmAObNGpye8Aw6aaTqZSweHNslV0AZ0nGf4G9IigDjBgqulk6rSeVofLfOkCOg8SzIEeE9QBBkw1nQz9rZ5WT963/MV3BouUs3n6pXkdvziFc6Bv0lGbT+VsfhLHbwAYkDiT+1Os2oQcLHUOXQWdb5Sz+WF88/zgygADoqIOMFCq6WTkySq6Cjp3ytl8r5zN0zfLB+EcGCAVdYCBUk0nI0dPfakq6JkrZ/Pd2Df8c+7XAhgNe9QBBko1nZF7cqK7Cnqm0gC4VGkqiuJP4RwYmVdxc3ed5mnEwEsABkA1nZFL9yiPTnNXQc+MyexAhm7ifPqJFx9gOFTTGambelo9eBxPQM9IOZvvR9unM+ZAjlJQP6oPds68+gDDYG86I/X3elotvB8R0DMQVfP0i+1t7tcCoCiKi6ion7sYAMOgms7IfKyn1f6iL0lAH7momp9oZwf4jtVsAAOims7ILFy5JqCPlKo5wFJMfAcYGNV0RuIf9bQ6vv+lmOI+QlE1vxbOAZ7UTHy/LGfzR6eqAtAPJr0zEgvvO1TQR0TVHODFnE8HGIhoef/T68WAfdfmroI+EqrmAJ34uSiKP8rZ/MT+dIDe0/nE0H03KE5AH7h0A1nO5unswr8NggPozLv0oWc5mx+5pAC9tXAKNgzIdx8yaXEfsHI2T209Z/aaA6zVVexP1/YO0BPa2xmRb9rcVdAHqpzNq/ilJJwDrNeP2t4BemfPS8JIfNMJIqAPTDmbvyln83OrJQA2rml7r1x6gK3T3s5YfPNhkxb3AYlBcCfOmgNs3U06N6btHWDzykmVupn+49IzFvW0KpsvRQV9AAyCA+idH6Lt/Tx1Nnl5ADZKezujUk6qr9/TAnrPxSC4VKH5NfdrAdBDaS3bp9T27nw6wMYI6IyNgD4E5Wx+GOH8x9yvBUDP/Rbn0+3kBVi/XdeYkRHQ+yxa2tNZ8w9a2gEGI/2+/lDO5imoq+4ArM/Pri0j8/V72pC4nomW9hNVc4DBu4hBctdeSoBuxFndP1xORuinelpdqqD3SExp19IOMA7N+fQTg+QAOqO9nbG6+94W0HvClHaA0Ur70y8NkgPohIDOWAnofRDnzU1pBxi3V61Bckdea4Bn05HEWAno2xbnza8NugDIRgrq/4pBcia+A6zOfTNjdRfQDYnbkrgx+5DlFw9A46YoiqP6YOfMFQF4XDmpUvX8k8vEiP1VBX0LWivUAMjbD2n+SDrqZDUbwJO0tzN2u//jJd6cGA5kSjsA96WWzT/K2TytZqvqg51zVwjgOwbEMXavVdA3JM6bXwrnADyiCeoq6gDfswmDsdsV0DcgzpufRysjADxFUAf4nhZ3xk4Ffd3S3ts4b26/OQCrEtQB/ktAZ+xU0NcphsH9Nt6vEIANEdQBIAPWrK2BYXAArJlhckB2ykkluDB2VyroHTMMDoANUFEHgPH5UUDvUNwkGQYHwKY0Qf06BpICAAOmxb0jcWP0YRRfDABDdZNa34uiOKsPdj57FYEx0eJODgT0DsSkdsPgAOiL26IojtNDUAfGoJxUaYL7Jy8mY6fF/YVMagegh17Fe9N/0vtUOZtbTQQMnd9jZEFAf6Y0qb2czc+Kong3yC8AgFyk96lP6T3LQDkA6DcB/Rlaa9TeDu7JA5CrtzFQ7tJAOQDoJwF9RdEmaMc5AEOV3r8+lLP55zRDRfs7APSHgL4CO84BGJHmnPqnOKeu/R0AtkxAX1KE8/O4oQGAMXnX3qceR7kA+sRGCrJgzdoS4qzesXAOQCbSmrazWNN26UUH+sAedHIgoD8hwvmHXj9JAFifq/iQ+sxOdWCbBHRyoMX9EcI5AHwZKlcUxXWcVd91SQBgPVTQHyCcA8CDUlX9JD1U1YFNUUEnA7cq6AukCoFwDgAPSlX1fxVF8Z9yNj8rZ/N9lwrYgCsXmZG7/B+v8LcinL/r03MCgB57mx7lbH7bqqobLAesg44dRk8FvUU4B4BnS5tOfi2K4s9Y13ZUzuZvXE4AWNq1gB6EcwDozA/RAv+pnM0vhXWgI+cuJCN3rcVdOAeAdWrOq/+rnM0/xn51K9vohXI23yuKIm0meF0UxV7rOaXvz8t4nPt+BTbkc/ZT3IVzANiKj1ENS2H92kvAJsSawMMI4z8u+U/exgdLle/V7SonVXrd/sj5GjB6v2Qd0IVzAOiFZm2bsE7nWqF8P45fPFcK6kf1wc6JV2k7ykmVXss/c/zaycbfsg3owjkA9NJNVCtNg+fZYubBYTxeEsoXeS+kb49d6IxZPa3KLAO6cA4Ag9C0Fp87t85TIpTvRyhftn39uU7rg51DL8rmlZPqcgOvL2zDRT2t9rIbEiecA8BgvIr37PT4UM7mV01grw92THOmaV/fj8cmQ9u7cjYvhPStuBbQGam7I15ZBXThHAAG7cd4/FbO5rdRWT+PwK4dPgPlbN5MW9+PP7tuX1/Fu/iAYE93x0aln/W3GX295OPufSybgC6cA8CovIqb9LsbdYF9vJoQHKH85559oekDo/NyNt834HBj0s/4b5l8reTl7n0rizPowjkAZOkibubv9lkLUMPQCuTN49UAnvhtVNJ9MLRm5aRKXRT/GfUXSZbSgLgih4AunAMA4TbCelNpv9SavH3lbJ5C+O7AAvki6ftr33yE9Ssn1fWWjzdA167q6d0awXG3uJez+bFwDgCEV9Ei/XPTIhuD5y5bgV0FdI1i0noTxnd72LL+Eun7649yNreGbf3O3eMzMl8/2BttQC9n8zRV89cePBUAoL+awXN3N/tpMne0xl/G41pF9HmiVT093rQC+VCr46tIGwde1wc7x8N5yoMjoDM2X99nRtniHuH8Qw+eCgAwDlexAqcJ7p8F9y+iRf11BPAmkFuDZVf62pSTKn2PfRrpl0ee/lpPq7sjV6ML6MI5ALBBzbn26/uPsQyli7b0RY9cKuIvcVoUxZFZB91zDp0R+Xr+vBhbi7twDgBsWPtc+zeiXb4J8EVTeV/w98+bPvse7eev4z821e/7fxfAXy61Ye+mLgMhvXNnjrMyEt90Y42mgh5vNOfeSACAEbiJinwXXms537qrmPBu1V9HykmV9uL/exRfDLn7qZ5WXz+kHUVAF84BAOg5u9I7Vk7uzuy6/2fIbutp9br9/P8y9JdTOAcAYADSvep5DNWjG2euIwP33ffwoM+gpxUWRVGcCOeM2FXrjGJx7/ziY/9d20qDilrDgB6y6H9vn2UsRrbXFgC6Yld6t86sW2Pgvgvog21xj3B+7kwVA9MO3M1AiM+tAUIbHxS0bvcGETVVg3bIF+YByJGQ3gFt7gzYd+3txcAr6GfCOT3ThO/7q3aKnHfl3vvA4cHr0Gr5awJ9858FeADG6ENMd7cr/WVU0RmqhUc0BhnQy9n8xE07W/DQrttLq1NervUhxnchvtV23w7vb+w/BWDg3qV1fEL6i5wI6AzU8aKnPbgW93I2P7bzkDW7aLWdX0bbebYV8L6LyvtuK8D78A6AobmINWw+8H+GclJd+9Cegbmpp9XCmU+DqqCXs/mhcE6HLlpV8PNVh6nRD/HhyTcfoMS59/ZDaAegz35uJrwL6c+Squi/DfB5k6+F1fNiSBX0cjbfL4ri3z14KgzPTasafhkt6YJ4ZiK078Vj1yftAPRQmmdzaFf6asrJXSXy05CeM1lLx2bf1NNq4Ydxgwjodp2zgqt7QVxrOgvFufa91kNgB6AP0s37npC+mnJSOYvOUJzW0+rBuRO9D+hxE30pnLOAME5n7gX2fb9zANii2ziT7t5mSeWkSu/ffwziyZK7v9XT6sFu3l4HdLvOaWna1M+FcTah1RK/7ww7AFtiV/oKykl17j2bnruop9XeY0+x70Pi7DrP18W9QO7MOBsVrYXpcRwfFjZhXTs8AJvyIdawCenLqVTR6bnqqafX2wp67Dp3jiQPtxHEVccZhKiu78fDh4gArNupXenLsXKNHnuyel70NaDHOrUPPXgqrMdNE8bTn4agMGRxdj0F9UNhHYA1EtKXUE4qOYK++qWeVk8WInsX0NP+R60po3PTqpCfa1dnrKIVvqmsv/VCA9CxixgeZ1f6I8pJdelDc3pmqep50beAbp3aaLRb1s8EcnIkrAOwJlexhk1If4CJ7vTQUtXzok8B3cT2wbuIoX5a1uGe+P12qA0egI5cRSVdEeQBJrrTI0tXz4ueBXQ/RMNy1WpZP8v9YsCyWmfWjwyxAeAFbqOSrjCyQDmpUmfun717YuTo0b3n9/UioJvYPghN2/qZc+TQjTjW01TWHe0BYFVC+iPKSSVjsG2/19PqaJXnsPWAbmJ7r121zpFbfQZrVM7mzXl1NxIArCKF9CO70r9XTqp0xOzah+BsSfrZfFNPq5XmRWw1oEf1SOtJv3xUJYftaQ2XO3JeHYAVvBfSv1dO7qqX/+rb8yIL7+tptfLP5NYCetyE+kRr+25aVXJnyaFHtMADsCIhfQED49iClQbDtW0zoNtPuD1N6/qJM0swDHEc6NANBgBPOK0Pdg5dpP8yMI4NS63tu6sMhmvbSkA3FG4rUig/sZcchi2mwDdh3RR4ABYR0u8pJ1VVFMVvvXpSjNU/6ml1/NyvbeMB3VC4jXKeHEZMVR2AR5zG8LiVBlSNWTmpdPCybs9ubW9sNKAbCrcRTSg/8wsZ8hBV9SNn1QG45yrWsLkn/G+r+7n3StbkRa3tjY0FdEPh1kooB+5EVd0EeAAaQnpLOal087Iuf6+n1YuHbm8yoJue2C2hHHhQdCwdmfcBQIT0fUcevygndyHqbR+eC6NxWk+rTuY+bCSgl7N5OiT/69r/ofETyoGVRPfSkaFyANm7jUp69ht8ykn1OlrddZvRhS9dKtOqk3y29oBezub7RVH8e63/yLiZvg50wlA5gOwJ6cF5dDrSybnztrUG9BhcdOkbf2U3RVEcC+XAOmh/B8jabbS7n+d+IcpJpZDIS/1ST6tOf5bWHdCtMljebVTKT3yqCWyC9neArL2vD3ZOcr8I9qPzAi/ad/6QtQX0cjY/UZ1ZymlUyl888Q/guUx/B8iSkP4lpMstrKqzoXD3rSWgx42e9QUPu2idKzfsDeiNcjbfi6Buui1AHoT0LyFd5y/L+lhP745HrEXnAT3ONhq48L2bVgu7c+VAr8UMkdT2t+/3OcDondYHO2upBg6Fye4sqdOJ7YusI6D79OlbpxHKsx/EAQxP65z6kaAOMGpCupDO49YezouuA7p9519dtaawa2EHRiGOL1UGygGMlpAupLPYRsJ50WVAt+/8bgp7GvR2bAo7MGbx+/7IPnWAUUrdn0c5F5nKSWVVNG0bC+dFVwE9833nF9HCnv1wDSAvBsoBjNaXQJJ3SFdJp9h0OC86DOi5nTtvdpYfG/gG5K41UM6KGoDxENKF9NxtPJwXXQT0cjbPabm/ajnAAyKoHxooBzAaQrqQnquthPPipQE92hv/6PQZ9U9ztrxSLQd4msnvAKMipH8J6SeOdGXjyxyGLYTz4iUBPW7ALkc8zdckdoAXMvkdYBRuI6RnPQi5nFQnjnON3u/1tDra5hf5koB+NtJPkewtB+iYoA4weEL6l5Ce3s8+9OCp0L339bTa+lHmZwX0uNEa0zfmTWvom2o5wJrE0ajKijaAQRLSv4T0vTgC6xjXONzGefNefF+vHNBHtlLN0DeALRDUAQZLSP/vrvQzw+MGb2vD4B7ynIB+PoIbqtOolmf9iwVg28rZfDeGyTnTBzAcQnooJ1WaWfVrL54Mq9r6efNFVgroA1+ppo0doKfsUgcYnBTSD+uDnbPcX7pyUu1HztDyPgzpe3e/nla9nDm2dECPKsefa39G3buKUK6NHaDnBHWAwXnvPtsqtgH5ePfBUo9a2u9bJaBfDuyMxccI5qaxAwyMXeoAgyKkh5jyfuy9q3duI5j3vuNjqYBezuZDOVtxG8Maqvpg57oHzweAFxDUAQZDSA+q6b2T5o8d9blq3vZkQI9Ju39s+omt6DY+qXK+HGCEBHWAQRDSW2IdW7oeP/TmSeXlJqrmg+qofjSgxw3RZY+/qW6iWu4XAUAG4n1pP86pu+EB6B8h/Z5yUlU+YN6o27uMOL2bsD84TwX0vra2X0S1PPupkQC5KmfzQ0EdoJeE9Hui7f3YENS1+z3C+WC7qh8M6D1tbTf4DYBvCOoAvSSkL1BOKttK1uM0gvng55AtDOg9bG0/NfgNgMcI6gC9I6Q/QFDvzGiCeeOhgN6H1nYT2QFYWTmb78dZv59dPYCtE9If0Qrq+86oL+02hu8djymYN74L6D1obTeRHYAXi/ezSlAH2Doh/QlxRv0wPmDWCbbYTeTEkyGfMX/KNwF9y63tgjkAnRPUAXpBSF9SrGc71P7+1WmE8izmkN0P6NtobRfMAVg7QR1g64T0FURVvTm29eNgnng3PsZx57MxV8sX+RrQt9DafhM3SmeCOQCbEu936WbnrYsOsHFC+jPEWfUU1vdG/P6VbShvawf0yw19MnMTg9/8YAKwNeVsboIuwHb8Ym3y80Vlfa8V2Id6Zv0mAnn6XjjPOZS33QX0cjZPNyi/rfnfEswB6B1BHWDj0hHXvfpg59Klf7morqegvht/9rUd/irC+GUEcpu6FiiL//2/9IJ+WuO/IZgD0HuCOsBGCelrFIPm3sSj+fumKu0p/11HGE9/Xucy4K0LKaCfrOlmRDAHYHAEdYCNSSF9tz7YUUndkKi2p8frqLgX9/6+rPTBStOS3vz9WlX85VJArzv+/0w/aEeCOQBDFqtHj+LxyosJsBZXUUl3/pjsJX/p8CqkYP7P9ImMcA7A0KWbxfpgp4pKwz/jfQ6Abv0YH4RC9oqOKuj2mAMweirqAGv1V1kCvlTQn1sRaFfMKz9QAIzZvYr6P2LWCgDd2Hcd4UtAP37GdTiNgQ6COQBZiaCeusZSUH8vqAN0QkAne0UroF8teTVSMP9bfbBzaNoiALlLM1cEdYBOvHYZoSjKuq6bc3Xnjyy1v4jJ7PYUAsADytn8MM6oP/R+CsBiF/XBzp5rQ+7m57evAAAEIklEQVTuAnojbiz2W59gpSp5qg5YLA8ASypn873Ypf6zawawFAGd7BX3AzoA0B1BHWBpv9cHO9atkb0u96ADAC2pAy0qQj/FHBcAFjtzXUAFHQA2ppzN30RF/Z2rDvCV9nYIAjoAbFgE9dTKmWa/vHL9gcz9ZBg1fCGgA8CWxBaVo3gI6kCO3qeVlV55+EJAB4Ati6DerGj7wesBZOAmbY9SOYdvCegA0COx8rQS1IGRSsG8UjWHxQR0AOghK9qAkRHMYQkCOgD0WAT11Pr+1usEDJBgDisQ0AFgAKxoAwZGMIdnENABYEBMfgd6TjCHFxDQAWCAIqjvGygH9MRFURTH9cHOmRcEnk9AB4CBi8nvhwbKAVtwERXzcxcfXk5AB4CRMFAO2KDTCObXLjp0R0AHgJFpDZTbd04d6NBtamMviuJEMIf1ENABYKRaA+UOnVMHXuAmPvQ7qw92PruQsD4COgBkwDl14BkMfoMNE9ABICNxTv3QPnXgAamN/cz5ctgOAR0AMhTn1A/tUwfCTet8uTZ22BIBHQAyF+3vKaj/mPu1gAydRii3Jg16QEAHAO5of4dspGr5iWns0D8COgDwjVb7u+nvMC4fI5Qb+gY9JaADAA8y/R0Gz9lyGBABHQB4UlTV0x7kfUPloPeaSexpRdqllwuGQ0AHAJZWzuavI6QbKgf98zGC+ZlqOQyTgA4APEs5m+9GUFdVh+25ioFvZwa+wfAJ6ADAi6iqw8bdRKX8RAs7jIuADgB0RlUd1sa5csiAgA4AdE5VHTpx2zpTbjUaZEBABwDWKibAN1V1e9XhcUI5ZExABwA2ppzN92Ov+ltXHb66aYXyc5cF8iWgAwAbpwUe7qavnxv0BrQJ6ADAVkULfBPWtcAzZh8jlFuJBiwkoAMAvRFT4A+dV2ckbppAnv6sD3Y+e2GBxwjoAEAvCesM1EUrkGtdB1YioAMAvddqgz90Zp2eac6Sn5u6DryUgA4ADEprwFx67BVF8coryAZpWwfWRkAHAAatnM33WmFddZ2upQr5ZatKbrgbsDYCOgAwGq3q+l48nF1nVRf3ArkKObAxAjoAMFpxdn1PYOcBN60wflkf7Jy7UMA2CegAQDZagX1XS3x2btthPAK5dnWgVwR0ACBrcYa9Ce27quyjkCrj18I4MDQCOgBAS5xj322F9jcq7b12EWH8shXGnRsHBklABwBYQlTa38Sj+btq+2bctEL41z9VxYGxEdABAF4ggvvrVrX9TfzdfvbVpHVmnyN8f4729MLgNiAnAjoAwJpEeC+i4l5EcH+dYfW9qYAXTfBuBXEt6QBBQAcA2KJWiG+q8I291t9f9+gcfDMNvXHdCt+fW//b5/pg53Lx/wUAiwjoAAAD1Bpmt4ymct9oqtdPcc4bYFOKovh/HCWjgmh53ScAAAAASUVORK5CYII=;" vertex="1" parent="1">
          <mxGeometry x="840" y="473.65999999999997" width="49.29" height="41.75" as="geometry" />
        </mxCell>
        <mxCell id="Je1Hd4dE8nQYAFv2ral5-12" style="edgeStyle=orthogonalEdgeStyle;rounded=0;orthogonalLoop=1;jettySize=auto;html=1;entryX=0.5;entryY=1;entryDx=0;entryDy=0;flowAnimation=1;" edge="1" parent="1" source="Je1Hd4dE8nQYAFv2ral5-5" target="Je1Hd4dE8nQYAFv2ral5-7">
          <mxGeometry relative="1" as="geometry" />
        </mxCell>
        <mxCell id="Je1Hd4dE8nQYAFv2ral5-5" value="Plataforma de Canalización de datos" style="shape=image;verticalLabelPosition=bottom;labelBackgroundColor=default;verticalAlign=top;aspect=fixed;imageAspect=0;image=data:image/png,iVBORw0KGgoAAAANSUhEUgAABLAAAAGaCAMAAAAo8EoKAAAACXBIWXMAAAsSAAALEgHS3X78AAAAolBMVEVHcEw5QVM4QFQ3QFQ5QFQ4Wm89dIo4QFNthYs4QFQ5QlQ3QFPxnEY4QFQuxML/Z1s3QFMqw8xKdYT3uSH/cFg9f9cstN9Bhos7d7NKvZH/XmT/0wAwtd7/XmYov+IgzMH/pic3QFP/qCj/UHL1a2FKvZE9geE9geH/0gD/fEL/0gA9geGSl4b/lTM2QFJKvZH/0QD/fEI8fuEqu+f/UHIczcXuwnfaAAAALnRSTlMAYJB2TyUT2wSjPPcef02xxaQka0WwdHtN0tzR+G7T+MLplPrx8+P78vr88KD7ChfFIQAAIABJREFUeNrsnWtv4jwThimlwZCnLETrKHpFI6FK8YdI/ZDs//9tL8eSg3NwSOqEXle7XbqrAjXN3XvGM+PZbHQ4gZRRpFQcSRk4MwCAkeL4Up1IktP78Y/0PVYFAMYoVzK+SFUWJbFZADA+dxWrjFjdbioVIVkAMC6CKKNVp6jwLl4qClgfABgNIohVxlqdI8OMZimfJQKAseiVVBm1umqVuqtXkkjBKgHAKJCZ7NVNrDKydc69s0oAMAb8i15d7dVVqlSSU6wExQKAERB8y1XGVt1t1u0DmXcAsI53r2DIeStVzL2jWABgGSHv1iqvUoXAMI5YLAAYQ0BYoVL32ycDFrBVCABWifK7g7n0VUa5TpoVIVgAYNdg3QRJ46yKWSzqRwHAItkMljbfnlUwslgAYBPnVtKgiwhzHutcpUUbNABYjAj1BktT766ICQHALjLrsCqqGjIWi5ZCALBHlEtaFb1VXsZOIFgAYAsnyaewdDKVaypkYjIAWEJ4pZJRbSx4rx6lPQcAbBHkx/WpUv69mMWi2B0ArAlWUjRUSclcZUNCRo8CgFXB0lks7YiZk2LhsADAFpti2agqdxLmdgnJYQGALTxVbntW1cWjCBYA2EOUB4tqosHMLiG9OQBgjaiQXy99mg8KY1YMAKwhk4KlKpaQ5jcQOYkCAOzhaU/2qhg2QwoLACwiRFxV5q40FVqMlwEAqzGhqgoDCzXuirMJAcB2TKgtZdDWZRERAoDloFAzEUvTAM00LAAYlcX6bhjUhIaKY74AYATIOOekKgveyWABgH2ivJPSDJU5f4jYIgQA+0FhlJWnXCorI2WxN+aAUGz8MNyn6X4f7nzGogI8MUGudkHpSxoCMV7B8ncnrUq/Cf0NryrA0ypW/qx6XQmpP1q5En5Gqu6ahWQBPCdCbOJS3j2/czjeCiw/TLXsQyJDgCfFi/KFDfmgMPLGGg86FXJ1xqcMA+BJXZZMSnn32xAs6YxVrzZ1epWmOxQL4GlNVqypFj3aq2A2Vr3SZq9ymSzCQoDntFizWRCVu56j8WavxCZthuIxgOd1Wb7MFl/JUZc0tdGrNCQqBHhioyUCX57xA0eMuPZq5oVtBCvd8ZoC/BLxGvOTa6dX7BUCgH38tC0k3gHALk5rvSIoBADLAWF7g4XFAgC7eAZ6lYasFwBYxMRgUYwFAFYJjQTLZ8EAwBqOkV6RdgeAyUSEaSqoxQIAW+wMBYtpfgBgjdBQsEhiAYA19ggWAEyF3JETbbLu5LAAwBLC0GCxTQgACBYAQCN7BAsAnlWwmIkFANagrAEAJoNppTsDZgDAFq3Oy8meAk1ECAD2FIucOwBMhh2thAAwFYxiwj3rBQAWQ0KxZ48QAKaC316x9g45dwCwSojBAoCp0DqLFeKvAMA2bTcKNwgWANhGhHsCQgCYCE6IXgHAVPCaLZbkvBwAGEdQ2OSx9jv0CuAXK4TnOSPSACFkrV4RDwL8TqnyfBnFyZlYSn8081pqCkhDhsoA/EYCGSWJuupVcr4Z+d44nJaz00tW6M+IBwF+nbcSQRQrlZRQUTCOZ+iVJWu/ZygywK90V3FSQTwayXI2u/0+a66OzwvBAvh1eNHZTF0s1fktUVnJks5YjKDn+7ud3O38jUcoCPA77ZVSN7HSKtZ44sKjoxK3GwDw+xDCv4jUVawuN9Xl5l2yAlYKAOwLlrxp0tVXqe+3219nyG8DgG2cKBv6ZeJBlWRl64hEsQDAtr+6BoOqYLGyTuuCZLkAwCb3eDBvqEryddotpAcGACziq+vG4DXZrvSZrJsLI/MOANYIVKH2qhAT5j9JVETfHgBYwolUYXcwY6yKyayExDsAWESWNwe/NwVLyayLZBEUAoAVvFhdtgfzFqucvspEhbHDugGAJYNV2B3UKlU2756wUwgANgzWdwGWLv4rpbKuQWFEFgsAbBmsgo/KuqtSpEgWCwDsIApbhEU/pQsQzxbr0Qd2NqcRMUd83yMjBgBtCBKtOKlypXv+/9QjIiM2u7Aw4njDSwEAjRGh0laJluuvcjWlxz/d0+6edjB76OOzAKCeSGmrRZWukDRXoNW1B3qzqzz5ZodkAUANTjmlXlHNUOjb6ZjEcnacNQ8A3RBBkiSVyfWCVuX0Kkm6NBRums6b53hBAKjET8oGS1Vlr/IthR0KG/y0GbLvAFCB1IuUNuVeEDbT8E2IXdoGwkIAqBCsQpVo7d/5+NBUWJwwbceOlwUAdK5HakbJ6CSqZLCS2HCbsLVeoVgAoCfKOiylrxzVNhiaznYX7fXqGBXSqQgAGsFK9MNFK6oZshNmTARLCD81gcw7AJSRunBPf/5E8d3IYZnpVbqnugHAkLfF6/tqu1weXPfLPRyW2+38/WX9VNXYQtYenVrTE22UdBdeakhI0TtAe616WW3dryKXf1lu54unuZykfgBWfSf0RbFMBCs0FSzSWGcWq3n126L/H/u6h5sb3tl73Z0N9Fa+Ll/rv+J1YEPQ8IRf+ngQZ7FaftVx1C13O18/xRXl55PuFU05mjjR6LAvPzWHoPDIvO7n8L1/fax7uKXhndVfRMOgEaz6L3CHtR6Lhuf7+O8csVi5LRfnMF9P/4rITpdR2p6cquAwaf9Siw56lYbI1cgEy/A39NaCYL2VTWPD5fwy6Ou3apAQ8aDreZu7RutzeHUm7rO8pHBIjqqpFs3vErb/zrsYLCwWDqsPh9Wgm+520IiwQU7mj6nHYmW+Qu5q4jYrO3BU1UaEhb3C9puEHTJYlI/aESy3R4e1dC0IVvk5vrj2YsKmiPAh7Vh3s7Du17QlSyZ107BqeqDb59w3aTfYKJyywxLjCAkbXc6AMaFocEDLB+767ZHlXb1NOImlc0/Vyfb7Yart5WTXUbDogp62wxpHSDhrSEoPGBM6DVrZfYvSWd1qFjoyF1PNZYlYM7+vIm+V1avWp9UL0VGv9qTdcVg9CNa6w9f0w0tDcNbZ57wcHl6p5WKq14SMS1VXSe1898uH4SPCdI9g4bAeDglnYjmUz2liO4y3e1v1slariaZcPE2Nu6pIvd8Vrf1BqsLvKlh0FOKwenBY4v3LTkzYFBF29DiLQ0+LdZho8l2Wa0f13TrZ7Fb7QvSOe4QksXBYvewSHh1JB1v2ExFhpzSSmPe3Wu77FK8J4VUcPKEqz61PktjATu47CxaFDTisx0PCxhLWoWLChgqwVZeL1dn2WSzibqcYFgqpdE2EunMovqUraP/LwemsVxS747B6CAkbrc52mA2zphr7LgHZ26Hf9XKXU6x8F1HluV7acodERQZudtNdsMi647D6EKymZNIwMeFr/0VY60PvK7acYCJLBKpyxozufAoVm8jyA4KVIlg4rB5CwqaWvmFSOdveH3QxRO/AYYpTHPyyv6oeiJWowORbfESwBIKFw3rcYTW1yCyHeOl6T/WLxTC9Tu4UNwtldcFV2XKZbd753ZPuNOfgsHrYJTxe64cBe/oq6L2YYjFUb+YUFcuRdY04+f8yPC0Hh4XDsh0SNpViDRETLntuYVwM10s+xYIsL6qPCO+fSvFzgkUOC4fVR0jYFJ8t+//N2PCIxkMiBsi3ZxRrgs3QQlYelJPtIYxN9cp8nDu7hDisngVLND2Z9c++cl9fhkVYwjkMum7L6SVfhLg0FVbOc7/cMi8+pw4Lh2U7JGysMZj3vpQN373h1pwYeLjYsHMMh8JXur3C7FTkKOhwt1S647Bsh4RNpViHvmPChhERho8nVkMvnDuf4uXhRaryPIrTm+w0tfiBXkKS7jisPnYJmy/5vouRGiLCd7OHe/2BpZvguJnjIvqRtnfwXOTeyV7Nuk50Z1oDDqvHkFAses0pNXLosQhLvP3EsOlDmzSW+Pvx8efEx8d/IxGto2Rp2567ytUj87A4mhCH1VNIOBOu+4Mx4brP7kXxMyvZmMZy/v75/Pz893nj4+84LtDgln2/h4WR7H6EjRB7Jo7isIrPffGyGOC9+gpqGsvSb0S06rEIy3ygzOmQ+u12eTAzZm791Ir//pxV6t+N083Pj3HsLorAl9F1it9RrPwHD9xipjsOS1NHIETP77PaJ7h2fy4mbKisd41GJKxNRGf7/vLmzG6zCbz166p9PUTdyOb/PrJiddOso2p9jCYMEo53pAcFFRsiQhyW/W6QhuPcxU+to6E4GgSEqxdHiNwglZOKv723vYfq5/VREqtvzfrf39EolujpZI2OMSFFDc/tsH6ahq22RY+Kterxod7bxoFzT2sxT1fxuuXYv6on9udfDZ8fT3fZcfIzDsu+w/J+ap9QiB6Lvv7P3hntKKoEYVhFsZURhLC4klViiHeb5Ubf/9XOOM7Mjnu0q6q7uqeFqmRPsslZBJSfr6r/qkauECYrbS6kcBtX3F8pfKnbVqdYp6xvj50RYv0QuRLCYg09ZjBuAQ1sNk3yaOIso+tCQSI6nmNkz0Sv2lPWt+pNJYAlhPXtE02mzPMTHl75gs+Ehau4j0cIxYgR2ndHteP6BEfvGGv/i+5yl5q7EBZrxJ62gAY+Zz4i3EiM+/awRD4rEZxe/o/+VHbCRM/qWKqgCtY+Fr0SwmL+FWrvZsKWE45t7E6EN8j78eYF+lGBtzT8n7Uha1GCdTI1kapyl9WvSWdb1xf7fChPPXU31V+F6JUQFncA+dWY6TfHWCtDABZpMswSEsBkcnsTyhYnWG1rIvcvu/rt37afntQ6K59SsaSLUAiL/zcIWJqYckIgI1wopu/DZJKVAhXrn+4mXEL4Zm4gy32ZXf3yFwPqF+Wrw2hTVJQylnjchbBcxMrY6U0IRr8XbJ86UFMRMMm8GSSxO+GDKDNlzSl+Lkqee7GMCmF9J2GN1IyvumSaxhE2qFczuIC15NbTG5eYqlu8YJFWCi+diTpeC6GvGq1YoldCWI5i7T4nBJyeE8JdhH0IJhILHfVLKa8k6BWliqXgAwdg7VIK1QX9S/JBISxXP8Ex45gqM4JZskkfsR72eQ9iwEH65XvOCIJFadHBZJp1CIMgEJX3X1JvF8JyR/kJO7DQII6i+mAX4cHI+6MgM+rf76Y+UQQLmxOirF1BdFUrlUKV970Y3IWwHMZCb2liyAjZcjh4TIOhDwNw4iefXZXliSRYLfKlUWOtEkEUsnJJB4Wwvo2wIKOAfU4IYBHhfQx25RiX3GJg+mpMyNxuBAb16Vi9urhRQ3gGix+P3QyxSJQQltvQe73tb+lcP1+PjYOs1DXCdVVmNMHC9edkeL06tSE4stSoyH/dyQz3VSztg0JYzu9owijKd7Ao4TJhxVDJfWL+uCAdtLUDwdpR9KqtQ1GENN/fjm+vfrLNCxTBEsJ6fFYzbl/T7eFX1GEID2MMWbAsqr3AaunHabYtTbAQVoSSeshwnsX4Z1Xl+Y+8qqpCUkEhLF+Ktcb7vNkzTsqQQCgjtBo4CAydf88JieKCUJeYesgAx0DIWAYhLJ+hr98cLDNCNhMWmBFarQ+oCCOG/ISVUQ8ZRhlLQgjr+16QyR93J6bfkWvO2Pe8sHvPxwdETshOWCUZsPDuLgkhrF4SFrD6NrE6NtsaJLhGaHsD9ce/7tJYcxecshM92hdJwUSwBkxYALtYbQENYBFhsgKwj8Xrl2H5GC8RHY/ctobyZBKCWCJYgyYsAINszmzBZvSE5lZZf/d6Z8P8veJEkxbImZ61JyPEEh0QwRowYQFbv1usvkFrb4QbCA2BsZ/Iu4JL+tSSE6AssZFe9W5evAiWEBZnNmSeE6opmwkLmo28tpftGWxsICoMtEi4MxSsWopYIlgDJixo0/qpo4yQgm5QCYthrIQ+J7yebMZJQio7GQZDThinaVVVeVWlqYxXEMJ6LsIaRW5yQr1hIiEIITgBhmFwlz4znhswEbCcp1pTwbKbmKzSat8050u8/3efp2JVF8J6HsIqEqYhxreh3/CZlGpGjtcIwbfTdS8Kisa0NfB5pale2awTxmn+qlLvevURl7/mMmlBCOtZCAuoEBnmhIB1asV3KLu2nI/P0ALhlQcVYcAMOFxmZyxYrek1FvmtUt3KVi6zQoWwnoKwALgwNJHHQBZHOSqw4emU4ybouyrfqmSKgFhOXKPvw0eVoVydgRDJEsJ6BsJSim+r078H1U9AWCs+7fsTu/9xvUMcuooFu6WMBctskF8MytWbZEkJXggrfMJSiwQzwI4zzySt602hEhbLXdDW3D66wGs2s1TrU7BU2pxxUYlpQggr9BqW3opFmQuKLAkRqS1yX8IaQePn3084xilWBg9dac0Vi2wdxeHVNWQbCSGs0AkLmmRsknJFjHWxhXMX1pvGJohvSL20mBVCxB0zF6yWKlhovLpW36WSJYQVOGEBk0FNckLGlUdgyCCb2mu/ofFHva/kKGDZpYQ7l3olaaEQVviENePufJkB/T6kmwf43LlmiaN+XQreprlGWdHNBYtIWNWnRfSMVa5cFEsIK2TCAoAooTvJI8YpW4W+J/HAdAv065p/C2XqpQbqV6iPqy2K7oqoV+QQxRLCCpqwgD0e6FWiecJmwoIGLa/Zvm7c+0mpOGNonKn9rBIa6dWrYonYCGGFTFj6RT2yJswYW2kAR5fdUFT0Sd9wnNo9mj6alSPktWXmOSGh+zk9G4bUsYSwQiYsYCWOmhOuOIFt5WWR8FWG9JWy2/95V99bHUSzj1JeWnOu9fbGRLFkrVAIK2DCAgYiEEUB2JmUZpMAJgzyNObAZ/2vZqvynz1v6h0lVbMQrBr9IfG+MSWsc1MIYwlhhUtY+vGgRHVeAiYs2q1bM3Ylmn/Q8n+MNBqVu6xuX6Ous90Lcefj2IOrIT9bRCOCJYQVLGFBW3LNGI81Vnx3jq2TcAQNhbhrRlO3AkaK2vkiYWqlV1LGEsIKmLCAOjltC+hDwmfCgmxYifLz84qY73dsmhO22L2WVXO2C2nSEcIKl7D0IEO6WigjJJ6YXrAOfHdAV91PJtw33HSCH3p+X95YKtZeFEcIK1jCAryeS66viXytwHCZOeMdSHy4JyxzwhZZ2lexLWBJV6FTwUrWEXdMfBHWnwnjWZumSPqRm/jnVbHW76Fc1WiWxIMTn3qYCfEldm7XCPOzdQhiuSQsoOOMO1gJizOMi9ALpsud/mEFYWATVUYhmXox1P+N1mUjoT1gCWK5FSzPwUpYnGFKWMA+gkse4UvIldylJ6O7/pMSB4JlgljoXQlzBsGSnsI+CVbvCEufyk2w16t4u3ygeaMTvmdq5qlW9pk71w77CDn0ShYKhbACJiy9pRy7LxcAavTZWkArIeNai2fBMlkozLCekLRhUaxKRMdKsBIhLHeEBSRfS+QF6zNC+vAqSLA8EdbBxQ+auBNF276gM0IWwGoaER0hrEAJCxJVZHVbP/eBXiKHhjUwGjpj74JFVKwW363IA1hNI/urSg0rWMLSW7GQOeGYBdOwJ0Vu9AlLsFTcOukiVMWZJxrJCYWwgiUsFTOMRVhzqjxGsDwRVuLmJ122Lb/H3Xhun0zykxqWd8KyGHGu1oltOhcnCXPByR9hqW8QrFHZOtArlXMRlnkRKy6W6WsUQ04qhbDcpoR6CwGmzRioOM0MzmnljbD0E/wc/aYVlrEyylF5SljGQ2aKzXbbfcRxu0lFsISwHBTdgYo5Rhu0urxWDgRLPbdgjUYvNe8ULF7BImuNKjbH7mscL5EXIlhCWOyEpbdiIXLCgp+Gon4T1uU1kXGuD759DWe2oApWuu3ux3aAmCU1LMeEBWxaD2uhduBBEgth3VesXQtsJf1CVA0+waItExbb47F7FNvl4ARLCMstYQFzzWGaWfOasAZQw7p+8kvGuTc9q2ARXghq0+kjH1gFXgjLNWHp5WEN/esZgy8i0FVCt4KlRmX2yN2+ox+OT7AavK9BxdsOiu2wSllCWM4Jq7DKCVcMztMhEta1+H4nMWyz0uSuVXyEhRes4tjBcUxFsISwGAlLn9RBODN3MLNzADWsd8pSl2142r9oVWdlbOaqq/wTlko7VBw3IlhCWGyEBbTW6HNCNWM3Yb0eNBoKYb1pkxrFZbnblbvyrc5uqMapf8LadB1WsYYzZEtqWO4JS2/FKsxfKGvlJiXsC2FxSh9jDQu5SpgeO3QMJysUwnIvWNrxMElkLsqmYxUGU8NijLTxbGsoCHo1IMUSwnKfElpMNrc1cQ13lZA7fBtHEeuDN9b3obgbhLA8ENboYFqI0tvkTc8rEMJKnupJ4SOsGaaDdEsCrK7bDqSMJYSFESzl8i5rJhLrZ8JPTU8LIKxIBOtO7NkEC/7alEqJetV1A1kqFMLykBJq1/qSx5etlg5MWF4F6xsmjrqKnK3ojrlvHT2KQTCW9t2/GI/HU9Y/E287P6/4Tts+RdJr68yoWv9nYgx+/jah6JFgVT5tWL/penXcCmFdfrmK9c/UG2Et+U6bISIjgdBnhMZ9ryqQXXOeS7DYRiQjau7F0YCwjoNALNPqimFMvRFWWG3ssdF1c8o7hbCedl/Cp6i6w71/atN1gliGhMUsWL4IKwlLsNTCRFwXjipN0EaqfNe97JFg5TyKtUe83kwA61WxhmBtEMLyI1hTA4XQbvicFI6+BQu7xB3BSmwmVYQVPNZRhM8d20M4yIVCISw/gqUtR83pmVti87Trt3dN1p6+78WTPSsNx5RkzLaEWzPC6oaQEwpheVKsCf1kF05MWJfKkp6wGAVrnPRIsCpPnc/KUK+6bgA5oRCWp1iSc0JtoT6x2hiD1Q+ni8hTrcxLxByEhVgjNM0Iuy5VvV8oFMLyFbrBVnc9oGN36ZSesBgd6Cu/70PHkfsZLbMxFqzf/Tc2CGH5Ci1s3Bt1vHamx3p/F0PvJC6rjZ7tYWFALEzj89Y4JRxAEUsIy1cUxHJOzHmrKHcOGtHFJljTp3taKh+ANdoaE9ZRalhCWGyxpvUFRu6+Gb0rjFHs1fqp3inw9VgiVoN6FRgD1hCq7kJY3mJKo421OwaCBItvINbBD8h5C0svFmp0X2yuV13/d9ARwvL2dlaknHDm0nIZebK6x55KZf7Cyu6OKzHZCFb/B48KYflTrEVCmB4auRyxBzQTshmketT7/BHmY7GaBpWwqcJCsPq/EbQQlr9YEnJC/cXFLs+Ezzmqpj4+xW/MzMtYSPwp/BJWXLzG8/i3hLA8xhzfwDdzSkCFXrASrp9v5Kll8RnKWNjNcpTHGla6+bBQHLeb56h/CWF5zAlX+LGmK7diDBixZkxXvOiVb/TjKTcsuGP1WdkIFuElkG6/+CeOb9sbPkEJTAjLZzqBr0vNtffJmk2A6dJc21CsXXVDfmfEJozV5Pir9WJrSLfH452RWsFjlhCWz1hjZyToOw/tn/SFl2VC/Xycpy0Qm2yqWhGO78E4unz4GdvArVxCWD5jjK2ka78WhoQt8jKvYdk7V8NVsEY/G2r9inKxv431Ctuas+mODzc4PIadFwphec0mdMaGL611au5WTdTSS9V93KN5o7dR7CmS1dB+jObNz7gJftCeh5uQXyVCWF5jgROipWsfOjBghunuLXq4SPgRhMkNOTHLKty6GgqoufoYcloohOU1dNeffKZ6+ml/HL8mBbQ/swxS+I+9s+9NW2miOA7BjGHBBFtFBPkpWBfJtkqFv/+Xe0zS3Ns2Yd+8bzbn16TqHxWYxRzOzM7M8jsJp5Nhs5YsIf2+Vn7DdLPuUkPd47250BIOa+wOi1tP8O9HmDv+JTFS5Jc4KB2Nfw7wDVLQ4913md3BmNQf2GYKa28utoTDGr3D4pZibaQyTEaGsoiOJlyasHGR9WfwnZJ8EZS9f3/R2SDRPoRCJiJ8kbNvwc4uhcNyy0ymXjNRG0SjgyDrbkQWk9Hm3P+TrN3/OL2DL7pVTXqFDWcyqIWhFmTBYbl1WNyLXv36PyfPJVJm+p/5c02fJuOA1i9fnqbz/aVHeYBeTCixuyd/4mGoaSw4LMdMxYrNVfWZIasuSGKd+kdsfBP3PKLx47NvL7+VOXT69fKt58CyvaWU+87wjiMc1sgdlmDy8VtMyBuvt5w76Us20p3DvbV+jm02Js3W6/W3XfdX95VC1DMFtNMyWMLnVOmr3of5jQKH5RqetVmRSNKMFQPMBILVu0yKTtwRhGM834Vu8byZh1K2WGcZg/XDeFEXHNbYHRZ3RtTbCkROjImoEqt3A9Dzz0dIYdliYWWL8KxS4RVmFgsOy7linQRXnVgvwpKI2Pp7OX6SbEEQJaNBoUzl1Nr0piMc1gM4LF4Z+/JJUG4ZOXor+tdP8M+tXkKvhEGhUr37XuabTFEE1yG+SXBY7t0+f855xBURc/eQ6DTVnj2LKzdT4/t/f7C8KMu0+1PkLCzFMp0hV9x7PAeZdofDcs+cq7MbR5kfEsWEvTYk45P1ulQDsCKt23fq2z/qNAtn9zKWzzidpYayq85eDjKJBYflHl5FwRP3gGijmR9RTNgr/uQP3FoG0fiRpW17aX+nU606zUMxfzNZR3SWa6RR7viBw4LDusHTpNPU3AL1jQl7WCzBHmQAESEVdd1+zbEIJFrdyinWXnJDV1mwtgEqFhyWBzY8xXI3kUUUE/Z4/wVlqf7L3PO6vitYbX0MxGXFP2RSTbJRrHI1aoj9hHBYHr46hcHYHQzfQKLa0d8mdCm+wJgfEJ586xWlPL26SVYZyK2yM9FB+CFYZwulXXBYD+Cw4uVSR682xp2e6Bl1QzdBo+LKs2Cx1wtfr9q6TQPJvi/4YeFeeg4MqU+tgcOCw5L6QN95SZHpy4iEz6m1myeaGG/s2EPtcPDCVatfmhVIkQPt7kvWeafQtKghWAEOxYLD8vK1qSVYxu8eYdpdLygUlDR4PqOecoG7+tgwrIPZLrwjWfsuGlS4J9QFKw4x6Q6H5eMWnGsIlvmtNf5R1NpNypul/eGA+hRSenUTrGAUq/uG+5R/Ou8sbqxJAAALl0lEQVSUh4IyW6ccwmGN3WFNVhqCZeEVxeJcmnqtqmhwjddZo8Rk1OpDsoIpfe+0abbe7W+nNZ/P+/1uN9MZYHNWrHQPUrDgsHywVderObl++/VqKZ5FIhj5XHhWSwvWrbwhoKldvxSqz12g1p4Y5kkUcFh+2CgLlpWtta3EdqVaT+FC9Ignn5lcOiroVUc6GRNrNcFiQQoWHJYXImXBsrO1JrFfqbQ7KdQrvzUNqZpetW0xprESNPxWQjgsT8SqlVgbf9exnJp5f02e+qNHrqpXbctGJFhqc0zDPJsQDssTqqVYdjI/RFLpf9l5ySvTAabpgFBZr9p0TBZroRATnuMwB/jBYflBsT3H2rmj8UnK38kEpHEis3Xg8WNQqOtVe8lHJFgqFmsX6CEUcFieOCkJlr35BlNDOX+KZF6RT4M1eb1oKNZxTIK1lR+xhZOf4bBUwycnxZYkuWE5549YWGw8ZuLkyFod6jFZLNoNufEZDsvnrTNT0auTxQtZyOb/51O6lwmLJFXPaxdhqiVYbTkmwYr3sluEcFhwWFrOxn4twJN0Im2ZRJ9zaXGUyIa3Xg/3Ynp6VdejOjBDLijcB3v9cFjemCoIllVnEit1Nm6S6fMsjm++ajZ7niYb+QKNudePftFqKlY+LsWS0attuII1Voe1SexgTggVSrE2dvfWFIdHLN/dlkY3pNdxJZoRoZGYkIixPM+Z/6ouInG9+zngb/vROqyfljCX/Sb5Uqyp5Xt49dMFT16dCl1qTcF67RuLZofDtaPpfqtDmTHPiiWqxtrHk4AFa6wOawCCJV2KtbR9B9HGwcpt/OoV0zVYvUb5ESurTqpuWvVBcz141ixu5v28p5BD4LE6LFssDQoWyeaqrR8yQ9uT/ZWb+RWsotZWLP3ChuzQXH8Xq39Fq2Q+V4NT3XDeTYIGDsubw5LfnnNwyMzz0vrC+f3epqx1Llj5ofpKrd4pPbosou2PQdW3w2EF4LCkk90u+oUpsrxwvg+e0M+562bdWdk0zX3BulaZ1/WY7fef3RWj4AULDsufw5rMpXyNk2Q1PVldtsT7B0FfsLTO/CJ2uAqoDp5N5/rH/vcJ8Qui8As44LA8Oiy5Uiw3JWVEicVl2/j/JBz1HZbOGL+sEunVtWkOvsscaLbY3Vgv2GQY1WZwWD4dVixVbukqr7GxlsfaxP6/u/UFq0519Kq5ihWrqgJpVKTB1MbCYXl0WFKuZjl1dtfaWtB5CKOVnIaE5VWOxnMia3jAYfl0WFKpbnefdkseKwi9IodJd8qusoLVVAwiBIc1lByWxPi85cZlYJBYiQeDuNNLfcFSHeyeX6VprlUMFYLDGojDkpmU7PLYUbKwV5jEYSRI3AkWq64KiuV7rxAOCw5LAWEp1tLx7Tw1HBUmoeRznVW6i+sZ/q56hwzBYQ3FYQlfxJPrD/zCZJfOchrMbjnTFqxaLWgrr4qChcQ7HNZgHJZwUILrSR9Esbl1nQc0p4S0BeuopLl506gq1gE6BIc1FIc1C6II60/JMjVtJgkqn5y6KcM6qOpVBywWHNZAHJbo0PqVl7tiYWJpT1FY5YiZkxSWusG6NekQEu9wWMNwWIJD6z3NqqX+ufcktIM43cx0P1x1gMWCwxqKw+JNSnZZhPXX4m57lWQt5wFO2XVxag67NjqCVUGJ4LAG4rC4pViRtxuDaKFf9z7vrju8IMfFuYSllsFqqhxSBIc1DIfFW5Ol30+9ZiprHgWakXFw8nPVaDmsK2qx4LCG4rA4h9Z7niJFk1mi7LI24Y5VymwbLGJ6etU0iAnhsIbisDhVBL4TQZ30xFOVZZ4/bUMeVaJhsZRqGuS7nj8pFnqg4bCG4rBm9xfE/2e/06zZai6pVgsKewxcru6w1ITkcNVVLOwTyhHP3th++rlhvu6P7j3d2zMqPtivq/z60Wz83LDwgaS7ryGMe6RToThK+KJ1SqLZAIqJlDugMyIngoUklvzdON5nwwsw+LJp+zxNvhhCv5wnq+ctDWEeeGcXFeeOpkqvikhbryq05wBgQa3j2SKKptPV02o6jaLFmwt/CwQHIeXE/lFpKTwqZpaYtmBdIVgAWEpqvWeqaDIMW/VXGqtWqHFXzYRn+oLV4M4CAHwWldpOyejbY1cNBAsA4N5j1ep6NckafYuF9mcAwBcxbV7XFvJX7w5LX7BQiAUA+AomsVeYMg3L08NhISQEANwxWamg5P1SakVoub7DQm8OAOBrveqk5ZUbDmoOT0BZAwDAimhl9b1U1rHQflAIFgDAjmTlX6WyLmmuv19H2q05FVpzAAD8yJAVxz9sVl0WrFfJ/kE7iYXmZwCAWLVYXpRl2v3Jcta7v0h7m7DBgfUAAAnF+ug1MtFnxJDCAgDYjQwNopnEwnH1AAD3aLY/Y+AoAMC9W2N6M90REQIAPKC3T4g9QgCAB7QsFgwWAMCTxWpgsAAAA7FYqjFhgwwWAI8jEHmRFWVR5CyQEXgZtggBAF+Rl69t/V9jTR6AZpFyLVaGYaMAPIC3Kv/5Y+JC9886DcBnKbZAo2YUgNFDVNZ3RoV6vzSVNFZzgL8CYPQUd8dZtaXnw8eIFGa7H5DAAmD0/irlDQx99S4CslMbmgp6BcDYYa8X0yd0GSaXq8Y6sAkiQgDGTV5fBEcK1oXva2QymfcSagXA6P1VLTxY0L/HIibuKixhrwAYOURH8UGonaT5Tw7xU+/NIcebCcDoBSuVO2nef+Z9wsr7iawK/YMAPACFlF61lzaEgkxWVl92D1aobgfgIQyWOB78IIjmQso+jW+oSgSDADyGXmXygpWGctF5Wb6rVlUdygyVVwA8CkxarjrCMTI3r0fvjo8I0SAAD2KwCgW9uqRBXTrePQAejWOrAqIvAIA/l8KU9KpFchsA4I9CTbBSrBgAYCARYX1B4ggA4I26bpHEAgAMglhRr5DEAgB4QzHn3rZo2AMA+CJXFawCawYA8CVYqiFhgaw7AMAPhJAQADAYGEJCAMBQHBYp6lWNXUIAgDdqxUIs1GEBALxRquhVp25YMQCAN9TqGuoSKwYA8IbS/D6ksAAAXkmVBAvrBQDwSIaIEAAwGF4v8oIVY7kAAD7JUTUKABgMR9m8e40iLACAX0h2o7BGHyEAwLtiSc51R8YdABAApdT5ExgsAwAIgVS8U3hkECwAQAhBIYnKRy+v0CsAQCiSlYniQegVACAYj8Udloz9QQBAUJLF7qbej/lkIP6K8qwsD8eyLDPUjAEwbpPF0jtyNZSw9lA1zbWput/ur0OJ0RIAjFmxKC//6iysy5yGkb5inVp1UnWjuf00HdX/27ublYahIAygLrMouEh2d1Oyug4Ief+ns7UqCGozIMxNOecRUvrxzf1JZitv8NCW+fm2mvXy+nzpKEeJq3Ncy9UtsD7cIssvCo/etU4XByon09rje1h9JVY05zHg8cfDp+P8z6f2U1x9TodKFjDQONj7L3H1EVouQQKDWHr8mVdb9LOnBIzRr+7k1XUtS8cC6k3X9avtbmBZxwIG0Pq2R3eIFKg23+9Xt5LVHG4AiifCti+vLgyFQG1ezXvjaouuYgGVTn3bn1h2CoFKcyKvonteQKGWaVhhoxAoM02JvHJ6FKidCGPLJFbzxICyhrVuOd6aDJRpycByFAsoE7m8CoEFlI2EyYK1WXUHqpySeWWbEKgLrNCwACMhwD8HVrZh+UohUBZYzS4hcBSZq4TvB0c1LKDKnMsrb8QC6iTPNbhLCFTOhKklLK+XAQqtEZmJ0EgIFM6EkXinu4kQqK1YiYnQy2WAg1QsFwmB8oq1dxXLmQag2t7T7uFaDjDAUBjuPQMHqVhL7PhgTtOvgBHsuKDT7BACgyRW3Pu+l7wCRrH0PxeyVvMgMI5Tsz8IHGcs/KVkxdk4CIxmmvtPu4PiChgzstbvmdXWS1yZB4ExI+tpWc+t9+itrbNyBYN7AxNT1d6crjIUAAAAAElFTkSuQmCC;" vertex="1" parent="1">
          <mxGeometry x="388" y="300" width="203.47" height="69.52" as="geometry" />
        </mxCell>
        <mxCell id="Je1Hd4dE8nQYAFv2ral5-6" value="Promed WS&#xa;Laravel" style="shape=image;verticalLabelPosition=bottom;labelBackgroundColor=default;verticalAlign=top;aspect=fixed;imageAspect=0;image=data:image/png,iVBORw0KGgoAAAANSUhEUgAAAO4AAADuCAYAAAA+7jsiAAAAAXNSR0IArs4c6QAAADhlWElmTU0AKgAAAAgAAYdpAAQAAAABAAAAGgAAAAAAAqACAAQAAAABAAAA7qADAAQAAAABAAAA7gAAAAB/hUD5AABAAElEQVR4Aey9CZRV13mo+e9zb00Us0BoQFBAiUJCwiDELAk0Sx7i2HLseEjsJHZW0slavdL9kqzVb6Vfv7xO563X3et1v9fpvHQ6ifMcx47bViw7tmRrsEYGIYSmEoMKKBAgISQxF1TVvWf39+9z9rnn3roFVFHDvejsqnP3vM////v/z57/baRGjRXJSZs0yNSlzZI71iJBE0+IO2wVm5slJneN2OJsseY6CeRawmaLhFfjn4LfYB8DtV+I7f+m9Jx6yrx25EyNopqBlVFgyBQwQ85xCRkQxoDsRpZjn2gPZEpPTvryTTIpN1kKDVOlwUyXQvEKMcE0nivEygyemWLsDHJdiTBi22kUMYFy8q4sQ6n8a7GJUacLsyGubgnt/y5vn/6mOXy4J0mTOTIK1DEFUtw+dCyQDZ9f7UggP2jLybVNDdJvGqXI0yTYvY0I4iRaySuRqCvFmKtIPgv3LATsCvISJxMJozW12NKKuwkb4bQq7Fp6LIz+lS7UB8YJfJi3VXptkXe/ImH4J7J592PkdiLtU2R2RoF6pEClFAzAAS4PZANPd1teJp/NSUNrXnKNeSmebZTAtkg+3yph0Co5OwGBnChFbS1NJJxWrkbgrhIb8gTTKVwFMU9YLnKbPIJKx9YoHCmZSoMVy5kGOSeOxE3YBY0ll+nhPd+R3uL/YLZ3Hb1glixBRoEap4B2NxNj29ubpKVvgjQHTdLQ0kRj1eKE8mz/ZLk6N0Us3VkTTEWApki+eZqEdGWFFjNHdzbq1hKf6sZqyU7YaDS9LDoZjV+pcepPBDFO5NO6/GlPnE8tH+zKr/BrnA93L+CjEpg10hisIPhRopNYLSozGQXqjQJOcJ3ATs/dLDmzkEbxGpCg+2qnI6TTEcopIg2TCJvI+HISLI8tOsak+2u05YzEoExYXGj5z4XiNbWmUaNi5d0+nw9TO+1OPJpxMMPXwco84F0ry+e/INv2nhgsZRaeUaAeKJBHBhplZv4hBOWrANzBMwEmb0RyGnA30sVU4fRihNP7CPJCpWEqTGrKU0Zh+uvjSyEll49TO53fh5dSRq50msq4MqBSkYZuvZh10tDwKMVupIjBSk9lypwZBWqTAoGsXLiKluhPAe8enjk8M3loZele6ni0TJRUYrzUwPfK+t6L84ImnfZ8YqPpqsVXC/OC6uN0lrmq0T65XUrytdLRoRNgmckoULcUCKQh+DKt6jww0NnbSLSiX7wIgQqCe+JYH+flw9tEO1Pp9+GaT+Mq4315mi7tVn/aDBqXKjDlTGd17ihuMktKq2Rq8boB8VlARoE6ogCzunI3AqNCGxnP/ImgxA4N92HO9h7CfZ64iMRKkpDApdEAnziO1EnfxCQZSu+Kom2UjcTGFEke8rEJcRcIP0fi45T7Hv4z+FcAJ2u9KZMUawIwvYWZ75vtYukyndKXSpU5MwrUDQW0K6zd43JTYvTycO+zmiAtcHiTPD5RFTudxru1GO/2Waz0E3aWV5yltVdh7MF/ik4Bu6HsEZ7DuN9hmek9BPF9/KfYuMGST74geft7tKq/T1HVP0ZWZjPpdptMXvi8yO5D/pWZnVGgnigQrammZbBSiDw2ZeGpDCmnT1pmO8Ekc5I/cdB60uIZcxLBPI77A+zoMQijDXlUKOUo7ev7bKA4JmH/KbY99klT2Csne/ukOKNfOjsLlKg7pJyxq9q/I7n8b5BXN3WUf18iWHXSbS3lX4/3XZJoC56ZjAJ1RQHtKp+AwafT9QTwRKhKzqQrm4obGooUbLRLepx3HKI13C8m3I9/P+J2GAE6xhrrCbYlnpJieFr6Pzglx6eekyu6i4ielad5EEzernaFofGtNKe7XpYpHS/yzrvLohT8BEWziGWvW1ka2p4tDZVRKfPUCQW0q7wXJmfNFpcXDZ2A9cZNxhLhmd5F8ROGOsbUFvMcAsk40/a6MaYILWN4gE3/ewjbg3sPeQ/RUr4vR7r62MwYSqdrIVUYk5bSvy6yGbJ2l4dcrE/HrXZd8Ne8ex1Ps8PL4+Nt0aUheVCC4FHsbE33YombpasZCtDimlcRvFtg8NSYMJZgL6wRuEwImV30LBFIPXkTfEi+d3kYaxYP01q+w97kI7K96zgC2T+uGIanHme/SBc4LQYO3XyBSeGkYYEskYbcMrtcdptt4wzvuBIre3k9UoA9x+FLkgu+igDqYbjIxDweeXwgE0QifyVn+38op04ck64PTw/eYsbljJNlNh380K7u+AmvvwEZjXZ3JcjFQIUMD0TulL45pDvAhygzGQXqhwIBY8zNNEZnHcgqsGVCG/t9mE4Ybd930HR9eLJWhTZF+h/TdX8v5cepH6HkQ6Q9jPUyoWE+6CWB5ekzX0aB2qRAID1vvcl+5N2wbiSenrcTVla2do9uhfyYtLfruLj2zan8qwD5ArAzFsflHo9L7NelsFzDp8CJLZ6ZyShQPxQI3CYEa5+hqR04UeQZPsInQMDXyATLdsg6MJ2d55gY+xmQnh4UWsN+bGsf5EiFbvPMTEaBuqFANCFVKD7FxJNucriQWSQteZ3wqQdTlKJ9Cbx2AGzUm6gGtTE3oHnjjmpRWVhGgVqlQCS4/cF2+pJvDw4kEq1LKcZMY831vsHT1U4M0FrJnz3AmvGTQBVvbazyZdJjisXcF21bW3PtQJ9BklHg/BSIBPdY74csqW4i6cDusstPg6UbMSydZZH77NK2qecvtkZi+w6eQvPGs8B9IIKoSsNrXD9jncxqvLVGoM7AyChwQQpEgtvdXSClCu6ZKIe2THHr5KwUw1u7QJpyy6J0tf3r1meLdjcfHXZSVesuK148xk6WIPfl2sYmgy6jQIkCkeDqft2w8Apd4bdL7A1Dx3ydhKnfmEnsBf5cqYgadxVPHeEb9BRQHivDJ42b5dSQsQ/Z5fPn1Dg2GXgZBRwFnODSqFopNOq+4Zdh8lhiiY8bXTe+dULrwlj7NffapUvro7u87bCeMHodyF93+ChOHq8kwDlmSGPDZ0HTf8xImJmMArVJgRKTnnv/FCPcrYAJo/PrHn78/l7H7O6HMDtbJpxbWZsolUMFxFZ6ZR+hrOnSs4hRSFKpP5p4Y7QbfF5WtWfaMRLiZI5apUBJcDuPnuWEDrPLTOToeVt/HsefDvICrJxvgmbif6VWkRoA17bdTL4VNyLC+7U/MdAQ6Cbf7M0gd+/A+Cwko0BtUSARXMSxyGkZXRJ6BSbmrKxyeIrLnQDrpDOPnqQN7H325jnlmiZqC7cEGv0MSZjr5IO0zeGWxHgcYzyNcJoo+IJdMqs1SZI5MgrUIAUSwXWw9fcxgWNeZpSn6mAI0tY1skqwaxiMrmd4WxtvL4XXuKt/5yHWdLcBN5o03KcHHCqQU42WRm5FG61qu8xMRoGapUC54MreHnYb7UB4UekSt0a+UVIUnMqaGJcQ1a1B7gF0N9XFPl+3NBRaWlzZ6Vpdj5cfCji03GB3huSD+zjup5oyMpNRoCYpUCa4jrkLnLe14RswuLJ2LL84PYNHoRrBYYPgDmmezz1AdWJ6Qw4eGJ2A640gjpFJf5BULW0Q3C35G9rqBKsMzI8gBcoE1+E/ofddBFKXhWBu31X2NoyuvUvld8Pap7VXSWNuXRxa++Tb3qW6q7YAPN1mHccrHvGj0Du3runKQobFt4FXfJZXIzOTUaB2KDBQcM8eOM1YUDfmH44k9DzAGlWantsga2bXxT5f5FIn3V7ieRMp1d1iFUa/SIit3iBo5HZZ0ZadGqqgUOatDQoMEFzXXe4Pu1gaYizo/mL5VbZ3rJ+CnGs0Lbfdho1cKl0n5t3+fcwxvwjcOhEHhuDkTYIfOqmMLONWwmV105vwOGT2R4ICAwTXYW163mZmWXcbFWDgqAsZRbjfJMCSKpBrxORvqRcGN93dKLeTjeDQTcur61sDjQ4DTDCHse5tsm5GtiFjIIWykHGmQHXBLR46yQaLncD2gYPP9SBVNOFzt76roep3TRQ3+QUrZPHM+ln77Cu+AQJvgCPLXilT9pFyymFvETttQSpF5swoUBMUqCq4rrtcDDuZgFJNiQio52hslVX1+qbYmKhb2TKjTUPrwmzv+oDu8uNsImEizk+XV0LuLuC+mY0bt2dLQ5W0yfzjTYGqguuA6unRZSE9Eld0rWsa0jSva3fZSBuruXUzHuS7g6rZni38omuLu4hcjwIE1fZP9GWaAXarpKl9Thr9zJ1RYLwpMLjgdh5EZSlqX4zqUE4Z19qm/Mrg1l4Bxy+V5dMml8XUsufMRJaE3Bnk8u5yOcyNeJdyGJ89zJnJKFA7FBhUcJFPS4v0Gs8BwPVtUtxDrpBeg/oXYQ9V0/Trage180NiOjv76FH8nFQf6KeHJ8Yttl12h+c8xvCr7LoOxvKZyShQGxQYVHAdeOG517C5vcBdZxmJr+tKejnG1m6zRem4ZdNC2HArvvOXWRt4R1D0nGSCKnwO2At8oGJc1PYPA3orel3J7eC5CDszGQVqggLnF7Kt3e8x88reZXsSaJWdK4xvpjTYzODnJrl5zpSKRDXrNa8dOcNn5ie0tpFCeNfsDgAXJO1N4HeTXbxYu86ZySgw7hQ4r+DCsSEzr9vh53fcMpDK6WBGd1EZe6NMbGwbLElNhp/p0RY3nj0HQv8tKre5yV7WyZSeq2sShwyojxwFziu4jhrnDBsxuHVPDJdN+z5kik6ewdmxQOvVgXVTXXWXXz2oF5c9DEbVN2M4VFkPM2a9FBsWg1t93OSQqqLMeflR4MKCu30Huqh0by8aIN2JoVSz6+XY2YwHQzOL5yZZ2lY3s8tgU5R+8yPw4/ZBfsuXutIDhLnspFolKxfVzVDg8mPXDCNPgQsKLozdD2uretPyC7SUycsMKY27j5brK/PXlkXVuudEgfXqkKs5Y+MEWD9Q+mCcX8/n2rvpeLThvSDdoozZb0aB0aHAxTGgZVnISjf8Gp+oUSGtApBTc2pu5IB9ez0xt+nq6uVQxd+BE2u6adzAQvEsPTezL3ulLJmlM82ZySgwbhS4OME9thuNGHrowMazrzG8JYb2zM1Y0M7iFOvN9TS77LA5dPZ58FMVrvGabiy05VUzibHuvdI0ZVZ5cObLKDC2FLgowWXHMofq3W0AxxkDwtH8uycNbBxmncqX5TKxua6Y2xw8eBa1PTpJVYhQU3wGGD5VdiUd5UXZ/uUBtMkCxpACFyW4Dp6wn5sO7AGa1pijtblNG9/8ujaLe3hMGwkvvvx0UePlNvYRBJODB2pS+MXfpDj4SsmZ+7nJPjvu5wiS/YwHBS5esLbsRd+yW9Pl0EGKqT3UyVIRSyeBuZpWa3k9zS47NMzZblDTDRngmDLJN0nDTJ7u8gMyuSU77pciUeYcWwpctODCu71sbXyOBle7zQOhTAfprX6BWSOtLA/Vk9l0sE8K9ses6J4uBzvd5LptkHOJv7M8TebLKDB2FLhowXUg9RVflmJwpDp4qWZJ+dzQ4trgWpxDe0f1wsckFAyK0nf2FXaL6UH7lPG4eZtDjKH5ZXvNNejcykxGgbGnwNCE6lwXKm24R1cFU43a1R6NC+UqNhmtqbu7eJqt3ur3I4YFLA2BnMdPcXLzchrgxgofkznT7lZPZjIKjDUFhiS4ppOb3Y15gu6y417Hvr4RSmyidLyrjw3WSRjo4YP6MZsOMiQoqgrXboYGMZ5qKU4gqY8aI7S2xS8RmqlwjSiS/Y4hBYYkuA4uW3geho67yxFfu5bINU2aAsZW9TZqG3sLbD2fVHWzvxeouWdI0P4hjOfjSSrFxz2gFaOMrXfZo5q2fYlinZnLlwJUeaA8bNvbm9xTA/w8dIFq7DokvR0qvJ8rqyrP0OlAKzNh7rUoktssnUcrJnzSCWvMHZz7QGzzM1zW8Akgu2YAdB5XY8Gv8fN4X3UCPyBhFlCPFKA+A3SFN8nZfJM05Scyn4EKI3slE65XSJEO1orrD9mgsEu27Ds6XvXOe4du7OqFX+UU0N+SE31T2hp5TiZES0x58T0lpvc3zcZ9+3HXhQF8I6s6buZQwb8HmfsButQzqcTPSKf09z9otu55uy6Qy4CsSgHbLk0y/dqJYlunSC6PIvziXLiAJ5gHf1+Pu52MzNuoQQOqtd+Tvr5vy7a9B2GJ85wsi3KM9O/QW1yFIDTP0vlV1a0gqGxewc3qTQyH0G2DIr0/CapxB+CzP8xdfLaZCrsdcMs3W5ThJ9dJPn8vafRDlpk6oYD7OC+/pkWammbq6oeY3BwYeUH0hHOxOShjroQTpsDffLjJ4YxWvl1C2HRpauyTldd+U148pLIwpmZ4gnsmf0gmF58D0s9G0Hqk8DmmjjlbW2JD98LYu3A9RWgq4ZjiOfSXvbjzhKxt38zc0y6GBbeAl+5iLjeuDpmkMuZX7fL5PzDb9p4oT5D5aoECVFtOFi9ukcbeFmkOUGwYzAWuNk6E0Zqa+dTfPHh0FvU7CT8HSGwDtR0Ja7pR0nmOaL5S47i9w/43YiYe4T7lf3baVMYQ2WEJripas6sX/RjkPgOsyr6xSXG2d+pmDAnu5NDBVHn9QLnGSJ+tBm2QKth+rhxtcEcab6ZSB6qtcThyp641S6SxcTVo/KwGUflIgmTb2prl2qbp0s88RI6dfBLSmgYLaFnn04peB9fSogbTIU50naoKpTNaqbhdo4PT2xoXLzKoE4PwIvQ5+9vSMm2HlSPbyTVmXeZhCa4D2/a9IEGjCiLIeyl1MdGPp0Pk65CmlhtxvpBKUfvOo8WjcnWey7DtJ6mk66oD7D7JaIC0n0bP5S/ckln1hFnoKFIADjTS0TFRphavYxKJVjRAQOn65qWNFvVaBJBlSTONeppISoQOU86jEXQuLMXP1dK4jEmaW7nh47M0THvHsmEavuCePvWOTJ6+BaI8gNzG6KWw9F+nqHsxhfbqAShTX4Lb3d0rV7Vvp6f1BrDrxWbaYS7/Tjk/CgRE1siE9utFujpxZ2aUKYDYNErHjCaZOHma5HMdTCSi/1qvR81pPekkkur6VpW6LXFvKWZOFbgUn3r5SwUl7ZCrW5IPMGRK4txNHl+QCQ1PEPoMwWPS6g5fcJuPslFh+mMgcDdYNEa0AHRHCMUqwUzdOibg9vrZ/9F0HvxwAB1qNAAMrM3l3pKi2cI3euAkVQluRZZJKnMP6O/G01+KylwjQQHo2iBLFkyTFtUmSgsa5BfTE2IN3TDjS3fYCq2poTWNx6d6w0ZktG5ik3KeJyjiZRI4Xq6S1Ydrceo20iZBw9dl+TWvy7bD78c5RtUavuBu49zqrbnnpJEtgsLA3huPjPPjUX/02yGTJtyC+wkXUi8/L+w6LWs6dCfVfkBe7MCOcCphYFx3eTLjp/WyYsHDki0NlWhzCS43Tp3RNJcPIkKKIkLhUYWElo+kpcsrQk8HQXXjTX7TvTy8Tqq0riLhciF0n+OAyDvg11WlhnrpHJDC83TJVr3ixnxcGif/C9dKf6dKjhEPGrbggr61jb2H+BC+AlS61klIiqMr8bbCbX5oj6gzwXV4hn3bJWjaDew38PgveVRxCZ5cEmZlEd22W0nzNk9mhkkBSJqXNQtW0u39IgIBPS0TSbSo1jThDqBztH9Aa0Dpr49nPVcf/KjfubHVuL0GrjYHxmm8T5+ejPL5fdmaLm18vIbpspHI1+3Ncx4zYzAJW2LCNEAX6+49e5oe/c8hKNd5kMkjqHbAT/rJBUrsB+3Kaxl71JcxW/axxdM+C7tgx+ygOOrX2T3OzZRHQEuQu4chgc5WZmYYFHBXvaxd9LtiGr4NPX8XAq+CkZgFDibCTw3sfefIKIzlejkx/ZXPkrpIudPhypz8u8+upk3zprpdfByu8bpP3XCU1VDnTuea/Rt4/Wu854943iCcM9upfAqPkfXS2vQVREEjRtUMu8V1UG073CsrJmxjA4LOLus6WGTUdl+42O8ta68W00pFyE99UN3YRWGbp/0c8M6KmAaX4uhxVkSsbaW79jGZ1KQt8wsalJkhUoABGNsLv0KuuQiPSlBUgKezioRO/6jtw5zNTxKmjlS8D/fpk4xRMq04XCH5uYrG9BD9NkE76KK/iXhuF3tqu2w5dJhiQrtkSau09PfwAfgjvLrSEE1Y6svdOfTgN+ktPCqb9nT50kfDviTBBdSi7S/sR3B3AfeVQE7XRankTUIp/w2axNfybkIfdWj6ZPVgF0+9KUErCvNyS8FTz+GCQvQf8QFYaRVaWUCru9qumf2y2YQeq8wMkQJhG80ha64qtPwrcdVKDH5nfKD6vTuO8lY6OHI7zeBEa2uqGdEvpsc3DRtnbBch2wjj5o5wjwTFbnlhzwdko2UtGfPaa2fsqht+zgdaJytZH47XgTWJvsMwWVbM/ZrdIP/OPE35o2QuSXAdTLngGIg+D8S0pIxB0sSqBNqApAWlVfOuZIO2djvrxphth3vsmoVUmNxJBV8P4CVMnYsfNz5ip1hg10mh+THSZEtDQ61hY7j2BgpX67FpWUprfSJaa0hsXCUQp/I4QJhVUHU4p13f08SzRdHoDRZ7EbSXkc0X5fTJw9KQO82s8DlKOv+STmFHt5iOH9PdXsHL5vHEL3evbmHDx69I/0ImYXc/R8iomEsXXNnbI2HHq4Cu0+A6iRAZh0oJHxeonRG3YyV/G/4fxCnrx+rr3SyNLZ3g0EZdMVGi+CmTeMvhy3Y5dlLlg+VogtxttmVLQxGBLvLX5vTmDCb39M5lR+AoY0xmaJuQvFRiWlA1Xv0WbqPbK3KS5xiiSJl6xprLzAN3MGSHhHveHU79aB67TH4hLXYrZXN6zOg6vjfwuJmL56tMVL0xWhNVlyy4DolVhq4FF2dZq0fgHPcmlkdHbfc1NOgmzm2AtA9Xq4J08ppzb9t/RNYu3Mhw4HZwmaEYVYXR6hY7vsaNC5/kq8vMe2YumgI21C4r3VWj8wTNCYVVFgcYH+irwRbpZp+ibt6jjvQDoOeqd+N/S3LFA9JbPCRbu98n9aV3YbfveldWt7PtN7eS8tuobw+EdsIR5GA9KorXA/IPB4A9AgGXLLgOhj77DqCywwgFccYO3NOriZTGbhhvaamCFbKs42rZvuuwy18nP9RMaMPwF1TWFwBZZ45zCei+2hyiWnEIrpUbQFsnNTyHJckzxyAUOLOLAywLn4F+t5OiHcpFlE3om+SDptzbLHR9rRwnFRNKtKiG7q81u6XAB0CK79KdPSGbu06T/fzd36TYi3NoeahN/Dk1/XHgmEWuFmw4HLAczCxh2dyv2hVtm83W7ncvrtSLTzUygnv0zDGZPTHuLhttdSMzgF0d9VkWAqkWDtiLfN8nrRu7v2enNE3aRB3dSAW18lBfaejxRCdLdKPASlnH5o0Xdp1Kp8jcg1NA93rbVYVNkmvYAiFnkxKBqGp0d9pryI+q091DY9AlhXP75BgrHF1d/SpYVXONYKDZ3nWUwzbf5f2sNet5XZ2cdS9QjmhmroOGrOnjDJm+NZwu+flAvbR1XF/ywYPnIBMzy3odZxWjvQhFJTLqmgqOG9iUX7119ilr0NZJKr61OvFU2tqmleWfEsx6XcntUgyV+TIzFAqc3rufZZknoOlBskHZCuJGvHSO4Oekt/AfZePub5uNOzdpy6b3QBE96kKboHPs/afhhyfhb11BUEAj43qX7Jm28pDk5s/zwSNlj4jgQig6BwUG//IGrv4U+BGcnu4lW7sVS2TKPJ1Orz/TU9wGjoprbCJOcl+nUhi0NR9DeLPrSjyZLtJ2J6xs30bYiuEXM8G6xMiGKWerSIbqN9pbnM6HUZuFsRPUChzMrvdPIbjfgRfoquufg83DyEQlhx9M/h47e/ZgPYeKEi/OOyKC6151CD1NIV0XN7sM8NrExpbr92si748OHVwnYX45fK6h9WVe26Ot7Y+AnMkQNV5ay7DRby4TWMFd7CXQiazMDIUC2upG55sPQ0caBqWx0hd2UbcJdeLqFrRQ6JBrfM17fcwuhw8znj4bweb5ACk2TlfVJ2VOo174PmK8PnKCq91l1cUToqLGEbmCluUgK1NPB9HlnKgY0S9RxVtHxQsqIRMPT8FHb7uqUNz8U/5GbRXukYbGOSNZaeWvuDx9rtXtKz4DjV+FuIWEvgkfqQRLG2umn7C3zeFk0PgZ0919jg/JPzKLzYSYN3GNG/Zdm+AWsY13y/L5k33spdojJrhQkeXt3n0QGFUv1bouCcU9zBw6yC2WYOJVPqCu7E2dB/hAPRG1tgNwAxUNg7mszAdPvVNXd1tlZkgUmHKAb+ST0PiE64IqTZGH2ChtmRwMVkv/BN0IMb7mhS74Pvyu+8ikIXHwuqXDe9l/PWKt7ogJroP1GLuhbMgXkun5FIVdXHonjGqpdUsptoP9oHXZXYaF+sDx/4FxzjhcFaVqT8DyWCCfk5bW0my7I0j2cyEKmG3b+uWc+We+f6pVsTQsib+JhMO/9gbo+1l3OOFCBY5iPCAV5Ezxb4FHx+VYDkj/Rr1LaxWbcj7FmeKZPvBS7BEVXFbRmOlz9+4cgomddCbAKR5qNNRNJTguZ9bNLJX2dtVUUH/m9An2L4fPJZj6unI2+Lk1PTzWruC4383ZnbrDqOLtu47AL9+HlqegY8RTjnXcj3ZsWHaRNVKg5R1nY17bw8YP+1/ghzPRcDEC14GlB1By9kGZ1HgroaX1/2HCPKKC62BoKO7C3q/cqv8JU6sjhUeEDFr1DGdcZ+XqcnY50uwXKFNFrUElfjGSWKhPyX1SZOEUF5T9XDQF+OwVpdjzIyR0j+OpgTnpMqP3OBeut6vaR2wMOfA1FxlyTh7jQ8KMONyu/JDmCVWtY+0D7NW/5MnKkRfcd/U2P7ODbsxp/RyWTMqtzqgroV+ehUyn3wh+Iw9L6eWj5+oPnwL07jJU029zs6AO97ukKby+bvFM4zTW7hf3H2AIxgcy0AnQKm9nrzD7AlBns2zc6bt913tSMHSZDcPFAUb3tz+InoAldgOTVpdgRl5YuroY+xX1Rj+m8fVzwxNbzu+ElmC1o/jZEP0WtOTVZ2t0+IxuZ/suX1I9QhEbxdnjrrYaVQma/yVm0dkOmZmhUACyFqXQ8E1oyARQ3F12BXjaOsozc0tXdO2CS27NhgJbZVpgLUiujxWHkLG57olOYCSpW+Rtk1zwVSnMv6Q5jxEXXAC3bD3TKXzGuRzRci2ORy/m7NhyeBhV8IVOoabW0skin7we7IPc7heGj4KvXs8ZGxB0qxV4va1r19pNyjfXJ54etXGyzdZOPpCGWdv0AQHPSA6oFmi9gdZMZ24veQx5SWj27oEX7PfhB3Z+eRjVdm5aWnMPH6LVdvHiYe8cHHHBdQiHB95Gfukuix6ritjZw5+mSBQGDHaRNBS1Gzm+BE/DdpFuUOD8aOEtcFWNF27arZS1EmnTQau7vhSfuYZEgZD7egJO+3ieSmdWUhvR/eMbmLkdV/VIbl9yET1lhk067iCE5wNvc3WPMb8uzWeHvRQ6KoLrALd2M0Q86mirolv5eKK7kxSc47WyRBbPrtPucvEkukAeASXdrzoQV4e7+2G3T/CQXdo21aXLfoZGgc0799OS/VeEobdqRqt3PAX3SzOt7iWOIauWP5TArd1H4emHYYaoe+8mauEBZYNoPudObr940F02NpRy47SjIriu7Jy8xNfxMO5o7Bd9EfWryJN8eWI/C+km+JhMaK7L2WVRxenF4EVqhZlPqibBlVryqEa2/q6QCU23YGdmiBSAeGzt6f0e2XZ6xikRmFDdjxfYG+G7u+RE+/juptJx+bnCm0D8CFCxs8rBB4yxw12MLr8hV9wwZ4hkcMlHT3CP7Orm67iDt8Rfx+hTo7Qv61EqHtEX6GbJ5RYQO3owuVeN/I9jqIZTuqf2aUrX42axUeRUeHmSBXk7DU2FD417i+BBrDd7c/cBQGasy2lYZSWlbcRDESa6mwptotIQLCJmfHlpe9eHTFIx/2HfBDiFNjIeZiNLmVv+VSKGPMM8aoiZLj3VEejmBAbqQOom1IBbwXePsjuPjgqdNj+nNWIZ+znrczPGpoMn+VD9AtzQZaS4pfHErUbD0JYHs90tZ66/SX2ZGRoFHMf09jPxw25mNY5/sB1tna3t7g00Ap9iYw9d5/EzwFqU3r43OM30Y+A9HvEEgCqs0QmnRnjmt2TVgo8NFcpRE1wHSNj/EkR8B0ZV8sYGdNwnUqHXR/1qLLOCspwD1NMjf339ggVT/3ThDHqI/IaMBAWPow/ggHhe1/MyMywKnOhitjb8IRv7oy6oK8TzFbZTHWM/walv7cFVEn9Yrxx2ple62WfNfmtjXwGSYgU0ChuXlOV+1y6/Zkh72UdXcI8UUCOiOn9g6hRdy90xafU7aexSvRJx3Ik93FoKQ8b0dhPP6XIcKTDBX7ErspZr7rNLFqDSNjNDpkAX+8TD4HFo+FaSV7uf2hC4bigDyQA1uXnWzRcvbkjSjIODamd5tIBaX3fY/lgCgoNTYQbSIPglyU9alcRdhGNUBTc67sS4L7RnlKZljwKXhOHgCniY+0rQuKVuT9Js6Tol/eFL4MVMovsr4ZggC96hrulyXcmk/AYlQ2aGRgEnDD1ndLYWRWw2mlNwMkA5+oHUGdxQtavYL8u0YtvQSh/51O7C8wJ3J4d2G4AVS0wRA61XgAbmG1yOftGrKqMquI4EYfF5qHnIEdTTxBE39ugsm38st/5ZuVdaJo3rjKAHc6i2YygpwFAGnBnjK57+KTn4xjqE0d5gPj/ULtJQYbps079+4AT0Y+LHvBZ9IiPqu++jIy8E13tyC/I7iIfWwviaD3e9zlXpP5Iwh9ZPbW5V9GLxi64vuVuaG385jrggrKMvuOZsN4DucARNg5OQMv7qRHEayvGn3FU1Qew0vBfr3tr9AWyyjY+RnpCKjNrenZTjroO8SXITlydBmeOiKQCjhKiteYvfn0FvttmmOSYhNsfp0Pm0an77RRc8SgndZG1engJOWl3VTgmMfvemA9egh81+XlYvmnMxIIy64LprOGz4NFDSRUgZBVbF1NPY26HedWpXyprZjAPrz4BSv/T30wqEr/NhLcc5jY5rFbieNCcPgnrd7RhLozJu7km72ciPulzLJocSJ0Xg6My+GoPC8qDhGzVB477d6B/X5aFQLxKLON7zvV4XatizL/aXLub456gLriNesfgsYEa7qGJ6VhVaR2gd/wUPSiF/0f19945a+jl7shtwNsI1H5aBpZWUVJRSwHCnbnAnl0TNK0uXeS6KAuZpOsJBUfWcPUrLSqurxhM4tq1THfN1WX39wih+/H6jHYU9P6XOtzp4VRa8POi2nRAdZUHwOTHtF1wqHBvB7TmxH7BU73LJePomYQS4roOLuBV9tLNxJbGljHXg6jyqWjFeBlI06cf9IcXEY+Nxt3rXK6eGpEEvQhubuqgD8g0JxI17UFJon+HZV0Vo46LY9BLkvm7b2zlWN85m08F3Udb+MPMgtLrKG8oM/tGeV3gDm0d+2S6ZhWqnwc2YMIvpPMrZXL6K6a6jZ+QBtuNuZpe5DW1x6ia0wXGouRgwYAmgjw0CCK/f7uahLMMXjzEzoMudbIwf1+NoHrx6s6FgUfp7WSM1z0JMWt2YwJ7OJYQ+KzMal5a84+Ny8Pad+BlC+zwws6vQrWN5sHVlhYlZ9ls3TVl9PgjHRHAdAEX7NNBF3eU0RPqxcSZF8IDusgnuk8b2+u0uh0xSibCma95Loxfhym+JsZhJD26WpvwtkGLs6iMB5DJw6J1OxjDxI/t46HQqcWPjnO7najZs/JpdPHNcd1M5qLa/+z6rQt+EB95xfgevVj1wWt1Zx86vPK3umsEvSB87RjlzbA/dGS4JjgnqLfX7R8Ocmx/DEL3JzPfJ6s1245li/xa+rF3AXnR46f4xj6u3tbb0SpacrKvb7Z7jXDmwe8gB0s2AwbyC6j2LAfI0jmzdiHGfTJxWC62uleDs80D9c2DV6z/hC36ioaJ+ZVSl03quYV5FaNWJy7ETXDfu42pCZV0HqHPxkzLl4dNpde9Ixdaf80j4NkC/TIWg6KwC/DSu1k6krb2Fcdi8ilSZ92IpsH3HIQSBSVBdhovnFTRvie7opuJeqyD4RC20um61JSx8E/iiVjeNp05UWRotY+7ncrxZ6SjvHjPB1U4AO4aeonU5CliuV3BemyvxSMSFSRe/m8QjVSu22zlmDbOIbgNK6rgfBCijAUMDobucC9aM9FUVtUKL0YYDchYkj8oYE26GtuccgaONGJ7WeuRPle/fLxOmDWl74ajBXujaxsfmmwDY77r3rsusvKGPnYD9gDSb9dUm1cZMcB3yVroRX1qgmBS+1UkCCPdxmsSgurUpP+7T+DG0w7NOfcAWSKsnWeLlCi0mhWTkVDG+ilZ3jcxqvkZTZGYYFHh+L62t28PM7iQ/Y6vlJPSGzna+NJpPjvftBwqVG04JigHc8VeFMf24TzutLoclZhXbiFEeSczYCu6ZHJcOy9Pu7Qkt8ZXBm/KH4WTi7nbp6/THzagbNpiL/dB14dK4ehq4MJune7RUGnKL8VYd19QpCcYMbDhbVbk+x1zKq/BNPHbk9V6Goz7PRFq5ddLbXBvKDF7cpVo9/gaYorF5wh84LDwhcgfXl6ytvKpnbAW3s7NfitwHIxw68Kcj9DtS1qUBYBdHuJtdNnfWc3cZLER6gp+DlGq9hHUUP8IS/D2+bPUJZB5Ir5CVi6a6fNnP0CkQqXKF3jokS9Nbae4eeN60cwrtvlrQwwxIoTSc+A6wsdMugdHDqhOX2gP7tOQntGEnZkwFF7j4DvYe4O3MAMZQVgLrwxMQ0RLQkr+55K0/l3llZzetAGcycz1MuCGpaioQ12GuVY2X4Xq2sl4fpcl+h0oBqFrkA8hl14Y1dMP5V0L0UePcga6VTkVw76Zfc9610ijT6P+a597lI+PuHeLDHsOa8Eegcz13Si7/QLoBG1PBdSQo9nGw2OpNd9Hssi6RpB9la/9ENJvMtIPuLPIYRaH19mvtj8GT6zRA1uHHT6kLBw28n5vuJVjOGp5OpGRmOBTYtPsd6Kz0PgFdoyvolOaO9o7+bC/k9oMwuM+uvHbcNEICktF6tivnzuOjvdzxQ8IfwKv8EfHFJNwPMYxK1PGMveC+doS+PArTRXQ31eDGi6ll83Wga5zXjBuBBwdyCDHdJ7aT+lXqSjVlYBRBj6QLiH60NVB8+xpnpkIz5xAoAFVDlMo9iTDsIJs2CzGpy+jNRozgNraL68aXsgiXfpR+eFfOCeuqebNk5bwlYlq/Jrmmv6Cl/ZSHssqrFT69JP3jsq7DbYUcc8EFAjYj5LshleqdZSEakPRR0NIPXtcyGXaSWL3Vb8oyDapXY44cQZkAe1T1g5XGc6A7R3d6HUcbO6hknZzIzHAo8OL+/TDQ92B25lPiAhyt+YnsgO7yTfDevXLbnFGdU6AeA917bD+28FpZs5CWdcLnJWj8XxDYR4j631hbvg8IddMFsHn4vBs/vXseloeCL0qhqJOXCMV4mLNnj0PU53h1tKMISCq6xymoNDJgk3h4uwKciqg/Z7HwLBVTUrfiMXD4p4hg7VWk28C1LJN8ksweGgVg9VB6zY/gq+gseIq8SUlW9ZzZDdLfrMJAlpE1lJmzy9pnogxumbRM/Yy0BH8AC/8HhPD/4E1f45kL46uuqRxPZNJwqltNFKbwtaEE79d1h934CELjgdNoA3gJiE4PLrAOZAUagLnUSQyXQ9f5Rvytew7zrXoCjKqc09V68Q+HKwzXVLQ21a9Cgbj6xtXS3VQ2/CdHbyWtMwmN1UdvjjmFnFknS9tGZF88MsanoK3Zrpp/vaxu/zgTq7/HxNKf8o5/Q53+DrCwvMOheZpPV92VMCVwuohIaNUZCbFu2/y0NOZvHZeumC482xWqvSCPVkQ0Xug8nwJWCbTzux/WOFH+NZGlEmHGsE4NmBRtsfgwX9xfpxJnJ2g4FFMEUFUmlrNRNne7tLXtQ+E6O4EyM1QKQNaC7Qn/P/jmK+RlSym/fkLQ0Ry/7lAS88vcKrCRGtiodTTU95AvRys4kY0dM+HpxdJnlmlbSzmLeSFzFXRzNY2JT/dr11fh8Cbt1jAHm/6k0vi0YrQ39vXxaXEViAa39ZFWlzljNQ5YdSiw1QB2BNDucqlbocnrzQS9KMd2wwQg97hW4uvCJzAy+qzMMiPSEtQbmUYM3te66OXIX/EUImGJaV0iuX4kl8BVd8rKa4c01tWtiHZlxzxZ1X63NDb8NkxNyyr/M+/6QxiaySazgGcyfm0gVVqxMJWCGgW639JPCUCXT9f9I6Mye/v4Ce575gSooLZSUCQeg5RY4JgIsgukTearZbmmZJBN10nWGne4zeUS/As4nymBqsimEXb4az8E/VuN9Xt3cAnBcXNBSXRT9TIJlLq2ZCC5GeuidSWY0A4rXlAmbMeMSXbl/FtlZvB1BjX/mq7w/wR//rc8D1GPN/EubcVLFZq4Ekc5PVzSQeLKU0Y+a89dEMhq+UYkTO/RVTWmInt5UieGYgTKhFk9uv3LtklLqF2Q+jb23EYwfoOxDnhUw5dgjbPa2prPoq42W9O9lBrfsu89sv8dpO6F7tB1QGHa6rLJJ7i32j3NJA/0RJGOW+2aRV+SadP/PYr7/1eE/Q+po89T4EpKZIeTVS2lFYYADfOPj037ffddw7wpcyd8wj1cVm9E+LtxGeMqbMqWwLsfQF7Dt5QgHXhHRoGO+dkhrF+kqHtxNeO+24h+lJBofc7nqSf7Xa4puYoNGcbcCn6MfWLgfWV5v1IhlE9JQ8tfkGJnPaFYS7A67jnb+wNpbtKxrvJatTmVaKw7sfnnVMNLyl/MN+fl3KLZ8OgistwBE6qALmAxRrWVNJfqLtW6EhGZuDLjYa0Pjfg58UUCXarvVETK6baQaA+Vs92heViK5745boLrwOo/+Z40THqNzskJ/BADZBVfh4jHJiaATtiI1eWRZbJi8ZXiLjp2pdTfj97ud/U8NPE3fgNc5zoEPLoemxINrmP8xHgpE1xPmmHZffvekQkLv0ULeQP5WaVQ44kOj+nAxMhN3Lr4CVk+923b0NDBJNM6hGUVk4lLSOyFVXupyosVfKrlYXyRnpFLY9Mo3v+W6teHxHkTftdX0MJy46Vhi7CxzzJttlFO53aZzu7T4yq4ZtvhHroedJftQaCGMGCTIB7jU+ZHeI3hrpU+ujW0WnVqQIlzH7l9MMlzOCPBdRVdFSFdsuBO3al/bV45frxqiizwghTgirA+uzL4Cf26r0P9G12GhLe0RlxII/2fr0mu+Tb818FrqLthKdLaXJRe+c+/KnH4vBW8G8cnLa4XSM2fvM8XVsrr2icE1uoVtfYHKH3/KfNqb8qRwvusLvSR0/U0x1VwHdT2HILbqN1lHdRXgSdFIEXPhteyq2iFXbz4GdPZ2VfCvM5cua5jUlj0T1SOTmhEY1hF1VV0XMkJSiyDNV91l8hx3XmVmeFSoHjyoDRM/jZC8SfQXLu6ylElwXM+O4ewOZFT41IjskQIBwGgrNq8hxc4Fo5f5IO9nRSlV6mgn0znPgLzfbrDPzZb9h1Joisc4zc55QE5deZ9nDvoCugsc4RkYoNd4o7jdGtYaBfLxN4rfRH1aJunWZ4I+/homa0Rjoooxh33w61fXoc7NAhQ42rkK9l1JRGJhv076TATonYzBN2X8JWjudLdP7HDS4bWQ7TlMJVG02q9+DwVtgsnX1KHxDtTFqZbi9ALjVojw84GY/4z72FJ6fSXzAs7/t/zCa0WVaWFi14xZr+qi2rNVJ1hVa0F0yNsebvSzxn/aYoDjNtx0gHouk3tEKE+gc9QR3agunX1CNpagKYuEqTLcYgwXC/SqkOELeWRmW8wCkA2JahujmBjPhNKPRb1QPJJwuCzC5g0V6Xd6WwXGx6l019dPdEmnKVA1XgabkN0f4bwviR9J/fo0DFd/Pnc4y64Kng2LO5ipk5bHx17pGDyjJyikHO6ceESlkmel9fYvF+vRm/3W7PoeShwANzngUY0hlIcFXWHq6cB+nbz5tP0NbbreK1eUR5tuCGZ4ULrRmk61yqTWmaxZDMXoV2BkNxPDB98emx64swbR2M8CZnjCA33dVAZ55IQeL68cTFY2rLqbqwe3vsB7m4+1Gj/LDwqhZ5OefHQCUqKNiGV8lzQlRKSC6YdvQSnT70jk6Z1gtBdIFbl+N4Ayk2DHEtQGo0GvCN7Rw+w0S1Zq54P8H4YS/cv/yZvi+qjEt3Ib9hgfre0dPy9yC4+cplJUwAZysvi2ZOlCWFtyi0QmXgT/MRBeYvQ6hpriqjahXWGXN4ZhzhLw/Txwuvd6TTq1i5xWnidm8TRTLL6CpTzAWm6cb/OBqIXJezfKIWut3TbL2HDNrUhuJ1He2TVFW+ApA7GqwhuJX6GW9hYW7N2AdTphlSpGYTKtDXuf6fvA7mmidll8zkgjbpwnhkUdGUaNc4O57Efdj3Ru/GmU0VpPoK/9EAapXn+VewwW4TALIUvWKdlycfaeZCIu5mUcpCqjFp4HD1jgqXj0uHq1jh90uHp9HERznLpdcMBWhslPMjw703gQFhpYQt9rMPvfedSBda/riYEF3xDWwg7pUknDTh7axHMwUxCQDNXTP4mbhzfJJ2dpwdLXuvhqsLVzrz+DbQbvAGst/FEp0YqmcUhovte7X2yat4jcp4Zx1rH+VLgU6lwitPyE6ZLkF+Ayhc28rOp33KIwAibJYIpCEtjTMXyV3neUdrqkzZO6AhI070yTdrvy4rK0Bh2ZTHRJNIFPK/A0Vto8V+Ws71vyyvdp0g+5MMLUdHVf2tCcB1o/SfelsZpuix0B37GITHA5QRKY0HrxG0Hk+XHBEKsOjb9/d3oVH6Wcf4tYDFxIFcpbhAihCENG1CkSQX8Bxr6UTG2XZpk4qKrpYmWNGCYZIRdZwahzc2DXnHLyvSv4xt+PP+kCaRhCT+pwyfC7Z3eUbksl8THBUZ+7enp2vp++nyvU8iLCO9LXLO6U7btPZkuNc41YlbtCO5rR87K6inc6Jc7BvKTEgzTBEvTWmcLjdyIHqF5JNlLVP12l/kioxlBbzxgkop7Yzx7pXEvMdRMlg3uRKPCY6aeJ+aSCj6/g7OtU+VcE0ccLapbOCpnmMA03HBoA+Y34r3BCV+UESwqWOPUpKPSQjlYXk2fxLkSSj862WSZFQ7Q4uK6wlzuVmDfvT399lBmhksFDt1VM4ILjUIbBqizsTrOZddK/G30BPcVkOBIgNXZ5fBG9PBslhd2aTelLg2YFG1//5vS0PgK3NIOEtqyRsbjH/k0lFNSslwmTmEG/sjWONVlY4EuauFnN0mxkR1y+TVsO9Qthwiu0Y0ROgfQCo2i/d0qgNFEUCRkngouPPF4R3kaT1+N9WWo29Pbx+tEVrRPXhuGXmB4G1i4aS98XgoFeoiMZT/IHTddXb2afaxMzQiuQzh3+m2UZ7GmG9AFcio9SsRWQipRPUHVY4TTMwF36Ra1u1y3gutwf7f/gMxu2gzb3omfrXb8luFLQMRgjIHtAiY87iP6ZUJHdOzkYBnjH1eTi2e2SusV13AAnZbV3M7WRIYNbG/VtX1LN9nNuCtRoIzSoYw2LlTjyk2SLiams/hxxZQndT4XHkf6NG6uyXmO8s7vMlH8ME3MXpZyPpRth88RMy49vdoS3E0Hz8nahZsg4sd5JpSRNk2ehKh0l4WKLgRzqMd9BGt11qUxBw+etdct2gYGutRDNxAR9szpbH4i7EAT1Sd6Vnf1outk887uukQYoEGH1nXh1biYXMrxAWbcGq3lzyBSexYsuNDkqQD6Otdc/LsfZ+PUOO/WKGd8Ojw+ztneEydzVlyARkWtazpSA9XPuV57SHJnt5otB89WJBhzb00JLuSz1vQ/S4t7DErolsaouqrROiEV3WVjb6J7tUU2jT9BE7CG4yieYiNK68vMjKIJkAk6NWncEwZ1Z5NvJE4nqbo1WT0ZUEJg22lZGx4CwbV0PZkd1tM3IS2raobH6LaFASZNjDjSpUoIQ2DaHafRbOlglycVJ5YN/cFJur+zCaUrHr/bj4Wj9DNYKV7HsXDt3Y37EcuISDEONWG9sG83ZOuEdqUbzJgs1G9v8rg9oHGYMai1RJ1pIV//Kl5ePPQhuDN+kgPgWlJdq7j7TQMRHbiuJJiDArK77ZIlymg1bVRQbfv0yXb19TfYNQt/X9ayWyzIPwOefwxeG4idw4OqHrT2R3Mbeh2L5orq3Ne3swn3fuWLyjAVMh/v3FqOhsW20tWg29rIMZ5thP4p85zr2dyylrH0t3hO82iaKJ97h8uPAr9gpdiWB1UZHCHjamqqxVVKQC46KyE3HQR3QuJpBGiQ+3exWgE6rPBf0SiQblbjLIKORIk1Tf0Zh/u5/peluVE/XAtBkq15MUbaXVSjlsOdOO1pTDjDhgN5QaNqyQBi3u0R1jt/A5awAu0dBHdjzwb+XDQyjHHygJt4PKQtXRKVOEiFm6jEaJT6XZJUOhU6NUk8DmN1Jvgc6TlOabcS+RQf+2dlW+dBUrsX29sW/iO3G9wOBzJzrYWkyoxKnEn+u+RMwy/wMpE4fqbmBNeRogAj5u0xyDltQE2lZwwTuqKHOFf8GHtUd8oYz+6NeNWd2veuNC9SxroLvrmC8ssZyOEcB7nLj/MrWON8yXQx4znOBtBysnhmi7ROYMmqaSWg38GjGyOuR3Cmgk8ssAqoIgIe+kFyOMVBGuXjkggXWP7jxqLkr56GzfyuUP1RFUm6Qec1lg4fRyCfQ/fjLtm2+4NywpLiJLdNtE7ZSMs6H180x1L2Cnd7Hhocc7dzUmv3WC39AMsAU5uCW9z9puQ6tMs8lyeC0VduGQpKVWeYyMhvkKYz/4Jv3Bk4hmlYlgqgnVF8Dub5CgVMB/8ISc9ACcrEWoTBsFxyxQ0/ka4dbw3rhZeQiSox7FxrkOazLRIUrpCggfpqWI8w3kfMAqJ1+KJLWylVMSkEvNPjRjInyNVgcvUfZ1ArdpaSugBLfj2EzrKNHpfT01d0h619RBrOvcjQ4ph5enBVt7oubldN/j6HOe6GuAuibwLlalc78mAZnTi8VxomaC/nZY0ZD1OTgqv7Oe0avcld6Lawk8hVlP5o7cUS7OopJpmOBvWAwoTmq4k9RlScaDxIOgLvPHW8U6Zc8SJYtcN0jGGrYQSKOhI06EHK2VXs2d0/VqeG3P7gxvYp0phjRrh4PerC2CPcsAZ4loM9wur7qkn9RA6tlaTePE4+IK4yNyGkYWWJSzXqerDpOJeWANvHaz9Eyg7gfpPlsq3Q5SnZuKuLFBe/ZHb25EaZOO2nAPB7CKkT2Qh4DycNieECcpu7x67reMuM0/6BmhTciFAFvmh5KgLBdZUZhbpfX69p+TQsoeTMCtnAcsrT7GOpZ6NnlFdP1xNDD4KGdtmidjfm7QS1iA7XQIZbpfG6p0TeZnZ09Izef0NX8jrqYyEfDMbW5mN8WG4Auvm4da11oElgjhk/8aeSprvLLjhOlNRzKm26znk57z0LPOBt9ZDKVu5f3i79hU62HL5D9iGfwHGt7lpaXcl9nrdq61oyHnZjuRKHVjnse5TI10sJxs5Vu4Lb17NLGie9ScWwCE+VOIMVuyI7pqRali5ZEDwgp675nsjhuhZcUEQDZnEjzPMWDHIVuJXqSfFXfEuNWhO0WCUTGjsI1sm5i29dHE0H/6G8gDHrBGmdzqSMuZ4R6k28fCVd0Bux9agchx5cCxTvEa5Slq8vH+Vg9x5s9WtlVqbzSXy4S+cCcVm6wkbVlOrwgA39IQKb2y6FswdHZEP/ieMvy5TpPwGor1F+qdX1sEAAfXG2+QAAMEZJREFUwlmya1iHCqV9qFDSMfSYmhJDjOlrL/wyp0hu1cInJB/cAxsPAmdMycjSiX6m9SfpV3Lfhd9Q4ym2dL3DIfvHgXI5TK2b6Esm7XYsr0cc8yvRCfyKvH5A18Avybi7eYutOuE3h24whxpoXY3qHTbzKFgPQWh9AAUy5GHxduWbNbwkdKX0Pt1g+Xy8t1VRrRHtgR2mPM626nE5xq8ha6ov7h7WYXRfdKVtOo+etqun/y3LUfcD8LWV8fiBmlbXBA/J5OILoPeGBlRJN2pBgwjEqL1vaAUXWRYKdNzCZgzfwnjyVGeIWXz/N5B+39BeVHupQa9ow8IjzGD+FizBZgwI4HDnR3F3RtkFv0WwhcukJrQ8iu+4hsYJLtoiQyDLb5gljUXd2KFXciCwOc64hnN5oU6S5eN3RWUmMJDTzfT7VyYRpNM4TZ4Oi7K7cA322eJgZ/nkGmfo7lqUDdiAAyjyEs/LzIB0ybHw0KjuD363d5tc0/gwuP0+74whivGJeFEbijVAuIFeyT5B2NMojLa7tgW379RuaZzKqQu3iyqiha9U9fmK92GOwOYTkPcfCBry+Ga0iT3k8tGUwOz6JvLR8rF71+HpkY1L80ykFx8LOpXWzH7rYneQQSemWWY3S9jKBJO9jcmcFaxjIqystYouxUkLtI/OB8evc1YZCN7j7TihE7qKsGplDEyiOVU301ng2In9LGBukkL/DibA3pEXd45o65oGKe1256Rntf8jw6+HCGdYoAZgE3hx6KYRsb8ik6Y+YeXoTkIU9jExNS24bqJg5ZTHmHRaCzXYl4xxDBHbLqDCbegur5hznWw9sNdH16sdz67/Ey3dx2EYPRkTGU8D74+YCf1KbA7ob4LROcEyiCFrIEvbJqPidrbkG+iGhxugL2NXo5NcUyhDx8xK69K4VVvUaF00KjV5vw+P7QiOKI13J2kJdm4ifFyoSQlUf6RErQc3miN0mcU+KWHxFbHFQ3IEDaAokSeZljB25vSJN5jd/w5v/QM6PIF7fRqCqCXWc8Efp9V9eyxb3ZoW3LiGnsP+gOfKhHkc8XztV9SjhcHzE+4l9K8qYurT29f3HFdAaq9Du2UYRb4C94iZWKZA836DXI9XtV86sXBZNJceRL9iPtskuThNmH2XgCUNOx+m44NgVVijv6q0jV7gyyrZg4T74DSYacFXyKK4aN2VJTwCXgO1zQjr00w27ZR87/uy+aCevvGllV47Vi6d3V85/bt82L4AGNoLqWLQiZ0zvyoTpjxGq/vmWMFb+4J7Dg2QExt3QzjGudAtXY1R5UfE9OHRLtePQ+b/ag7S3apzY7btPWFXdzzCWJ+dSNoSppGOkSvRZQ6TvGtQ7bKZI2c9Gmtnz26ROa0Ivb0bYWWd1dIt5h5X7QYb1dDvx85xWWkCV3mVT5XYg6Xx4a4rT+U4fxwYWQRy2sbKz/nE/IJ9M6+x9eSATO0+bWpkOQ8wre3r7ZLWxh+CwO/ykdO91AONTtzl8w9yG+5b7LLvG5hg5EOqgTHyb7mEEplub5QphT9iQf1PIVo5vM6nP7HUqhWFnZbe4gqzbfe4n+K4BNSTrHb1ojbw0p7HwK++CobD29FAt/ptl97wK9LUz+i08bNM6nyO+Pnk1fVg/VDHVCS9m1QixBstgg6hJ2dkx/R1dNU4HM7t3hf5Nb+uxarReM0YWy5Mf1weNveH9iTv2E26f0CB2o/k6J6jplvOJelqzOEwWTl/OcrofgDM8dJkGj8Qi9ahd0lY+KzZ0sUS5ugbrabaNp2dVDYaBwJ00qpxDBCDrLwSzao6Xol/NHAi1zo9GJM3Tly/lonO3P4UeYi6v44GDnnFNWKcCD2E0twozcHfc6/VZnb3/BnRy6CZjl11civ16YsJqcV4o0GpYl2wMmWcNPGnu70a54VWE5TSk9ElZJLQfEC5LyG0f4n9RTl97B6zacdfmK173q5loXXoKEVyLXsR2n/Gz4m1FD3SuBtZyD25XyaWXszom5oXXGijzNoN+XYkDOQJ5oiohIyJqeHehLm7paODNcfLxjwMnmfKaVAVN46cMYaNhBVn1TRRoKNjlXgf7vNCXme839vprD6PMjoq7nmvwrqXDy7dzOK/kWLf78rB039stuz8ed3pytrUeUJMgQMKdj8oR9Qo4etpo5N5n5flCxmKjL6p/TGu0sAWPuRr9gIMwUFmt2slYshKhnLdNM2gVEUzxlSZhwO9QJeBOXOqU1on6Zr2JMc6vousqCm6lcbRxhMoFalBPn3arUm839s+LG1HtNWQyLhGVb+cumNL9wvLSdwHaV2fppv+M8mFb8rR8APTtbc3zlF3FuQq2t7i69KYfxLhZR6B7Z3pXodi5Ghm2tgw9EX2cv/ZaO8brw/BbenqkXMLn2Wnym9DonhZxHNfTDSsklEqolHBOOXhuqsl6mKWEtSNC0zic63ooXLXPYKNou5QjNFwTKNuHMnHy6eJE6tVzaTL0YIrGdLncZNM6onf4WTVeXp553HCUaImb8LYzzIz/HPGegd91svC3rb3sKxc9BNmkG8D18XgFFMUy9NWd/gZ8yWZspBTars5mjl6pj4E92m+5stlHwsab0CKOxJyeIIlAWUOcGNTweLZ35bOg9pS1ZWxi2dOlImTrkZur2cyZwnMcRtMMVNFxZmquKeYKEmk36w4cZJHC6lMqxl84eqOTZJH/XG8cdKtwnqAcjop6kUU9m2XYz2dZuehaC7C579MbMhQsKbwCkr4nwLfNkgRD8OgSZpGAesZ1ujNip2jeV63LgQXutDWnDnKxCgTLmgoSGsnSGY5KzhED21bWcTFTzrm2FIRW3Neqj+QDW2NciY3UxoQ1pCuvjuErkq/LftlWW9NHzbwGKgspRnHhzu7IlK9+miGwfJouEuj6RLDemuoXwCWOrjDNbQ637CNz+lWesc75NyZQ3U3bk1QG4Kj0HWEnWxPkWM9zxJoEREy3UtRpfVi7kF32A9I8+wQSh9S0roQXIfRmUOnZNL1eq2DngrR7Xgl5hvIaC4a5qJ7adYSvRUKK+PVlAGu6DqNluYZaKqcL3151gMRWN0r7LQwMDseqa9RcdKnmlCVwjRFQgt1RFk0W9rp/BXRVcN046Fx65I6K7wfN1ok2NxftAhtoZujc2d4Q8Hl/Qj8uJ1sq4rb2D/+DASdD8rMN8QET0iNMAcogMjnvsR53e2jdV63fgS3k6n4lWYPIz5dm2XXT0yphGCEeqbVMGU5UUVyzLAuXzgdVSXvE1oTBjDp/M6aIa3T2mnJFkvBcBBdT9+gNUK7wzquRd+lA1Y/6g6vCKkyAfT4asIodWwToXFxliTOFZj68Wl8kCvD5VXqMZlk9iKoet6UWxb0Phz2C2/do+dcPzLC6kmT2Fu63pXVHU9SX7cTpqemIIf+JzTX2WU2t2irHKwmzeNJ3hF01I3gQhrOqPZxy0Ez3TMEl4CIoc9HDadsjXOkgXaXx11wqdocExwLJCiy9zpgfTW8ga7/PHDR7Zw6Zipt6Pf4kSkyMWM4jwZqgtiknD7I2T5ZUkZZbHWPZTOEXlalm/tt+AqH0t+UxpZDsrlTN/eP2Fnf6i+v/VBowFiXHodh+KVDMWHLo291PZ1VmPWghi1+DuUDG0djGFE3guuqNOz+QMKFGzmx8Zv4ldFLRpnXM6oP1aUjnb5vkNuI2kwST1qfYlRtXhbI/PmTZHrDVdLIAXThEIBqEJTgGoQD5WlOa4TWAaApApgEh9gfhVb8VsQleXz+inifW4MHUqDIIIIjaeaQBOEziObPpLHwlnx47l3pbT4jXXv7yDYwly/zo2hv2v2urFvwI0Yxd1BtN0CCEsEjl7a6rdTzejSG3GvlyCMjTcO6Elw3xljLor41b0GspfCT66gM5B2lHrzmYs1knMtkWfsM2d7FBNfoG9uG3t1ZAXffNN3E29YACy2stAGQTjA1xe1qVMWV4KRD027lDbcEEwf6r7zrSlfIlfdqXESH0lt8WHTs8RDxr1L0C3R+X0DhW5ds2fMhuT66XeESpQZ1QZ+iPd67RabkXqQT1QYNdTtpWny9jy2SwS/Lymuf4+b5EZ1tryvBdcTpL77LIreOu3RWj5ljz6Uu1vFp/BMF6F2pOnZs4JypyKgKrl3aNlWaGlbQI2DmW1WbSAewXMl76U7FW+H0Y6Igq0zFcoWrZCrQGRhRkcDj78ssZeDVcVp9jxqdbNJNEqIqX+xjPC/QXX9dmk4ckU1HzypDunTZz4Up0HnwGNen/Aj6MdY1C5I6TdeDtS3Ecca5dSXBP4O+IzZBWn+Ce4zliCuZ3TTmIRiT7kjKlBGN8Ihh+eWmtxyCJG6jfirDpTl5XXQQva/5GmYRP0VL+im+sEw4odZExz4MYGMoFAb3P+CNEYxRcCX8AxJXCUjn918CDUuXpT7rdjTpuOz77ESjhQ0P6awwKYsk19SZGQIFlGb25LHHZfKMl6l3xrMcjSynOfXtujfzpNHcT6v74ki2unUnuKquxM5chEY/1Je4VjcWTyV6mom92xHPXAFRV7IoPoNF8WFPUlEv2o5Cs2umSPOkNirrFpZtPomauvXETI7q3cuASx0FXeyvwuwr38N/sXldutQ702WJ5fRN8IicPPUHpg43owyJBGOY2OmmWnPF33AIRg9ysCLA30Cjre49LHA8ZzfIIyN1ZLHuBNfRpcguqujQwWL8EQ6eUTVB2u0ycO7UyDxpntCOd8iCy733DVJsa5WGhjb2TN9Kj2cVnR5s1XaI2KrxAqe2mgEwxGEa59N6t9pp48vwYZ4d0uHVyk+n92kjGxg5hzu5eS5J6m4XmUerJu0zx55HD/MW6Ks7ppqAsVx8I/rPo6G5S862k25ktoLWp+Ce+eCwTJ6u5x7p6qEt3zN2Wc2mODsaV7ZxzO1G6LiFmIicZelLHiJRRd7eIC19E2RCnj3PjYsQz/vJtpIKmEsFTeOdSrvozalXVYclSVl6SaXLl+HtsviqgTEOOpB1XTJN5CEqy000XXYzV8K8zq6/RsJsLFtOoWH7nHqlNZO/yyTVOgqZGxU0oL5Y12WPswlupRE4opOsw35hnLEuBTfqosx4HSE5iDBpF7WCafFGIZ4+KrpMEqHAe83saShTq9rq2Pb2JpkSTGI5hD3CjFVti6pG3cCjLesk8utZy/IvaukN3uWSOI+bBU4Fe2catgFuhT2WSZ/ef2eitBqpj15gdYyPiPYm+Ljopo0kg0KZNsDMBdE5LoxePv8RxrYH0pGZ+xIp0HfmKWma/DQ0/yJ1QKubqoioHvQXJfKMdRvaXuGUavclvjHuZl5qKeORv9D/FhNCzI6aDl5f8QGCcEqqFP3w0epwqqMwYQHuRHBJwp6lOVNkcsuVLIIs4vwoWw5RohYg5AbtfpZucnk5ZMd4wfBx6fep4PmdXVHq0m9lPl9WUk7s8P5STn2ntpQngOcggrgDext+YETnkWrdd7vF0hnK3NpdvpGjabcQmgluGWkuzRPpAJ/8HTjpTkqa60obWM/N1M96lHU+Tqt76FJb3QqGvzQExjR3gCZDyx0xbM2HcadGxILbHcPHUqQ9SNeT1FhHyYWI+A0oTntNJszKR9dp6JWKuY+hoOwWWiRaWbQdBtq6JqKJ0xWqhcQmVSvxq3yMy+aS64/Pl0pUGeSKiuNdj1dLIlEpC0sIqHwR+w7BfK1VCTg7dwpnd9HjfUcaWm+mC3Yz4bpVskL7gis8Kk/VrKrqGy7Dtsvn/0J1WeHPzEhR4PQHG2XytJ9RV1+nSKU1BvqnqgD3PFrdByTs2Cyy63CUZni/9Su4W7pOy+qFekj+XZiacW7M9Z5QnmKJXwnETWvGPChXdrCMZHR9FaZHF7HBbYNW3HmyleXQXIlxr0CovPD5CM3hnyQucfhUka3pfJR/04C8LoVuPTwOTHv4+LAFUYU1RGjDgzKJzf1PR5sk7M1zdstEbrEXdCIHbthQXn75uyYCKOvLTTcABcyTmZGigBu+rZr2LT6dD1Jv3K9UUbKKsutGczldQ/gIfb/3L+Wwfd0KLrwe2kKxkxvj9kbjUe0uE+qFISFcWYBe+fgABNQNElMgJTtemLgJk8QQN1WG0t5FxWHenSRPh/vERLpuso/TxPqoX+M0HW5nq1sdsUdVvog5xbOfMlirRlAleFnO9u8wg+36ev3AcVnTsZVCPkkx9BT4urji4nI9LPqqaF25g62Nq4h9CSiyHVKOLiP0c6hnm1zX+hPo/A3qQY+VYsVluzpxTDBHgtynZUIbddtNozM8Ezfpw8s87rkKxYMwOBoDbc9AWGLG9ULhE1gU2rj7YNyRuXL8I+ImclSWdZDikjTV4n15pXdHZVeGhywuoZQXmXsSfP4vfH8qtv/P0STxt7Jxx3ODCi3luk9AQNffGrT+G67r8C/DTrs1WMfAljVtvY9ozUK9YykzI0gBc/DgWeruexSp9xtFRm0drrnHubVXd68ELTezrjvshnPYGWOwxtd6pfskDLidiSRdm6W1UT5Wg+W/dAkFk4AoSSlBKm1FmgpvnPE8VrUM6bDErTWpwqoK1d6hwOedInBhwilEc/9ROT4kzf2HevfLVc0vMbLSJQkdAmCSd0VeF+TCGohbJsVQZ8rZq5yZEaVAb+92aWlmK6T8DnRmzkElt6wu8HCRWM5+Sd69liHO8PYw17XgQoHQBnQnbY6upW2DPtqiQBf3mauoDw3zJk3INGHTbtJWeH1uZ/s4tdW4Ir0nCXBR5QWxV9ii8sUYVcPzNIL6HCdf35a+rhMo0+6nmHQhcf7zW9E9Nws5hmc+TUrVtUVPwhejgHm3luMAvZ4RApdhz9ykYzMNzcwIUUAbk7Xt32ah437o3u5KrawCve3Qymdk0sR/omYeJ3rI6+p1LbiOKOeYrGnMMcMqqyEG28tik+ZVH6a249t0AG7txqQj0ml8lLc1qy/b2+mwAZWkkWrctkNO4thnaGyfl77wVZZi3+fGAb1mg7HtJZrC6Z3S2PoGHzHdTcbkG8bBApAOH34ieNXHWN+skonT53PuQif4MjNCFIC4oT3Vt1Mm5n9Ikf89tKcxSRVeqoPJTGT9piyftkm2HRvyDH/5GC9Vft04t+09Cam2w520HJBN2dIZdcSPC0v54xTl6TQ5aVzaOIHPot5q4T7e2/59UWKtIv2SnqLifszzdTb3/4a8V/wz2dz1U5ZjDuj6H1kvXWgVvm2HP6TF3RRfS8q7PVDe1kSJgZ2YXc5Z3UlW/x/vBK0acbx+AJ4MH4HGb5dDRF346lCBDlgaCmaydXbopu4FFzrAe7RgYt+nNVNhqTAaxBPwJDuScCeTBZpc4yMran2rxGsa9/h02OkwdbtZY1ukSoDFcBLH/jmKwG+Vzbs+Yzbv+rbZ/NYODkmcBOYhd430beczlBlKcPYXwLSX2WhWbRVeb2LYkyGE86s+rvXZJJWn0cjZrn57znVS4rd4UA4f0195xDv1dboK0GD+kGt2WKYbmql7wXXo5o/zZbPc3cIeUCWMGqgXPbEjxHZLI3Gkb11dtMZVpE/iPbHj/Em6uJxIWoustOi+6U7sb3JQ7r+T/uKXEdh/a17cu5ucIy6o+vYB5nCOyaYiH4zgHCdWUtEedg3jUdwiw/Ai1Nv9mETJzIhS4PUDJ6RY1DPPHIhRyY1pHleBe5e6VWvppOKdQ3335SG4L7yvQvMMtOF+1bjVVQHzUuzceGPa+WBHLB/nPKmfJJxMmq/06NlWXW/V3UynCO/G/QQf1n/Nu7/GpM8fyZYd3zZbd+8ly5iuk+okFQLLVRlsi4y6DimEYqfi4Y3hoL8xt7J/echffF9EZlenAGQO5WyRpUrh6hinKVP5ZqAxaM8w8nt65HRg5OAhl8X4Rolke8OfSVPuG/DrZAhBEFRSQqUZVengiedtH6bp0mFJeBwYkZ2WU9eMDeNJvUcm3C7F3KPS0LNVjh04cyk7YfR1I2JO9bwskya8wfhJl4WiljTBC4dzg6zD1zST5G5uen+UYO3CJylHBJaPeiGv7XlfVi/6KSL8CUixiCeaqFLalxmGLI2t6KaS7xF1Ub2zy0JwHQ3MW11iFz6G2pgF+LmoOUWdlHOAIKcJqOmUdV16fqLZZkTWcgyLMXS0o4mZW26eKwizgW/pRcYXRej0a0bV3XnwBFtBH+Udt/FEs+wOH32rOspkkwDWdBvY9tnWtoe1Yw7cZ2akKABxQ2t7d6B77AnI3gb5dacexZfVAUGWAwi5L8uq9ufkIq9uuTy6ypAiOm0RfhuaMN51swHDo7/S1Rmk1hjdkbUbQv+Ecv9PxoP/oxT7/51s2fl3ZtvO10laW0ILsA6mQu5xnLopxQU4O/lJEIzijFzBDOjtMotzzZkZeQps2Ydm0qIO4/ZROBJbIbT6Rq0Sg0LDoOEuYi9KJi8qkZZdF2Zz16vosv1PwMo5VfcX0cnNIMc0U7oN8GuYC9eu8ElcHBdkCSe0/4Hwf8Us7R/KqQ//b9m8+yl3p2ukIZEkNWqOc+RRRL/yMV4pONNh6tbNAIbjaLZhId6UVKfyZM5hUwCCFuC3F+EltrOqGlxMug5K/hk0DF+QWxbMd2ku8HP5dJVBFCIV7bn+b0mLdpfNr0OhaRfAn2ioyG1O/LxDC7sHIuvROS6xMq9Lz4f7RkOZ9YVhurQUTi/XrOu/g0z+GnipYEbGCWqVsvW4WcA4azFKvjvdREqVRFnQsCmwpesdd/uBcLjF6p1Q2qrGlRINx7ToBupgmTQ26IXsf+kE/jwvvKwEV/E0r3Qft2vb/7OEQZHx7pdhXCZpdMDrP3NKsJhowiy01StNODYXBEw0Fbkbp7hfepqPmM5OVWNaxybYDF67GDXoTqrI+HG/kiIhgUahK8nI3TJx3l+L7DsSJc5+R4oCkLpobZF9yQ2bEdnrKbfaLL5OqU4n/n5ZNf8x2bJXe02DmstOcB2mG7v2yrJ5/0mam3ZDjF8ibCkCqocQ4FE2SFgOJRgUgYvdSMirEvbulf7ch6h0OQWRR2Ynk3vZ+P3oZVN2zUJOqgR/wld+YKtb3voq0yyJFOEJx9IyM+IU0DuHVnHTnzV3UDbKG/gr+4DisU7x4Me4VExbXV1OHHQOpey7O+LAjmOBIG5k8cxWab0CjRbhHIhyNSHovuVwemjQPhC+S/j7zOLptsMxXW8dK7LYWzs60On7DLijQCB+a5pZ1O2N0dNK5luyaedvnY9hfPLMHjoF7LJ5c2lM/pycD1EfjVVK0JmZfhqVJ5gw/Fe6065KGhd0eba4oAbzWXEnX47uhj+7OIGak3OLjXR2aov60VAC/tKut2Rtx9OMFD4fkST5xVHhVoUCYu+WWzva5aVdemgjMyNNgdai7qs/RrG0pPol5XELIMqt7iuq7TA6zgz6unOfIGQXMVV7gJfXrPIghFbkdblIx624C0qmQZJeVsGu0ovBD8H27HkRU2roY+Qq2EaHFpkZYQrYa66ZIP3NHPUTvUeqKSoeojtOdD+lNwZ2Jiy7XlZ2zC0Flrs+EoJbjvJHzHfi5ONgvLf0hUecdZLKT1QpOZQLnD/QHtg37MyZ1SZPNGVmhkABxNHY5dOm2DUdD0jbpL9n1vi/EMSschDQqiK0PK7l1UKTemHsG6ByN7eCj+j9Thl/lXdetl3lKrh+NIMKLbp2qJvddcudHuCOjLfVp27tsqkdcM9S+4x75ejRf9aozAydApAxJ4tnT5HWiStwfQaZ/BQEZo4FSVUa64/KrDdOgAnTOH00zjqtnSi3mf8k390BM8xZi+uJd7naXV1MdhSfhhHeTxhDmaPS+DCd2bThr+KN9jlXpsv8g1JAaYbWzWnsT+bET+uf8ZnUzUC/xYPua8TR01hLSLu9vzxMW+WVzPSv5tjfgImsrMVVol3Gho93aM8W3mBTyhY+5Xz5Xce4HGPXTYZrlHF0eiQwd7J0wXaMXZl2jHJKDfBBsujGxnMNV0pz4w2Q91fYaXcfQ4+Z0FM1jVAFpCo7H00xrpWNi9MW1teBC9IAjF7KHrIxZkrPs/j2u7D4JxPcNDUuV3ff6Q+kedoTMMed8NDkMjSVR6IZzUhwo0jUqgSfh930EMVluVRWRoNheuzs2S1yXdO1SNgyac7fAwE/zjNbZdl9BF25+jXExFbkUX8c4OifhMYOjSMipNdjzBIJc/MIOZAuNesqV9LscvR3Hj3LHu7tMAuTVBVGecQ/GqXu0LIkYe/htMpVGpSZcgpYRp52LWuysyf9kpj8H9ND/rfI2VcRNoQY4+l5Pjtd5GDpNE2I8j+bmxFd71rKlLW4JVpcti6+1EXbm9/HIsRGOsqLYayG8yKr3Tt332tuPTz1HfftP2+Gyz8SOkRd4sKEq6UXfV0BW0SN7j0O2pBUPT4JmdJGvS4XNm4Vzugn8iduDY/TqjNdTNR9RhUSu/3QZeqi459McNPUuJzdx3o/lKsbnqd1oJXgDqHEKD94xlHbGXVMgjk/xYVoP5XXD+imgY+sQclqk0ztaKPXcqvkGW7olZlW5iJQuh6bEC3lIjgtZ7hLqSritISKtATFph+by93C/dhl2x8zwfUkutzt7u5eueaG1+kCb4epYsH13OQZJ7bdfArdZTFLUe59E6R57nInTzX8oEYgK+fOFWm+iwvh7uajpxoZr0MmEVg/u+RpWK2EOMwn8WROhNpHpPL6ZTnhVgqj7SxnzE+dUL1lSW5NnQluimaXs1Mr3p46c0haW3R2+S6+8uhehheUd9Is4Xkpmg2dxQzzHbatbavTZ3U5EyiFG+QIZPk106Vh8iehExNOfMACt6SjGiw8heIcMfG8HPtyKumq4S6nT+/9PgPhkXokXTg6Q229wPj2L+VUz/PVlNZnguvp9lGwVd/vmvaX2JXzFuguTVCOWtjIqwwYsaY6JrIyeZtc3fgD6dbjj5e3ceulrQWuB0HzYhB+EfxvRIA4FmpZR2Uvt5dZJ3ueTuqJCDaAOgOCfZ5USp/GCa3TuMLBAvtDCYo/lPDcXtPJfURVTCa4VYhyuQbBI0VrGrgcTG8B5BiftixqlHmc8DoffBO3CvQNScJ1JcUVhGh3reqG9zhX3VrgFsiSjrkyoW898oliN7uSnjCbJvQ4ZCxZniTe1mDnxqF24o/dnhrp9JpQ/T69pnHxrn+sH9OfUEM/Fr1/6JXuE3HJmmqAyQR3AEku84DDZ4/IrEZVHPAZuGZ61Fg47okRVw5MjPLOLDYBrJHlKKDbtjvSY5VE17/DLm2bKk1Nn2SB5zMsu3B3MPjq8U83ho1Fx5MkTaZI4iBAZaT3E1WWvoJWLk5/AlQKo8LVmn+QM/3bZfqeD1Glf8G180xwK+h5uXt1rGqvnI9qnoY3YbrbyrhLec7NcOJIGIuxsBHd8K5d6ycuB/qAWk5WzZuB9kXG+vINkF0FvqiqtYHrg2iPww0Z1AZjfdI7HlKy6eKcnx9N43oruNN09Hl9nPZcTHiSvM+T4c/l8LmXhzqHkAnu5cCJQ8XhxMldMn0GF5DJSjgstQ82ZlRXnnKrM7qmOx/XWrtk1qZ61MEV4yHupE1D27WgfAc9js8hZOvBP95JFkujR9sJHjnj4ERANd6ncQWrRxNhJ+HejR1Hxbl0TfY4gVvoxXwHBYSPVJt4csVe4CcT3AsQ6HKMNrveP2XXzngJRvsEjDQXHGEv5bDYShjQYw9zq/rQxonzRI684UPrxdadTnKmjRa2cQO3wX8BgV3F7jDtEvu2cCAqSgMlSdoMoItGViZKZ0hEWecGTiHZ6DQz/yx9hR/Ltq5ucpatzZblvIAnE9wLEOiyje4vbJV8jhlMtxmjxAel7lyEumNgyySV3IwupGV4d1wKw40VPYFTl3Saufn9CulpXILS999GYOlhWO4PZtKpzKSET/F3Xn4Ud29c2ICAKE0qu0+OrQUhmAaBDbt457+gwuGHcujMW+7m+lTC4TgrEBhOEVmeuqRA2IWi94VoggxgZrQLKrsqXyoTev50DMmPriyqgBtzuyy/4QnZtuMd/DVpVFq4C4lDErZNgvwaWthPIrBsntAxrEMIp8MJ2yMaBfEbOVLBURi/LsznT0LLHVEapRb6u+yH2DuYJX5SioWH5aU9O8l9wUmn8gIH92WCOzhtLusYVeVj14YquJ+GK9E/zbqH8qVf/vDYu5UKx7CNtGG3SL64gKiaFFy7GM0dU6a2g8Ra5pnuBN51CFDcJQYHh4YiFkum+gcIqQbECX18YhOXinYTWFpceSEoLgg7CXwagf05ZW0zL+1RJfsjajLBHVFy1llhxeKrdH9hMsM50vieIc/IfieQCm40Q0qLzK7dQJYySbW9ViapFDpZMmuCNE9pZ66YPcSBbv5fxsP9v6pJkS+R6/6DYSyPrpa82wulrzoXnpLOqvGamIiILiq33E1sOIFl9xDxJIL7GHGvyJY975NqVNa+M8H1FfZRtLfse0/WXP8CR9M2wH2zIQF8lmLaMpo4EZmIovkN0jj1cSapxlUTpINmVfskpncWSGOwhp7D/YB7K+DPAAc9/aQiF5uU04WoX/FMmQFoE+A/XqlkJfIk+WlhzT66xM+R7GcSnnpBXjx0nDcMe+Ip/brB3JngDkaZj0A4zGWtCV+gUdgLulfDgJHi9ISJPXPGjG9Z5zSymjnaDmL2EDpiY7ahkJu7GRpl4qKbadXWcaP7evIuB65rESrg9zCnSlTwqwSnUlQkcJQpj45JEH0OnEdvuthLe/oc73ycbvFm2brnEDGj0sKWA5MdMqikx0fPf6B3j1yX30qPchnIs6apTIvr/2/v/H7jOqo4fu7a+eFEIY1SAVVVWtduYzcQikSaugFCgJZQaIUoLyBAVQVCgn8ACR74CygPSPQJxAviR9KoqpomgUKcNontJkG0RbSOEzup7SRN41DHv9b27vA5c+/snV3WP2LW9to7Y+29M3POnJk5d76euXPPzLiGajWSRNi3YKOL6z8jO5o65I3z71nyEl44XoZ37LpvkuUXKWcroGErU7V00gKXolPrQpySbH38ijl+pVsiTJ6zcT6/0iwfxhNylQBgzb3A+W9nZbhvcKnPRg49rvesatGrnybMXQ+wC2T+Cdr9Jn7AkwZaaLN40oUH6q9DT1+Whuh5KIv2Duc/C05r3yCZDY1Sn3mKcj1OCRu5bwZIbGynaNIyaooEgMktlqFkftoTK4/SLK9SfcYSHiUX+KyP0YUBsDokNgcYbJyW9YSP9WVJmXJquiVwAbhLoOSqz+L69D/l9sybALaJHoo2QTss9ELaoF0NEk8k26Dv5IiXt+LTIhy9snfT3LxOttaRl+xjPeyTFItJNGbATVI4v1wKnULYK4fGaa9roUXA3j1eF9Yk/j8oDccCdeiLtZO0Mwh+EZ5jMpQfjHp6s8qxXC4Ad7k0X035dndfl9s5kErUksqt0fZatOuBLaDhsrsX1j0qW7a8JHKNyZnKOnLOcGIdQ+L6J5mt/Qq95SfJ4TYyprenMA6g7q5Fdf5yRblVmqtvZKawdGKvrtzvOLTmFbkyekn6+ycQ5ymnXIaLHxeAu/g6rvoctCGaDA3THoZmAAzOB4Odbilqqwqe3TJZ12o+z+6DxyozSUUO9fJIK5NM+a+DT0wToxYKwvDdApZCJT2tP/R1xXLgdGFbCe+idEvzGJ3XY7NcOT14S97F/5yM5Q/IcPdl6WOnqURCMfvyhAJwl0fv1Zfr+Nu9sraFd13zI/CR9mpa0nIztWptVS/fkLE7MeIYuL7QCoGleBO2/PpGJp0e5V37aXrZjxcP2T2EWa+HTg07skY7f7kCubSOT8Pq10XsEePpiIXsOcGiLPeiDN94jgUAV8qJqYa4ANxqeApVUAZrSdWWP0jjfYbiNMyzSHvEbNSVQwsCrmljX+Jswz2YJu4DOE8g59P8dIIMMIGqciBUWqkrF1fK44ed3DidXnWXifP09Ic43vIFGeo5G/XIsr7D+sUt5w/ALaeVWo0bmTgrH9p4ht5uN6hJmrePCqJsMImL2OmwLtpL6LSjzKU6eDlXZ3uDrM9+BDuJx/iQ8y1kbicd77D2qM9YhOau2dhSqHQCflwRzfHFSW3CAl3lkNCfVVYGtScWmWCVkH7SOsJ32D9Jlr2n59h5wuWw3HerluUuRMi/ejRg2lp+CGZ/RYnSf+oKAnVuyFzUG+Zf59PI16KTs3/TRUSGrV43y4Y197K87mFkfRv47ESoGk3E7bAgF+5CnjZjwkmEA28SrbfYuaac8PnpU7/69DdKvpfwdkkuv1/GP2ivFhPOpDJz3tKHMydrYKgJDUxEh6XBDNCw77b1dY1eA6V+24th55yp2wv1j5a/5EKSiBMRNnFtBrt76FQ5V8e0IUuNPRLAeolcHg6gNqwXF1GG14uybH449eubrE46XeDeSWWO8D59XDq7B5Hsck25q9wXK67KCxmKt3QaoAXXSVvLL8HUj8k1Xuqn2duWAtU18bTlAAhAMJH7XvSPnmuupLDFy+vqM60sZNhDcC+Jsc6KtvLjs04Zp7ILcl1GPp8SiXekAq/yJDSfPebTSSc1nhiEpR2wHuKI8y4ZrR/Qg8599pXkL6r6Sip4KOviacA83LRbMmsOAYZ4WxcFgGspFgxcbLgQOUz4pzIx/Bs5MzguD96zWdav2w5gPgfjFwDNDugsHbTDbxK5dCV18POxJJtZzG695dIlPFam7wfexugE02VInWy3+rJMTx6Xm0tvnlhSy4oEw1C5ImpcZUJM9CY10uHkl7iXAA1wWPz4IFKAmx+wgfiI7N50EWOFT/FGu4+0DwKerfBnPPQRrQAjfXIjgHOgi0NJJi6Q3B1PUd4ej4vnrB2JBhiSn2I1019ZuXNcurrPJTl6/CvX62q6cmsQSl5xDcSbqm37PjPGz4InDPgTp6+kbpIoRq+jcMfKSD+pROYas7h347+Dn3YMSRvTmwMeXhutYdcEfZqj6905n+7SOBr3VNQNAif5tHMYg5LjMv6f8ytt4smr1YzeMhqYkTcQakgDZte99zH7ux9csXyOP4sbH3ylTcciWrn0p7v+p+/HBb1ZIYVQ7HFySmkuvgx7MSsho592bpBzB78DMsXOHiNDA/LO+yNIKeYuEbdSg2GovFKf3KKXO3OV3vNles9WstKF6TgfA4lfbzHGFKipxZXrmV2SGXBYJLOI1wVsxunFjzY2E7aFwZ5YME3UfZ+jsYtypjrsidNCV94XgFt5na4OiQ09YzJ13yvY9T8NIHXfJpxDjfZjzu9FK5ON5vI/QPUjkrTJ51uVnMpWf8LrsvC/H7syGJmkV/8XgP2z5NnbaXzkbXnj6pgrgUpZzc7X5mquZ6jbAjRgdjbdxRauvwYgnFjn0DSLIAXa4rcoNhWPrmH39FuODfmDDA1dYGmhAtYuhZildKuKFHrcVfU4K1yZ+ixnBW04TCf3WSTHn4ZsFmXQ6feKzq+8tlctdJ02ddq7IscacWi0yoTPiXZJUhJbnmLtVJc5ItnxZ6PTve8oqVadU1Ot1j/UexYNWBg91MweU5lfAJpdsMbtxRo8+cjyhDigupalbM5v2TSQpHUiiuiJLEtjPB5hT2zNEyPd6nS/nPz3Kdh1BrumXehxa/rxz155AML0z3Sv5NeeYJ6Yb7K6qTjOB6MDX6koP97x2zguHnYL8tL0MOgLdKSA1QmyV/ms83sZHnmds2KHUrba9gXg1vbzn7v2+b7rUn//CcD6VZh1G5kyn3mgWDByccNkC9I5xGsadY6XLSeRM4qMAeJYvGAOysTIq1hjDcFaU++wsWJmvgbgzqybQEED8TrdHJZUuhMkexjrpyEHTtWQA99s/iKaJtAOVSMTF/8rUPPEfmhYO0VHxIy0S+eALgAIgHV68u4BuJ4ygncGDUyOD8qajSdZ2YPdcXRn2kWW8mvXmQCzlFQ+rAly4PgKM8WdJD0quam/y8iFi0u93Wn54lVvrP9/r3pLGUq2rBqw/eOubZ9gS5mfAy7dqYJ/+DOBdC7gFugTyBpE1ilsm/8i0dQJWZfrj4718W4b3FwaCD3uXBoKdO1DjcHmVzZu/htn87Shko/GalHwqoOj8FnHxcXRllyMcT39QDdi4x02wjJr6jXpON+LBBYGBDdfDQTgzldTtc6HVZK0bWmPe1zOmI0XEBRrRTvTci6O10877/MvoJ1PS0clmsSueLInOtWv+z0Fd4saCMC9RYXVKjvYM+byxDm5Y83zvOs2M1JuBIjpDLOC03a2BQ8dKt2wYevWyHwAtYv9nQ7KdK6DVUeXpOPCTZVZq/r8f+utWg4uaGDeGjA7mj7MvlE/47vud8CdbvAWg9cOlZPmpFudxkYSV4HmWTsknp5+TbI3+2rJnnjeSl0AYwDuApRW60nMQy33S8b8BPA+hS42WfDaztM2J31XZc8qc9QuYs/nu+S9LBuKL88ZO6v1WQXgrtYnu4j1ojuN5JHGj4ms/S54fYZOtxGgZnl3ZbWOeYkh8VEZnTonb/WqpdM0jSwMiSv8PP4L7bOSFhAziZAAAAAASUVORK5CYII=;fontSize=9;" vertex="1" parent="1">
          <mxGeometry x="293.5" y="220" width="30" height="30" as="geometry" />
        </mxCell>
        <mxCell id="Je1Hd4dE8nQYAFv2ral5-7" value="My SQL Server" style="shape=image;verticalLabelPosition=bottom;labelBackgroundColor=#ffffff;verticalAlign=top;aspect=fixed;imageAspect=0;image=data:image/svg+xml,PHN2ZyB4bWxuczpkYz0iaHR0cDovL3B1cmwub3JnL2RjL2VsZW1lbnRzLzEuMS8iIHhtbG5zOmNjPSJodHRwOi8vY3JlYXRpdmVjb21tb25zLm9yZy9ucyMiIHhtbG5zOnJkZj0iaHR0cDovL3d3dy53My5vcmcvMTk5OS8wMi8yMi1yZGYtc3ludGF4LW5zIyIgeG1sbnM6c3ZnPSJodHRwOi8vd3d3LnczLm9yZy8yMDAwL3N2ZyIgeG1sbnM9Imh0dHA6Ly93d3cudzMub3JnLzIwMDAvc3ZnIiB4bWxuczpzb2RpcG9kaT0iaHR0cDovL3NvZGlwb2RpLnNvdXJjZWZvcmdlLm5ldC9EVEQvc29kaXBvZGktMC5kdGQiIHhtbG5zOmlua3NjYXBlPSJodHRwOi8vd3d3Lmlua3NjYXBlLm9yZy9uYW1lc3BhY2VzL2lua3NjYXBlIiB2ZXJzaW9uPSIxLjEiIGlkPSJzdmc4NjU5MCIgaW5rc2NhcGU6dmVyc2lvbj0iMC45Mi4zICgyNDA1NTQ2LCAyMDE4LTAzLTExKSIgc29kaXBvZGk6ZG9jbmFtZT0ibXlzcWwuc3ZnIiB4PSIwcHgiIHk9IjBweCIgdmlld0JveD0iMCAwIDI4LjUxIDM3LjUiIHhtbDpzcGFjZT0icHJlc2VydmUiIHdpZHRoPSIyOC41MSIgaGVpZ2h0PSIzNy41Ij48bWV0YWRhdGEgaWQ9Im1ldGFkYXRhNTY4MSI+PHJkZjpSREY+PGNjOldvcmsgcmRmOmFib3V0PSIiPjxkYzpmb3JtYXQ+aW1hZ2Uvc3ZnK3htbDwvZGM6Zm9ybWF0PjxkYzp0eXBlIHJkZjpyZXNvdXJjZT0iaHR0cDovL3B1cmwub3JnL2RjL2RjbWl0eXBlL1N0aWxsSW1hZ2UiLz48ZGM6dGl0bGUvPjwvY2M6V29yaz48L3JkZjpSREY+PC9tZXRhZGF0YT48ZGVmcyBpZD0iZGVmczU2NzkiPiYjeGE7CSYjeGE7JiN4YTsJJiN4YTsmI3hhOwkmI3hhOyYjeGE7CSYjeGE7JiN4YTsJJiN4YTsmI3hhOwkmI3hhOyYjeGE7CSYjeGE7JiN4YTsJJiN4YTs8L2RlZnM+JiN4YTs8ZmlsdGVyIGlkPSJmaWx0ZXJfMiI+JiN4YTsJPGZlR2F1c3NpYW5CbHVyIGlkPSJmZUdhdXNzaWFuQmx1cjg2NTE1IiBzdGREZXZpYXRpb249IjIiLz4mI3hhOzwvZmlsdGVyPiYjeGE7PHNvZGlwb2RpOm5hbWVkdmlldyBib3JkZXJjb2xvcj0iIzY2NjY2NiIgYm9yZGVyb3BhY2l0eT0iMSIgZml0LW1hcmdpbi1ib3R0b209IjAiIGZpdC1tYXJnaW4tbGVmdD0iMCIgZml0LW1hcmdpbi1yaWdodD0iMCIgZml0LW1hcmdpbi10b3A9IjAiIGdyaWR0b2xlcmFuY2U9IjEwIiBndWlkZXRvbGVyYW5jZT0iMTAiIGlkPSJuYW1lZHZpZXc4NjU5MiIgaW5rc2NhcGU6Y3VycmVudC1sYXllcj0ic3ZnODY1OTAiIGlua3NjYXBlOmN4PSItMjguMDU4Mzc2IiBpbmtzY2FwZTpjeT0iMjQuNzM0MjY3IiBpbmtzY2FwZTpwYWdlb3BhY2l0eT0iMCIgaW5rc2NhcGU6cGFnZXNoYWRvdz0iMiIgaW5rc2NhcGU6d2luZG93LWhlaWdodD0iMTAxNyIgaW5rc2NhcGU6d2luZG93LW1heGltaXplZD0iMSIgaW5rc2NhcGU6d2luZG93LXdpZHRoPSIxOTIwIiBpbmtzY2FwZTp3aW5kb3cteD0iLTgiIGlua3NjYXBlOndpbmRvdy15PSItOCIgaW5rc2NhcGU6em9vbT0iMTAuNTcwMDIyIiBvYmplY3R0b2xlcmFuY2U9IjEwIiBwYWdlY29sb3I9IiNmZmZmZmYiIHNob3dncmlkPSJmYWxzZSI+JiN4YTsJPC9zb2RpcG9kaTpuYW1lZHZpZXc+JiN4YTsmI3hhOzxwYXRoIGlkPSJwYXRoODY1MjgiIGlua3NjYXBlOmNvbm5lY3Rvci1jdXJ2YXR1cmU9IjAiIHN0eWxlPSJmaWxsOiMwMDcyYzYiIGQ9Im0gMCw1LjEyIHYgMjcuMjYgYyAwLDIuODMgNi4zOCw1LjEyIDE0LjI1LDUuMTIgViA1LjEyIFoiLz4mI3hhOyYjeGE7PHBhdGggaWQ9InBhdGg4NjUzNiIgaW5rc2NhcGU6Y29ubmVjdG9yLWN1cnZhdHVyZT0iMCIgc3R5bGU9ImZpbGw6IzAwNzJjNiIgZD0ibSAxNC4wNiwzNy41IGggMC4xOSBjIDcuODcsMCAxNC4yNiwtMi4yOSAxNC4yNiwtNS4xMiBWIDUuMTIgSCAxNC4wNiBaIi8+JiN4YTsmI3hhOzxwYXRoIGlkPSJwYXRoODY1NDQiIGlua3NjYXBlOmNvbm5lY3Rvci1jdXJ2YXR1cmU9IjAiIHN0eWxlPSJmaWxsOiNmZmZmZmY7ZmlsbC1vcGFjaXR5OjAuMTUiIGQ9Im0gMTQuMDYsMzcuNSBoIDAuMTkgYyA3Ljg3LDAgMTQuMjYsLTIuMjkgMTQuMjYsLTUuMTIgViA1LjEyIEggMTQuMDYgWiIvPiYjeGE7JiN4YTs8cGF0aCBpZD0icGF0aDg2NTUyIiBpbmtzY2FwZTpjb25uZWN0b3ItY3VydmF0dXJlPSIwIiBzdHlsZT0iZmlsbDojZmZmZmZmIiBkPSJtIDI4LjUsNS4xMyBjIDAsMi44MyAtNi4zOCw1LjEyIC0xNC4yNSw1LjEyIEMgNi4zOCwxMC4yNSAwLDcuOTYgMCw1LjEzIDAsMi4zIDYuMzgsMCAxNC4yNSwwIDIyLjEyLDAgMjguNSwyLjMgMjguNSw1LjEzIFoiLz4mI3hhOyYjeGE7PHBhdGggaWQ9InBhdGg4NjU2MCIgaW5rc2NhcGU6Y29ubmVjdG9yLWN1cnZhdHVyZT0iMCIgc3R5bGU9ImZpbGw6I2RkNTkwMCIgZD0iTSAyNS41OCw0LjgzIEMgMjUuNTgsNi43IDIwLjUxLDguMjEgMTQuMjUsOC4yMSA3Ljk5LDguMjEgMi45MSw2LjcgMi45MSw0LjgzIGMgMCwtMS44NyA1LjA4LC0zLjM4IDExLjM0LC0zLjM4IDYuMjYsMCAxMS4zMywxLjUxIDExLjMzLDMuMzggeiIvPiYjeGE7JiN4YTs8cGF0aCBpZD0icGF0aDg2NTY4IiBpbmtzY2FwZTpjb25uZWN0b3ItY3VydmF0dXJlPSIwIiBzdHlsZT0iZmlsbDojZmY4YzAwIiBkPSJNIDIzLjIxLDYuOSBDIDI0LjY5LDYuMzMgMjUuNTgsNS42MSAyNS41OCw0Ljg0IDI1LjU4LDIuOTcgMjAuNTEsMS40NiAxNC4yNSwxLjQ2IDcuOTksMS40NiAyLjkxLDIuOTcgMi45MSw0Ljg0IDIuOTEsNS42MSAzLjgsNi4zMyA1LjI5LDYuOSA3LjM2LDYuMSAxMC42LDUuNTkgMTQuMjUsNS41OSBjIDMuNjUsMCA2Ljg4LDAuNTEgOC45NiwxLjMxIHoiLz4mI3hhOyYjeGE7PHBhdGggaWQ9InBhdGg4NjU3NiIgaW5rc2NhcGU6Y29ubmVjdG9yLWN1cnZhdHVyZT0iMCIgc3R5bGU9ImZpbGw6I2ZmZmZmZiIgZD0ibSAyLjk2LDI1LjE5IGggMS44IHYgLTcuMTIgbCAyLjc5LDYuMiBjIDAuMzMsMC43NSAwLjc4LDEuMDIgMS42NywxLjAyIDAuODgsMCAxLjMxLC0wLjI3IDEuNjQsLTEuMDIgbCAyLjc5LC02LjIgdiA3LjEyIGggMS44MSB2IC03LjExIGMgMCwtMC42OSAtMC4yOCwtMS4wMyAtMC44NSwtMS4yIC0xLjM3LC0wLjQzIC0yLjI5LC0wLjA2IC0yLjcxLDAuODcgTCA5LjE2LDIzLjg3IDYuNTEsMTcuNzUgYyAtMC40LC0wLjkzIC0xLjMzLC0xLjMgLTIuNywtMC44NyAtMC41NywwLjE3IC0wLjg1LDAuNTEgLTAuODUsMS4yIHoiLz4mI3hhOyYjeGE7PHBhdGggaWQ9InBhdGg4NjU4NCIgaW5rc2NhcGU6Y29ubmVjdG9yLWN1cnZhdHVyZT0iMCIgc3R5bGU9ImZpbGw6I2ZmZmZmZiIgZD0ibSAxNi45NSwxOS40IGggMS44IHYgMy45MiBjIC0wLjAyLDAuMjEgMC4wNywwLjcxIDEuMDYsMC43MyAwLjUsMC4wMSAzLjg4LDAgMy45MiwwIHYgLTQuNjcgaCAxLjggYyAwLjAxLDAgMCw2LjM3IDAsNi4zOSAwLjAxLDEuNTcgLTEuOTUsMS45MSAtMi44NSwxLjk0IEggMTYuOTkgViAyNi41IGMgMC4wMSwwIDUuNjksMCA1LjcsMCAxLjE2LC0wLjEyIDEuMDIsLTAuNyAxLjAyLC0wLjkgdiAtMC40NyBoIC0zLjgzIGMgLTEuNzgsLTAuMDEgLTIuOTIsLTAuNzkgLTIuOTMsLTEuNjkgMCwtMC4wOCAwLjA0LC00IDAsLTQuMDQgeiIvPiYjeGE7PC9zdmc+;" vertex="1" parent="1">
          <mxGeometry x="463" y="140" width="53.42" height="70" as="geometry" />
        </mxCell>
        <mxCell id="Je1Hd4dE8nQYAFv2ral5-8" value="Usuario A" style="shape=umlActor;verticalLabelPosition=bottom;verticalAlign=top;html=1;outlineConnect=0;" vertex="1" parent="1">
          <mxGeometry x="73" y="180" width="30" height="60" as="geometry" />
        </mxCell>
        <mxCell id="Je1Hd4dE8nQYAFv2ral5-15" value="Silver" style="html=1;verticalLabelPosition=bottom;align=center;labelBackgroundColor=#ffffff;verticalAlign=top;strokeWidth=2;strokeColor=#0080F0;shadow=0;dashed=0;shape=mxgraph.ios7.icons.data;" vertex="1" parent="1">
          <mxGeometry x="604.36" y="471.4200000000001" width="40" height="49.05" as="geometry" />
        </mxCell>
        <mxCell id="Je1Hd4dE8nQYAFv2ral5-17" style="edgeStyle=orthogonalEdgeStyle;rounded=0;orthogonalLoop=1;jettySize=auto;html=1;entryX=-0.015;entryY=0.468;entryDx=0;entryDy=0;entryPerimeter=0;flowAnimation=1;" edge="1" parent="1" source="Je1Hd4dE8nQYAFv2ral5-1" target="SZY12_XKgGBlkoAp8IEY-2">
          <mxGeometry relative="1" as="geometry" />
        </mxCell>
        <mxCell id="Je1Hd4dE8nQYAFv2ral5-19" value="Databricks&lt;br style=&quot;font-size: 10px;&quot;&gt;SQL" style="aspect=fixed;html=1;perimeter=none;align=center;shadow=0;dashed=0;image;fontSize=10;image=img/lib/mscae/Databricks.svg;" vertex="1" parent="1">
          <mxGeometry x="677" y="479.41999999999996" width="28.72" height="30.23" as="geometry" />
        </mxCell>
        <mxCell id="Je1Hd4dE8nQYAFv2ral5-20" style="edgeStyle=orthogonalEdgeStyle;rounded=0;orthogonalLoop=1;jettySize=auto;html=1;entryX=0.007;entryY=0.55;entryDx=0;entryDy=0;entryPerimeter=0;flowAnimation=1;" edge="1" parent="1" source="Je1Hd4dE8nQYAFv2ral5-15" target="Je1Hd4dE8nQYAFv2ral5-19">
          <mxGeometry relative="1" as="geometry" />
        </mxCell>
        <mxCell id="Je1Hd4dE8nQYAFv2ral5-29" value="Usuario B" style="shape=umlActor;verticalLabelPosition=bottom;verticalAlign=top;html=1;outlineConnect=0;" vertex="1" parent="1">
          <mxGeometry x="1067" y="489.77" width="30" height="60" as="geometry" />
        </mxCell>
        <mxCell id="Je1Hd4dE8nQYAFv2ral5-30" style="edgeStyle=orthogonalEdgeStyle;rounded=0;orthogonalLoop=1;jettySize=auto;html=1;entryX=0.03;entryY=0.45;entryDx=0;entryDy=0;entryPerimeter=0;flowAnimation=1;" edge="1" parent="1" source="Je1Hd4dE8nQYAFv2ral5-4" target="SZY12_XKgGBlkoAp8IEY-11">
          <mxGeometry relative="1" as="geometry" />
        </mxCell>
      </root>
    </mxGraphModel>
  </diagram>
</mxfile>
